<mxfile host="Electron" modified="2024-04-04T23:38:37.717Z" agent="Mozilla/5.0 (Windows NT 10.0; Win64; x64) AppleWebKit/537.36 (KHTML, like Gecko) draw.io/24.1.0 Chrome/120.0.6099.109 Electron/28.1.0 Safari/537.36" etag="NF4YW2IoN8RdKxtMXPIT" version="24.1.0" type="device" pages="2">
  <diagram id="C5RBs43oDa-KdzZeNtuy" name="Page-1">
    <mxGraphModel dx="6057" dy="3079" grid="1" gridSize="12" guides="1" tooltips="1" connect="1" arrows="1" fold="1" page="1" pageScale="1" pageWidth="980" pageHeight="690" math="0" shadow="0">
      <root>
        <mxCell id="WIyWlLk6GJQsqaUBKTNV-0" />
        <mxCell id="WIyWlLk6GJQsqaUBKTNV-1" parent="WIyWlLk6GJQsqaUBKTNV-0" />
        <mxCell id="i9KKXfh8mhZqTk7yHNFx-0" value="&lt;font style=&quot;font-size: 14px;&quot;&gt;Showtime&lt;/font&gt;" style="swimlane;fontStyle=1;align=center;verticalAlign=top;childLayout=stackLayout;horizontal=1;startSize=26;horizontalStack=0;resizeParent=1;resizeParentMax=0;resizeLast=0;collapsible=1;marginBottom=0;whiteSpace=wrap;html=1;fillColor=#ffe6cc;strokeColor=#d79b00;" parent="WIyWlLk6GJQsqaUBKTNV-1" vertex="1">
          <mxGeometry x="-120" y="372" width="660" height="474" as="geometry" />
        </mxCell>
        <mxCell id="i9KKXfh8mhZqTk7yHNFx-6" value="- startTime : LocalTime" style="text;strokeColor=#d79b00;fillColor=#ffe6cc;align=left;verticalAlign=top;spacingLeft=4;spacingRight=4;overflow=hidden;rotatable=0;points=[[0,0.5],[1,0.5]];portConstraint=eastwest;whiteSpace=wrap;html=1;" parent="i9KKXfh8mhZqTk7yHNFx-0" vertex="1">
          <mxGeometry y="26" width="660" height="26" as="geometry" />
        </mxCell>
        <mxCell id="i9KKXfh8mhZqTk7yHNFx-1" value="- endTime : LocalTime" style="text;strokeColor=#d79b00;fillColor=#ffe6cc;align=left;verticalAlign=top;spacingLeft=4;spacingRight=4;overflow=hidden;rotatable=0;points=[[0,0.5],[1,0.5]];portConstraint=eastwest;whiteSpace=wrap;html=1;" parent="i9KKXfh8mhZqTk7yHNFx-0" vertex="1">
          <mxGeometry y="52" width="660" height="26" as="geometry" />
        </mxCell>
        <mxCell id="i9KKXfh8mhZqTk7yHNFx-5" value="- cinemaHall : CinemaHall" style="text;strokeColor=#d79b00;fillColor=#ffe6cc;align=left;verticalAlign=top;spacingLeft=4;spacingRight=4;overflow=hidden;rotatable=0;points=[[0,0.5],[1,0.5]];portConstraint=eastwest;whiteSpace=wrap;html=1;" parent="i9KKXfh8mhZqTk7yHNFx-0" vertex="1">
          <mxGeometry y="78" width="660" height="26" as="geometry" />
        </mxCell>
        <mxCell id="TVeIh7PDx6N5P01ksh86-14" value="- movie : Movie" style="text;strokeColor=#d79b00;fillColor=#ffe6cc;align=left;verticalAlign=top;spacingLeft=4;spacingRight=4;overflow=hidden;rotatable=0;points=[[0,0.5],[1,0.5]];portConstraint=eastwest;whiteSpace=wrap;html=1;" vertex="1" parent="i9KKXfh8mhZqTk7yHNFx-0">
          <mxGeometry y="104" width="660" height="26" as="geometry" />
        </mxCell>
        <mxCell id="i9KKXfh8mhZqTk7yHNFx-4" value="- confirmedReservations : ConfirmedReservationStack" style="text;strokeColor=#d79b00;fillColor=#ffe6cc;align=left;verticalAlign=top;spacingLeft=4;spacingRight=4;overflow=hidden;rotatable=0;points=[[0,0.5],[1,0.5]];portConstraint=eastwest;whiteSpace=wrap;html=1;" parent="i9KKXfh8mhZqTk7yHNFx-0" vertex="1">
          <mxGeometry y="130" width="660" height="26" as="geometry" />
        </mxCell>
        <mxCell id="i9KKXfh8mhZqTk7yHNFx-2" value="" style="line;strokeWidth=1;fillColor=#ffe6cc;align=left;verticalAlign=middle;spacingTop=-1;spacingLeft=3;spacingRight=3;rotatable=0;labelPosition=right;points=[];portConstraint=eastwest;strokeColor=#d79b00;" parent="i9KKXfh8mhZqTk7yHNFx-0" vertex="1">
          <mxGeometry y="156" width="660" height="8" as="geometry" />
        </mxCell>
        <mxCell id="i9KKXfh8mhZqTk7yHNFx-8" value="+ Showtime (startTime : LocalTime, endTime : LocalTime, cinemaHall : CinemaHall, movie : Movie)&lt;div&gt;&lt;br/&gt;&lt;/div&gt;" style="text;strokeColor=#d79b00;fillColor=#ffe6cc;align=left;verticalAlign=top;spacingLeft=4;spacingRight=4;overflow=hidden;rotatable=0;points=[[0,0.5],[1,0.5]];portConstraint=eastwest;whiteSpace=wrap;html=1;" parent="i9KKXfh8mhZqTk7yHNFx-0" vertex="1">
          <mxGeometry y="164" width="660" height="22" as="geometry" />
        </mxCell>
        <mxCell id="i9KKXfh8mhZqTk7yHNFx-9" value="+ getStartTime () : LocalTime" style="text;strokeColor=#d79b00;fillColor=#ffe6cc;align=left;verticalAlign=top;spacingLeft=4;spacingRight=4;overflow=hidden;rotatable=0;points=[[0,0.5],[1,0.5]];portConstraint=eastwest;whiteSpace=wrap;html=1;" parent="i9KKXfh8mhZqTk7yHNFx-0" vertex="1">
          <mxGeometry y="186" width="660" height="30" as="geometry" />
        </mxCell>
        <mxCell id="i9KKXfh8mhZqTk7yHNFx-10" value="+ setStartTime (startTime : LocalTime) : void" style="text;strokeColor=#d79b00;fillColor=#ffe6cc;align=left;verticalAlign=top;spacingLeft=4;spacingRight=4;overflow=hidden;rotatable=0;points=[[0,0.5],[1,0.5]];portConstraint=eastwest;whiteSpace=wrap;html=1;" parent="i9KKXfh8mhZqTk7yHNFx-0" vertex="1">
          <mxGeometry y="216" width="660" height="30" as="geometry" />
        </mxCell>
        <mxCell id="i9KKXfh8mhZqTk7yHNFx-11" value="+ getEndTime () : LocalTime&lt;br style=&quot;border-color: var(--border-color);&quot;&gt;" style="text;strokeColor=#d79b00;fillColor=#ffe6cc;align=left;verticalAlign=top;spacingLeft=4;spacingRight=4;overflow=hidden;rotatable=0;points=[[0,0.5],[1,0.5]];portConstraint=eastwest;whiteSpace=wrap;html=1;" parent="i9KKXfh8mhZqTk7yHNFx-0" vertex="1">
          <mxGeometry y="246" width="660" height="30" as="geometry" />
        </mxCell>
        <mxCell id="i9KKXfh8mhZqTk7yHNFx-12" value="+ setEndTime (endTime : LocalTime): void" style="text;strokeColor=#d79b00;fillColor=#ffe6cc;align=left;verticalAlign=top;spacingLeft=4;spacingRight=4;overflow=hidden;rotatable=0;points=[[0,0.5],[1,0.5]];portConstraint=eastwest;whiteSpace=wrap;html=1;" parent="i9KKXfh8mhZqTk7yHNFx-0" vertex="1">
          <mxGeometry y="276" width="660" height="30" as="geometry" />
        </mxCell>
        <mxCell id="i9KKXfh8mhZqTk7yHNFx-13" value="+ getCinemaHall () : CinemaHall" style="text;strokeColor=#d79b00;fillColor=#ffe6cc;align=left;verticalAlign=top;spacingLeft=4;spacingRight=4;overflow=hidden;rotatable=0;points=[[0,0.5],[1,0.5]];portConstraint=eastwest;whiteSpace=wrap;html=1;" parent="i9KKXfh8mhZqTk7yHNFx-0" vertex="1">
          <mxGeometry y="306" width="660" height="30" as="geometry" />
        </mxCell>
        <mxCell id="i9KKXfh8mhZqTk7yHNFx-14" value="+ setCinemaHall(cinemaHall : CinemaHall) : void" style="text;strokeColor=#d79b00;fillColor=#ffe6cc;align=left;verticalAlign=top;spacingLeft=4;spacingRight=4;overflow=hidden;rotatable=0;points=[[0,0.5],[1,0.5]];portConstraint=eastwest;whiteSpace=wrap;html=1;" parent="i9KKXfh8mhZqTk7yHNFx-0" vertex="1">
          <mxGeometry y="336" width="660" height="30" as="geometry" />
        </mxCell>
        <mxCell id="i9KKXfh8mhZqTk7yHNFx-15" value="+ getMovie () : Movie" style="text;strokeColor=#d79b00;fillColor=#ffe6cc;align=left;verticalAlign=top;spacingLeft=4;spacingRight=4;overflow=hidden;rotatable=0;points=[[0,0.5],[1,0.5]];portConstraint=eastwest;whiteSpace=wrap;html=1;" parent="i9KKXfh8mhZqTk7yHNFx-0" vertex="1">
          <mxGeometry y="366" width="660" height="30" as="geometry" />
        </mxCell>
        <mxCell id="i9KKXfh8mhZqTk7yHNFx-3" value="+ setMovie (movie : Movie) : void" style="text;strokeColor=#d79b00;fillColor=#ffe6cc;align=left;verticalAlign=top;spacingLeft=4;spacingRight=4;overflow=hidden;rotatable=0;points=[[0,0.5],[1,0.5]];portConstraint=eastwest;whiteSpace=wrap;html=1;" parent="i9KKXfh8mhZqTk7yHNFx-0" vertex="1">
          <mxGeometry y="396" width="660" height="26" as="geometry" />
        </mxCell>
        <mxCell id="oDIdgIaz9Kc2sAzzD3I7-8" value="+ displayShowTime(): void" style="text;strokeColor=#d79b00;fillColor=#ffe6cc;align=left;verticalAlign=top;spacingLeft=4;spacingRight=4;overflow=hidden;rotatable=0;points=[[0,0.5],[1,0.5]];portConstraint=eastwest;whiteSpace=wrap;html=1;" parent="i9KKXfh8mhZqTk7yHNFx-0" vertex="1">
          <mxGeometry y="422" width="660" height="26" as="geometry" />
        </mxCell>
        <mxCell id="TVeIh7PDx6N5P01ksh86-15" value="+ randomizeSeats(confirmedReservationStack : ConfirmedReservationStack) : void" style="text;strokeColor=#d79b00;fillColor=#ffe6cc;align=left;verticalAlign=top;spacingLeft=4;spacingRight=4;overflow=hidden;rotatable=0;points=[[0,0.5],[1,0.5]];portConstraint=eastwest;whiteSpace=wrap;html=1;" vertex="1" parent="i9KKXfh8mhZqTk7yHNFx-0">
          <mxGeometry y="448" width="660" height="26" as="geometry" />
        </mxCell>
        <mxCell id="ARl5YusZndDiUU1l1j_P-30" value="&lt;font style=&quot;font-size: 14px;&quot;&gt;Movie&lt;/font&gt;" style="swimlane;fontStyle=1;align=center;verticalAlign=top;childLayout=stackLayout;horizontal=1;startSize=26;horizontalStack=0;resizeParent=1;resizeParentMax=0;resizeLast=0;collapsible=1;marginBottom=0;whiteSpace=wrap;html=1;fillColor=#ffe6cc;strokeColor=#d79b00;" parent="WIyWlLk6GJQsqaUBKTNV-1" vertex="1">
          <mxGeometry x="-75" y="1000" width="570" height="416" as="geometry" />
        </mxCell>
        <mxCell id="oDIdgIaz9Kc2sAzzD3I7-1" value="- title : String" style="text;strokeColor=#d79b00;fillColor=#ffe6cc;align=left;verticalAlign=top;spacingLeft=4;spacingRight=4;overflow=hidden;rotatable=0;points=[[0,0.5],[1,0.5]];portConstraint=eastwest;whiteSpace=wrap;html=1;" parent="ARl5YusZndDiUU1l1j_P-30" vertex="1">
          <mxGeometry y="26" width="570" height="26" as="geometry" />
        </mxCell>
        <mxCell id="ARl5YusZndDiUU1l1j_P-33" value="- genre : String" style="text;strokeColor=#d79b00;fillColor=#ffe6cc;align=left;verticalAlign=top;spacingLeft=4;spacingRight=4;overflow=hidden;rotatable=0;points=[[0,0.5],[1,0.5]];portConstraint=eastwest;whiteSpace=wrap;html=1;" parent="ARl5YusZndDiUU1l1j_P-30" vertex="1">
          <mxGeometry y="52" width="570" height="26" as="geometry" />
        </mxCell>
        <mxCell id="ARl5YusZndDiUU1l1j_P-32" value="- director : String" style="text;strokeColor=#d79b00;fillColor=#ffe6cc;align=left;verticalAlign=top;spacingLeft=4;spacingRight=4;overflow=hidden;rotatable=0;points=[[0,0.5],[1,0.5]];portConstraint=eastwest;whiteSpace=wrap;html=1;" parent="ARl5YusZndDiUU1l1j_P-30" vertex="1">
          <mxGeometry y="78" width="570" height="26" as="geometry" />
        </mxCell>
        <mxCell id="ARl5YusZndDiUU1l1j_P-31" value="- runtime : int" style="text;strokeColor=#d79b00;fillColor=#ffe6cc;align=left;verticalAlign=top;spacingLeft=4;spacingRight=4;overflow=hidden;rotatable=0;points=[[0,0.5],[1,0.5]];portConstraint=eastwest;whiteSpace=wrap;html=1;" parent="ARl5YusZndDiUU1l1j_P-30" vertex="1">
          <mxGeometry y="104" width="570" height="26" as="geometry" />
        </mxCell>
        <mxCell id="ARl5YusZndDiUU1l1j_P-35" value="" style="line;strokeWidth=1;fillColor=#ffe6cc;align=left;verticalAlign=middle;spacingTop=-1;spacingLeft=3;spacingRight=3;rotatable=0;labelPosition=right;points=[];portConstraint=eastwest;strokeColor=#d79b00;" parent="ARl5YusZndDiUU1l1j_P-30" vertex="1">
          <mxGeometry y="130" width="570" height="8" as="geometry" />
        </mxCell>
        <mxCell id="ARl5YusZndDiUU1l1j_P-44" value="+ Movie (title: String, genre : String, director : String, runtime : int)" style="text;strokeColor=#d79b00;fillColor=#ffe6cc;align=left;verticalAlign=top;spacingLeft=4;spacingRight=4;overflow=hidden;rotatable=0;points=[[0,0.5],[1,0.5]];portConstraint=eastwest;whiteSpace=wrap;html=1;" parent="ARl5YusZndDiUU1l1j_P-30" vertex="1">
          <mxGeometry y="138" width="570" height="30" as="geometry" />
        </mxCell>
        <mxCell id="ARl5YusZndDiUU1l1j_P-43" value="+ getTitle() : String" style="text;strokeColor=#d79b00;fillColor=#ffe6cc;align=left;verticalAlign=top;spacingLeft=4;spacingRight=4;overflow=hidden;rotatable=0;points=[[0,0.5],[1,0.5]];portConstraint=eastwest;whiteSpace=wrap;html=1;" parent="ARl5YusZndDiUU1l1j_P-30" vertex="1">
          <mxGeometry y="168" width="570" height="30" as="geometry" />
        </mxCell>
        <mxCell id="ARl5YusZndDiUU1l1j_P-42" value="+ setTitle (title : String) : void " style="text;strokeColor=#d79b00;fillColor=#ffe6cc;align=left;verticalAlign=top;spacingLeft=4;spacingRight=4;overflow=hidden;rotatable=0;points=[[0,0.5],[1,0.5]];portConstraint=eastwest;whiteSpace=wrap;html=1;" parent="ARl5YusZndDiUU1l1j_P-30" vertex="1">
          <mxGeometry y="198" width="570" height="30" as="geometry" />
        </mxCell>
        <mxCell id="ARl5YusZndDiUU1l1j_P-41" value="+ getGenre () : String" style="text;strokeColor=#d79b00;fillColor=#ffe6cc;align=left;verticalAlign=top;spacingLeft=4;spacingRight=4;overflow=hidden;rotatable=0;points=[[0,0.5],[1,0.5]];portConstraint=eastwest;whiteSpace=wrap;html=1;" parent="ARl5YusZndDiUU1l1j_P-30" vertex="1">
          <mxGeometry y="228" width="570" height="30" as="geometry" />
        </mxCell>
        <mxCell id="ARl5YusZndDiUU1l1j_P-40" value="+ setGenre (genre : String) : void" style="text;strokeColor=#d79b00;fillColor=#ffe6cc;align=left;verticalAlign=top;spacingLeft=4;spacingRight=4;overflow=hidden;rotatable=0;points=[[0,0.5],[1,0.5]];portConstraint=eastwest;whiteSpace=wrap;html=1;" parent="ARl5YusZndDiUU1l1j_P-30" vertex="1">
          <mxGeometry y="258" width="570" height="30" as="geometry" />
        </mxCell>
        <mxCell id="ARl5YusZndDiUU1l1j_P-39" value="+ getDirector () : String" style="text;strokeColor=#d79b00;fillColor=#ffe6cc;align=left;verticalAlign=top;spacingLeft=4;spacingRight=4;overflow=hidden;rotatable=0;points=[[0,0.5],[1,0.5]];portConstraint=eastwest;whiteSpace=wrap;html=1;" parent="ARl5YusZndDiUU1l1j_P-30" vertex="1">
          <mxGeometry y="288" width="570" height="30" as="geometry" />
        </mxCell>
        <mxCell id="ARl5YusZndDiUU1l1j_P-38" value="+&amp;nbsp;setDirector (director : String) : void" style="text;strokeColor=#d79b00;fillColor=#ffe6cc;align=left;verticalAlign=top;spacingLeft=4;spacingRight=4;overflow=hidden;rotatable=0;points=[[0,0.5],[1,0.5]];portConstraint=eastwest;whiteSpace=wrap;html=1;" parent="ARl5YusZndDiUU1l1j_P-30" vertex="1">
          <mxGeometry y="318" width="570" height="30" as="geometry" />
        </mxCell>
        <mxCell id="ARl5YusZndDiUU1l1j_P-37" value="+ getRuntime () : int&lt;br/&gt;&lt;div&gt;&lt;br/&gt;&lt;/div&gt;" style="text;strokeColor=#d79b00;fillColor=#ffe6cc;align=left;verticalAlign=top;spacingLeft=4;spacingRight=4;overflow=hidden;rotatable=0;points=[[0,0.5],[1,0.5]];portConstraint=eastwest;whiteSpace=wrap;html=1;" parent="ARl5YusZndDiUU1l1j_P-30" vertex="1">
          <mxGeometry y="348" width="570" height="24" as="geometry" />
        </mxCell>
        <mxCell id="ARl5YusZndDiUU1l1j_P-36" value="+ setRuntime (runtime : int) : void" style="text;strokeColor=#d79b00;fillColor=#ffe6cc;align=left;verticalAlign=top;spacingLeft=4;spacingRight=4;overflow=hidden;rotatable=0;points=[[0,0.5],[1,0.5]];portConstraint=eastwest;whiteSpace=wrap;html=1;" parent="ARl5YusZndDiUU1l1j_P-30" vertex="1">
          <mxGeometry y="372" width="570" height="22" as="geometry" />
        </mxCell>
        <mxCell id="oDIdgIaz9Kc2sAzzD3I7-7" value="+ display() : void" style="text;strokeColor=#d79b00;fillColor=#ffe6cc;align=left;verticalAlign=top;spacingLeft=4;spacingRight=4;overflow=hidden;rotatable=0;points=[[0,0.5],[1,0.5]];portConstraint=eastwest;whiteSpace=wrap;html=1;" parent="ARl5YusZndDiUU1l1j_P-30" vertex="1">
          <mxGeometry y="394" width="570" height="22" as="geometry" />
        </mxCell>
        <mxCell id="-6uDEgYbslroLGIMf0rR-0" value="&lt;font style=&quot;font-size: 14px;&quot;&gt;Reservation&lt;/font&gt;" style="swimlane;fontStyle=1;align=center;verticalAlign=top;childLayout=stackLayout;horizontal=1;startSize=26;horizontalStack=0;resizeParent=1;resizeParentMax=0;resizeLast=0;collapsible=1;marginBottom=0;whiteSpace=wrap;html=1;fillColor=#ffe6cc;strokeColor=#d79b00;" parent="WIyWlLk6GJQsqaUBKTNV-1" vertex="1">
          <mxGeometry x="864" width="570" height="540" as="geometry" />
        </mxCell>
        <mxCell id="-6uDEgYbslroLGIMf0rR-4" value="- id : int" style="text;strokeColor=#d79b00;fillColor=#ffe6cc;align=left;verticalAlign=top;spacingLeft=4;spacingRight=4;overflow=hidden;rotatable=0;points=[[0,0.5],[1,0.5]];portConstraint=eastwest;whiteSpace=wrap;html=1;" parent="-6uDEgYbslroLGIMf0rR-0" vertex="1">
          <mxGeometry y="26" width="570" height="26" as="geometry" />
        </mxCell>
        <mxCell id="TVeIh7PDx6N5P01ksh86-19" value="- ticket : Ticket" style="text;strokeColor=#d79b00;fillColor=#ffe6cc;align=left;verticalAlign=top;spacingLeft=4;spacingRight=4;overflow=hidden;rotatable=0;points=[[0,0.5],[1,0.5]];portConstraint=eastwest;whiteSpace=wrap;html=1;" vertex="1" parent="-6uDEgYbslroLGIMf0rR-0">
          <mxGeometry y="52" width="570" height="26" as="geometry" />
        </mxCell>
        <mxCell id="TVeIh7PDx6N5P01ksh86-18" value="- reservationStatus : ReservationStatus" style="text;strokeColor=#d79b00;fillColor=#ffe6cc;align=left;verticalAlign=top;spacingLeft=4;spacingRight=4;overflow=hidden;rotatable=0;points=[[0,0.5],[1,0.5]];portConstraint=eastwest;whiteSpace=wrap;html=1;" vertex="1" parent="-6uDEgYbslroLGIMf0rR-0">
          <mxGeometry y="78" width="570" height="26" as="geometry" />
        </mxCell>
        <mxCell id="-6uDEgYbslroLGIMf0rR-5" value="" style="line;strokeWidth=1;fillColor=#ffe6cc;align=left;verticalAlign=middle;spacingTop=-1;spacingLeft=3;spacingRight=3;rotatable=0;labelPosition=right;points=[];portConstraint=eastwest;strokeColor=#d79b00;" parent="-6uDEgYbslroLGIMf0rR-0" vertex="1">
          <mxGeometry y="104" width="570" height="8" as="geometry" />
        </mxCell>
        <mxCell id="-6uDEgYbslroLGIMf0rR-6" value="+ Reservation(ticket : Ticket, reservationStatus : ReservationStatus)" style="text;strokeColor=#d79b00;fillColor=#ffe6cc;align=left;verticalAlign=top;spacingLeft=4;spacingRight=4;overflow=hidden;rotatable=0;points=[[0,0.5],[1,0.5]];portConstraint=eastwest;whiteSpace=wrap;html=1;" parent="-6uDEgYbslroLGIMf0rR-0" vertex="1">
          <mxGeometry y="112" width="570" height="30" as="geometry" />
        </mxCell>
        <mxCell id="-6uDEgYbslroLGIMf0rR-7" value="+ getCounter() : int&lt;br&gt;&lt;div&gt;&lt;br&gt;&lt;/div&gt;" style="text;strokeColor=#d79b00;fillColor=#ffe6cc;align=left;verticalAlign=top;spacingLeft=4;spacingRight=4;overflow=hidden;rotatable=0;points=[[0,0.5],[1,0.5]];portConstraint=eastwest;whiteSpace=wrap;html=1;" parent="-6uDEgYbslroLGIMf0rR-0" vertex="1">
          <mxGeometry y="142" width="570" height="36" as="geometry" />
        </mxCell>
        <mxCell id="TVeIh7PDx6N5P01ksh86-20" value="&lt;div&gt;+ setCounter(counter: int) : void&lt;/div&gt;" style="text;strokeColor=#d79b00;fillColor=#ffe6cc;align=left;verticalAlign=top;spacingLeft=4;spacingRight=4;overflow=hidden;rotatable=0;points=[[0,0.5],[1,0.5]];portConstraint=eastwest;whiteSpace=wrap;html=1;" vertex="1" parent="-6uDEgYbslroLGIMf0rR-0">
          <mxGeometry y="178" width="570" height="36" as="geometry" />
        </mxCell>
        <mxCell id="-6uDEgYbslroLGIMf0rR-8" value="+ getId() : int" style="text;strokeColor=#d79b00;fillColor=#ffe6cc;align=left;verticalAlign=top;spacingLeft=4;spacingRight=4;overflow=hidden;rotatable=0;points=[[0,0.5],[1,0.5]];portConstraint=eastwest;whiteSpace=wrap;html=1;" parent="-6uDEgYbslroLGIMf0rR-0" vertex="1">
          <mxGeometry y="214" width="570" height="30" as="geometry" />
        </mxCell>
        <mxCell id="TVeIh7PDx6N5P01ksh86-21" value="+ setId(id: int) : void" style="text;strokeColor=#d79b00;fillColor=#ffe6cc;align=left;verticalAlign=top;spacingLeft=4;spacingRight=4;overflow=hidden;rotatable=0;points=[[0,0.5],[1,0.5]];portConstraint=eastwest;whiteSpace=wrap;html=1;" vertex="1" parent="-6uDEgYbslroLGIMf0rR-0">
          <mxGeometry y="244" width="570" height="30" as="geometry" />
        </mxCell>
        <mxCell id="TVeIh7PDx6N5P01ksh86-22" value="+ getTicket() : Ticket" style="text;strokeColor=#d79b00;fillColor=#ffe6cc;align=left;verticalAlign=top;spacingLeft=4;spacingRight=4;overflow=hidden;rotatable=0;points=[[0,0.5],[1,0.5]];portConstraint=eastwest;whiteSpace=wrap;html=1;" vertex="1" parent="-6uDEgYbslroLGIMf0rR-0">
          <mxGeometry y="274" width="570" height="30" as="geometry" />
        </mxCell>
        <mxCell id="TVeIh7PDx6N5P01ksh86-23" value="+ setTicket(ticket: Ticket) : void" style="text;strokeColor=#d79b00;fillColor=#ffe6cc;align=left;verticalAlign=top;spacingLeft=4;spacingRight=4;overflow=hidden;rotatable=0;points=[[0,0.5],[1,0.5]];portConstraint=eastwest;whiteSpace=wrap;html=1;" vertex="1" parent="-6uDEgYbslroLGIMf0rR-0">
          <mxGeometry y="304" width="570" height="30" as="geometry" />
        </mxCell>
        <mxCell id="TVeIh7PDx6N5P01ksh86-24" value="+ getReservationStatus() : ReservationStatus" style="text;strokeColor=#d79b00;fillColor=#ffe6cc;align=left;verticalAlign=top;spacingLeft=4;spacingRight=4;overflow=hidden;rotatable=0;points=[[0,0.5],[1,0.5]];portConstraint=eastwest;whiteSpace=wrap;html=1;" vertex="1" parent="-6uDEgYbslroLGIMf0rR-0">
          <mxGeometry y="334" width="570" height="30" as="geometry" />
        </mxCell>
        <mxCell id="TVeIh7PDx6N5P01ksh86-25" value="+ setReservationStatus(reservationStatus: ReservationStatus) : void" style="text;strokeColor=#d79b00;fillColor=#ffe6cc;align=left;verticalAlign=top;spacingLeft=4;spacingRight=4;overflow=hidden;rotatable=0;points=[[0,0.5],[1,0.5]];portConstraint=eastwest;whiteSpace=wrap;html=1;" vertex="1" parent="-6uDEgYbslroLGIMf0rR-0">
          <mxGeometry y="364" width="570" height="30" as="geometry" />
        </mxCell>
        <mxCell id="TVeIh7PDx6N5P01ksh86-26" value="+ display() : void" style="text;strokeColor=#d79b00;fillColor=#ffe6cc;align=left;verticalAlign=top;spacingLeft=4;spacingRight=4;overflow=hidden;rotatable=0;points=[[0,0.5],[1,0.5]];portConstraint=eastwest;whiteSpace=wrap;html=1;" vertex="1" parent="-6uDEgYbslroLGIMf0rR-0">
          <mxGeometry y="394" width="570" height="30" as="geometry" />
        </mxCell>
        <mxCell id="TVeIh7PDx6N5P01ksh86-27" value="+ confirmReservation() : Reservation" style="text;strokeColor=#d79b00;fillColor=#ffe6cc;align=left;verticalAlign=top;spacingLeft=4;spacingRight=4;overflow=hidden;rotatable=0;points=[[0,0.5],[1,0.5]];portConstraint=eastwest;whiteSpace=wrap;html=1;" vertex="1" parent="-6uDEgYbslroLGIMf0rR-0">
          <mxGeometry y="424" width="570" height="30" as="geometry" />
        </mxCell>
        <mxCell id="TVeIh7PDx6N5P01ksh86-28" value="+ cancelReservation() : Reservation" style="text;strokeColor=#d79b00;fillColor=#ffe6cc;align=left;verticalAlign=top;spacingLeft=4;spacingRight=4;overflow=hidden;rotatable=0;points=[[0,0.5],[1,0.5]];portConstraint=eastwest;whiteSpace=wrap;html=1;" vertex="1" parent="-6uDEgYbslroLGIMf0rR-0">
          <mxGeometry y="454" width="570" height="30" as="geometry" />
        </mxCell>
        <mxCell id="TVeIh7PDx6N5P01ksh86-29" value="+ compareTo(o: Object) : int" style="text;strokeColor=#d79b00;fillColor=#ffe6cc;align=left;verticalAlign=top;spacingLeft=4;spacingRight=4;overflow=hidden;rotatable=0;points=[[0,0.5],[1,0.5]];portConstraint=eastwest;whiteSpace=wrap;html=1;" vertex="1" parent="-6uDEgYbslroLGIMf0rR-0">
          <mxGeometry y="484" width="570" height="30" as="geometry" />
        </mxCell>
        <mxCell id="-6uDEgYbslroLGIMf0rR-3" value="- counter : int" style="text;strokeColor=#d79b00;fillColor=#ffe6cc;align=left;verticalAlign=top;spacingLeft=4;spacingRight=4;overflow=hidden;rotatable=0;points=[[0,0.5],[1,0.5]];portConstraint=eastwest;whiteSpace=wrap;html=1;" parent="-6uDEgYbslroLGIMf0rR-0" vertex="1">
          <mxGeometry y="514" width="570" height="26" as="geometry" />
        </mxCell>
        <mxCell id="-6uDEgYbslroLGIMf0rR-22" value="&lt;font style=&quot;font-size: 14px;&quot;&gt;CinemaHall&lt;/font&gt;" style="swimlane;fontStyle=1;align=center;verticalAlign=top;childLayout=stackLayout;horizontal=1;startSize=26;horizontalStack=0;resizeParent=1;resizeParentMax=0;resizeLast=0;collapsible=1;marginBottom=0;whiteSpace=wrap;html=1;fillColor=#ffe6cc;strokeColor=#d79b00;" parent="WIyWlLk6GJQsqaUBKTNV-1" vertex="1">
          <mxGeometry x="-120" y="-312" width="636" height="516" as="geometry" />
        </mxCell>
        <mxCell id="-6uDEgYbslroLGIMf0rR-26" value="- hallCounter: int" style="text;strokeColor=#d79b00;fillColor=#ffe6cc;align=left;verticalAlign=top;spacingLeft=4;spacingRight=4;overflow=hidden;rotatable=0;points=[[0,0.5],[1,0.5]];portConstraint=eastwest;whiteSpace=wrap;html=1;" parent="-6uDEgYbslroLGIMf0rR-22" vertex="1">
          <mxGeometry y="26" width="636" height="26" as="geometry" />
        </mxCell>
        <mxCell id="-6uDEgYbslroLGIMf0rR-25" value="- hallNumber : int" style="text;strokeColor=#d79b00;fillColor=#ffe6cc;align=left;verticalAlign=top;spacingLeft=4;spacingRight=4;overflow=hidden;rotatable=0;points=[[0,0.5],[1,0.5]];portConstraint=eastwest;whiteSpace=wrap;html=1;" parent="-6uDEgYbslroLGIMf0rR-22" vertex="1">
          <mxGeometry y="52" width="636" height="26" as="geometry" />
        </mxCell>
        <mxCell id="-6uDEgYbslroLGIMf0rR-24" value="- seatLayout: SeatStatus[] []" style="text;strokeColor=#d79b00;fillColor=#ffe6cc;align=left;verticalAlign=top;spacingLeft=4;spacingRight=4;overflow=hidden;rotatable=0;points=[[0,0.5],[1,0.5]];portConstraint=eastwest;whiteSpace=wrap;html=1;" parent="-6uDEgYbslroLGIMf0rR-22" vertex="1">
          <mxGeometry y="78" width="636" height="26" as="geometry" />
        </mxCell>
        <mxCell id="TVeIh7PDx6N5P01ksh86-8" value="- capacity : int" style="text;strokeColor=#d79b00;fillColor=#ffe6cc;align=left;verticalAlign=top;spacingLeft=4;spacingRight=4;overflow=hidden;rotatable=0;points=[[0,0.5],[1,0.5]];portConstraint=eastwest;whiteSpace=wrap;html=1;" vertex="1" parent="-6uDEgYbslroLGIMf0rR-22">
          <mxGeometry y="104" width="636" height="26" as="geometry" />
        </mxCell>
        <mxCell id="-6uDEgYbslroLGIMf0rR-23" value="- rows :&amp;nbsp; int" style="text;strokeColor=#d79b00;fillColor=#ffe6cc;align=left;verticalAlign=top;spacingLeft=4;spacingRight=4;overflow=hidden;rotatable=0;points=[[0,0.5],[1,0.5]];portConstraint=eastwest;whiteSpace=wrap;html=1;" parent="-6uDEgYbslroLGIMf0rR-22" vertex="1">
          <mxGeometry y="130" width="636" height="26" as="geometry" />
        </mxCell>
        <mxCell id="-6uDEgYbslroLGIMf0rR-27" value="" style="line;strokeWidth=1;fillColor=#ffe6cc;align=left;verticalAlign=middle;spacingTop=-1;spacingLeft=3;spacingRight=3;rotatable=0;labelPosition=right;points=[];portConstraint=eastwest;strokeColor=#d79b00;" parent="-6uDEgYbslroLGIMf0rR-22" vertex="1">
          <mxGeometry y="156" width="636" height="8" as="geometry" />
        </mxCell>
        <mxCell id="-6uDEgYbslroLGIMf0rR-28" value="+ CinemaHall (capacity : int, rows : int)" style="text;strokeColor=#d79b00;fillColor=#ffe6cc;align=left;verticalAlign=top;spacingLeft=4;spacingRight=4;overflow=hidden;rotatable=0;points=[[0,0.5],[1,0.5]];portConstraint=eastwest;whiteSpace=wrap;html=1;" parent="-6uDEgYbslroLGIMf0rR-22" vertex="1">
          <mxGeometry y="164" width="636" height="28" as="geometry" />
        </mxCell>
        <mxCell id="-6uDEgYbslroLGIMf0rR-29" value="+ getHallNumber () : int&amp;nbsp;" style="text;strokeColor=#d79b00;fillColor=#ffe6cc;align=left;verticalAlign=top;spacingLeft=4;spacingRight=4;overflow=hidden;rotatable=0;points=[[0,0.5],[1,0.5]];portConstraint=eastwest;whiteSpace=wrap;html=1;" parent="-6uDEgYbslroLGIMf0rR-22" vertex="1">
          <mxGeometry y="192" width="636" height="24" as="geometry" />
        </mxCell>
        <mxCell id="-6uDEgYbslroLGIMf0rR-30" value="+ setHallNumber (hallNumber: int): void" style="text;strokeColor=#d79b00;fillColor=#ffe6cc;align=left;verticalAlign=top;spacingLeft=4;spacingRight=4;overflow=hidden;rotatable=0;points=[[0,0.5],[1,0.5]];portConstraint=eastwest;whiteSpace=wrap;html=1;" parent="-6uDEgYbslroLGIMf0rR-22" vertex="1">
          <mxGeometry y="216" width="636" height="30" as="geometry" />
        </mxCell>
        <mxCell id="-6uDEgYbslroLGIMf0rR-31" value="+ getSeatLayout() : SeatStatus [] []" style="text;strokeColor=#d79b00;fillColor=#ffe6cc;align=left;verticalAlign=top;spacingLeft=4;spacingRight=4;overflow=hidden;rotatable=0;points=[[0,0.5],[1,0.5]];portConstraint=eastwest;whiteSpace=wrap;html=1;" parent="-6uDEgYbslroLGIMf0rR-22" vertex="1">
          <mxGeometry y="246" width="636" height="30" as="geometry" />
        </mxCell>
        <mxCell id="-6uDEgYbslroLGIMf0rR-32" value="+ setSeatLavout (seatLayout: SeatStatus [] []): void" style="text;strokeColor=#d79b00;fillColor=#ffe6cc;align=left;verticalAlign=top;spacingLeft=4;spacingRight=4;overflow=hidden;rotatable=0;points=[[0,0.5],[1,0.5]];portConstraint=eastwest;whiteSpace=wrap;html=1;" parent="-6uDEgYbslroLGIMf0rR-22" vertex="1">
          <mxGeometry y="276" width="636" height="30" as="geometry" />
        </mxCell>
        <mxCell id="TVeIh7PDx6N5P01ksh86-9" value="+ setSeat (row : int, col : int, seatStatus : SeatStatus) : void" style="text;strokeColor=#d79b00;fillColor=#ffe6cc;align=left;verticalAlign=top;spacingLeft=4;spacingRight=4;overflow=hidden;rotatable=0;points=[[0,0.5],[1,0.5]];portConstraint=eastwest;whiteSpace=wrap;html=1;" vertex="1" parent="-6uDEgYbslroLGIMf0rR-22">
          <mxGeometry y="306" width="636" height="30" as="geometry" />
        </mxCell>
        <mxCell id="-6uDEgYbslroLGIMf0rR-33" value="+ getSeatStatus(row : int, col : int) : SeatStatus" style="text;strokeColor=#d79b00;fillColor=#ffe6cc;align=left;verticalAlign=top;spacingLeft=4;spacingRight=4;overflow=hidden;rotatable=0;points=[[0,0.5],[1,0.5]];portConstraint=eastwest;whiteSpace=wrap;html=1;" parent="-6uDEgYbslroLGIMf0rR-22" vertex="1">
          <mxGeometry y="336" width="636" height="30" as="geometry" />
        </mxCell>
        <mxCell id="TVeIh7PDx6N5P01ksh86-10" value="+ getCapacity() : int" style="text;strokeColor=#d79b00;fillColor=#ffe6cc;align=left;verticalAlign=top;spacingLeft=4;spacingRight=4;overflow=hidden;rotatable=0;points=[[0,0.5],[1,0.5]];portConstraint=eastwest;whiteSpace=wrap;html=1;" vertex="1" parent="-6uDEgYbslroLGIMf0rR-22">
          <mxGeometry y="366" width="636" height="30" as="geometry" />
        </mxCell>
        <mxCell id="-6uDEgYbslroLGIMf0rR-34" value="+ setCapacity (capacity : int) : void" style="text;strokeColor=#d79b00;fillColor=#ffe6cc;align=left;verticalAlign=top;spacingLeft=4;spacingRight=4;overflow=hidden;rotatable=0;points=[[0,0.5],[1,0.5]];portConstraint=eastwest;whiteSpace=wrap;html=1;" parent="-6uDEgYbslroLGIMf0rR-22" vertex="1">
          <mxGeometry y="396" width="636" height="30" as="geometry" />
        </mxCell>
        <mxCell id="TVeIh7PDx6N5P01ksh86-11" value="+ getRows() : int" style="text;strokeColor=#d79b00;fillColor=#ffe6cc;align=left;verticalAlign=top;spacingLeft=4;spacingRight=4;overflow=hidden;rotatable=0;points=[[0,0.5],[1,0.5]];portConstraint=eastwest;whiteSpace=wrap;html=1;" vertex="1" parent="-6uDEgYbslroLGIMf0rR-22">
          <mxGeometry y="426" width="636" height="30" as="geometry" />
        </mxCell>
        <mxCell id="TVeIh7PDx6N5P01ksh86-12" value="+ displaySeatLayout() : void" style="text;strokeColor=#d79b00;fillColor=#ffe6cc;align=left;verticalAlign=top;spacingLeft=4;spacingRight=4;overflow=hidden;rotatable=0;points=[[0,0.5],[1,0.5]];portConstraint=eastwest;whiteSpace=wrap;html=1;" vertex="1" parent="-6uDEgYbslroLGIMf0rR-22">
          <mxGeometry y="456" width="636" height="30" as="geometry" />
        </mxCell>
        <mxCell id="TVeIh7PDx6N5P01ksh86-13" value="+ randomizeSeatAvailability(confirmedReservationStack : ConfirmedReservationStack, showtime : Showtime) : void" style="text;strokeColor=#d79b00;fillColor=#ffe6cc;align=left;verticalAlign=top;spacingLeft=4;spacingRight=4;overflow=hidden;rotatable=0;points=[[0,0.5],[1,0.5]];portConstraint=eastwest;whiteSpace=wrap;html=1;" vertex="1" parent="-6uDEgYbslroLGIMf0rR-22">
          <mxGeometry y="486" width="636" height="30" as="geometry" />
        </mxCell>
        <mxCell id="-6uDEgYbslroLGIMf0rR-37" value="&lt;font style=&quot;font-size: 14px;&quot;&gt;User&lt;/font&gt;" style="swimlane;fontStyle=1;align=center;verticalAlign=top;childLayout=stackLayout;horizontal=1;startSize=26;horizontalStack=0;resizeParent=1;resizeParentMax=0;resizeLast=0;collapsible=1;marginBottom=0;whiteSpace=wrap;html=1;fillColor=#ffe6cc;strokeColor=#d79b00;" parent="WIyWlLk6GJQsqaUBKTNV-1" vertex="1">
          <mxGeometry x="576" y="1620" width="570" height="386" as="geometry" />
        </mxCell>
        <mxCell id="-6uDEgYbslroLGIMf0rR-40" value="- name: String" style="text;strokeColor=#d79b00;fillColor=#ffe6cc;align=left;verticalAlign=top;spacingLeft=4;spacingRight=4;overflow=hidden;rotatable=0;points=[[0,0.5],[1,0.5]];portConstraint=eastwest;whiteSpace=wrap;html=1;" parent="-6uDEgYbslroLGIMf0rR-37" vertex="1">
          <mxGeometry y="26" width="570" height="26" as="geometry" />
        </mxCell>
        <mxCell id="-6uDEgYbslroLGIMf0rR-39" value="- age: int" style="text;strokeColor=#d79b00;fillColor=#ffe6cc;align=left;verticalAlign=top;spacingLeft=4;spacingRight=4;overflow=hidden;rotatable=0;points=[[0,0.5],[1,0.5]];portConstraint=eastwest;whiteSpace=wrap;html=1;" parent="-6uDEgYbslroLGIMf0rR-37" vertex="1">
          <mxGeometry y="52" width="570" height="26" as="geometry" />
        </mxCell>
        <mxCell id="-6uDEgYbslroLGIMf0rR-38" value="- email: String" style="text;strokeColor=#d79b00;fillColor=#ffe6cc;align=left;verticalAlign=top;spacingLeft=4;spacingRight=4;overflow=hidden;rotatable=0;points=[[0,0.5],[1,0.5]];portConstraint=eastwest;whiteSpace=wrap;html=1;" parent="-6uDEgYbslroLGIMf0rR-37" vertex="1">
          <mxGeometry y="78" width="570" height="26" as="geometry" />
        </mxCell>
        <mxCell id="TVeIh7PDx6N5P01ksh86-155" value="- userList: LIst&amp;lt;User&amp;gt;" style="text;strokeColor=#d79b00;fillColor=#ffe6cc;align=left;verticalAlign=top;spacingLeft=4;spacingRight=4;overflow=hidden;rotatable=0;points=[[0,0.5],[1,0.5]];portConstraint=eastwest;whiteSpace=wrap;html=1;" vertex="1" parent="-6uDEgYbslroLGIMf0rR-37">
          <mxGeometry y="104" width="570" height="26" as="geometry" />
        </mxCell>
        <mxCell id="-6uDEgYbslroLGIMf0rR-42" value="" style="line;strokeWidth=1;fillColor=#ffe6cc;align=left;verticalAlign=middle;spacingTop=-1;spacingLeft=3;spacingRight=3;rotatable=0;labelPosition=right;points=[];portConstraint=eastwest;strokeColor=#d79b00;" parent="-6uDEgYbslroLGIMf0rR-37" vertex="1">
          <mxGeometry y="130" width="570" height="8" as="geometry" />
        </mxCell>
        <mxCell id="-6uDEgYbslroLGIMf0rR-49" value="+ User (name : String, age: int, email : String)" style="text;strokeColor=#d79b00;fillColor=#ffe6cc;align=left;verticalAlign=top;spacingLeft=4;spacingRight=4;overflow=hidden;rotatable=0;points=[[0,0.5],[1,0.5]];portConstraint=eastwest;whiteSpace=wrap;html=1;" parent="-6uDEgYbslroLGIMf0rR-37" vertex="1">
          <mxGeometry y="138" width="570" height="30" as="geometry" />
        </mxCell>
        <mxCell id="-6uDEgYbslroLGIMf0rR-48" value="+ getName () : String" style="text;strokeColor=#d79b00;fillColor=#ffe6cc;align=left;verticalAlign=top;spacingLeft=4;spacingRight=4;overflow=hidden;rotatable=0;points=[[0,0.5],[1,0.5]];portConstraint=eastwest;whiteSpace=wrap;html=1;" parent="-6uDEgYbslroLGIMf0rR-37" vertex="1">
          <mxGeometry y="168" width="570" height="30" as="geometry" />
        </mxCell>
        <mxCell id="-6uDEgYbslroLGIMf0rR-47" value="+ setName (name: String) : void " style="text;strokeColor=#d79b00;fillColor=#ffe6cc;align=left;verticalAlign=top;spacingLeft=4;spacingRight=4;overflow=hidden;rotatable=0;points=[[0,0.5],[1,0.5]];portConstraint=eastwest;whiteSpace=wrap;html=1;" parent="-6uDEgYbslroLGIMf0rR-37" vertex="1">
          <mxGeometry y="198" width="570" height="30" as="geometry" />
        </mxCell>
        <mxCell id="-6uDEgYbslroLGIMf0rR-46" value="+ getAge () : int " style="text;strokeColor=#d79b00;fillColor=#ffe6cc;align=left;verticalAlign=top;spacingLeft=4;spacingRight=4;overflow=hidden;rotatable=0;points=[[0,0.5],[1,0.5]];portConstraint=eastwest;whiteSpace=wrap;html=1;" parent="-6uDEgYbslroLGIMf0rR-37" vertex="1">
          <mxGeometry y="228" width="570" height="30" as="geometry" />
        </mxCell>
        <mxCell id="-6uDEgYbslroLGIMf0rR-45" value="+ setAge (age: int) : void " style="text;strokeColor=#d79b00;fillColor=#ffe6cc;align=left;verticalAlign=top;spacingLeft=4;spacingRight=4;overflow=hidden;rotatable=0;points=[[0,0.5],[1,0.5]];portConstraint=eastwest;whiteSpace=wrap;html=1;" parent="-6uDEgYbslroLGIMf0rR-37" vertex="1">
          <mxGeometry y="258" width="570" height="30" as="geometry" />
        </mxCell>
        <mxCell id="-6uDEgYbslroLGIMf0rR-44" value="+ getEmail () : String " style="text;strokeColor=#d79b00;fillColor=#ffe6cc;align=left;verticalAlign=top;spacingLeft=4;spacingRight=4;overflow=hidden;rotatable=0;points=[[0,0.5],[1,0.5]];portConstraint=eastwest;whiteSpace=wrap;html=1;" parent="-6uDEgYbslroLGIMf0rR-37" vertex="1">
          <mxGeometry y="288" width="570" height="32" as="geometry" />
        </mxCell>
        <mxCell id="-6uDEgYbslroLGIMf0rR-43" value="+ setEmail (email: String) : void" style="text;strokeColor=#d79b00;fillColor=#ffe6cc;align=left;verticalAlign=top;spacingLeft=4;spacingRight=4;overflow=hidden;rotatable=0;points=[[0,0.5],[1,0.5]];portConstraint=eastwest;whiteSpace=wrap;html=1;" parent="-6uDEgYbslroLGIMf0rR-37" vertex="1">
          <mxGeometry y="320" width="570" height="22" as="geometry" />
        </mxCell>
        <mxCell id="TVeIh7PDx6N5P01ksh86-156" value="+ verifyOrCreateUser(): User" style="text;strokeColor=#d79b00;fillColor=#ffe6cc;align=left;verticalAlign=top;spacingLeft=4;spacingRight=4;overflow=hidden;rotatable=0;points=[[0,0.5],[1,0.5]];portConstraint=eastwest;whiteSpace=wrap;html=1;" vertex="1" parent="-6uDEgYbslroLGIMf0rR-37">
          <mxGeometry y="342" width="570" height="22" as="geometry" />
        </mxCell>
        <mxCell id="TVeIh7PDx6N5P01ksh86-157" value="+ displayUserInfo(): void" style="text;strokeColor=#d79b00;fillColor=#ffe6cc;align=left;verticalAlign=top;spacingLeft=4;spacingRight=4;overflow=hidden;rotatable=0;points=[[0,0.5],[1,0.5]];portConstraint=eastwest;whiteSpace=wrap;html=1;" vertex="1" parent="-6uDEgYbslroLGIMf0rR-37">
          <mxGeometry y="364" width="570" height="22" as="geometry" />
        </mxCell>
        <mxCell id="-6uDEgYbslroLGIMf0rR-52" value="" style="endArrow=diamondThin;endFill=1;endSize=24;html=1;rounded=0;entryX=0.482;entryY=0.002;entryDx=0;entryDy=0;fillColor=#ffe6cc;strokeColor=#D79B00;entryPerimeter=0;fontSize=12;" parent="WIyWlLk6GJQsqaUBKTNV-1" target="i9KKXfh8mhZqTk7yHNFx-0" edge="1">
          <mxGeometry width="160" relative="1" as="geometry">
            <mxPoint x="198" y="204" as="sourcePoint" />
            <mxPoint x="492" y="1380" as="targetPoint" />
          </mxGeometry>
        </mxCell>
        <mxCell id="-6uDEgYbslroLGIMf0rR-55" value="" style="endArrow=diamondThin;endFill=1;endSize=24;html=1;rounded=0;fillColor=#ffe6cc;strokeColor=#d79b00;entryX=-0.008;entryY=0.778;entryDx=0;entryDy=0;entryPerimeter=0;" parent="WIyWlLk6GJQsqaUBKTNV-1" target="ARl5YusZndDiUU1l1j_P-21" edge="1">
          <mxGeometry width="160" relative="1" as="geometry">
            <mxPoint x="504" y="1224" as="sourcePoint" />
            <mxPoint x="612" y="1092" as="targetPoint" />
            <Array as="points" />
          </mxGeometry>
        </mxCell>
        <mxCell id="l1CnS8K0yS2sGFDzK0tB-23" value="&lt;font style=&quot;font-size: 14px;&quot;&gt;CinemaHallMap&lt;/font&gt;" style="swimlane;fontStyle=1;align=center;verticalAlign=top;childLayout=stackLayout;horizontal=1;startSize=26;horizontalStack=0;resizeParent=1;resizeParentMax=0;resizeLast=0;collapsible=1;marginBottom=0;whiteSpace=wrap;html=1;fillColor=#d5e8d4;strokeColor=#82b366;" parent="WIyWlLk6GJQsqaUBKTNV-1" vertex="1">
          <mxGeometry x="-181" y="1848" width="372" height="208" as="geometry" />
        </mxCell>
        <mxCell id="l1CnS8K0yS2sGFDzK0tB-24" value="- cinemaHalls : HashMap&amp;lt;Integer, CinemaHall&amp;gt;&lt;br&gt;&lt;div style=&quot;box-sizing: inherit; -webkit-tap-highlight-color: rgba(0, 0, 0, 0); pointer-events: all; position: absolute; inset-inline-end: 0px; display: flex; align-items: center; line-height: 1; padding: inherit; height: var(--messages-time-text-size); visibility: visible; color: var(--message-time-color); bottom: 4px; font-family: Roboto, -apple-system, &amp;quot;apple color emoji&amp;quot;, BlinkMacSystemFont, &amp;quot;Segoe UI&amp;quot;, Roboto, Oxygen-Sans, Ubuntu, Cantarell, &amp;quot;Helvetica Neue&amp;quot;, sans-serif; background-color: rgb(223, 255, 223);&quot; title=&quot;24 March 2024, 22:54:58&quot; class=&quot;time-inner&quot;&gt;&lt;/div&gt;&lt;span style=&quot;box-sizing: inherit; font-variant-numeric: normal; font-variant-east-asian: normal; font-variant-alternates: normal; font-variant-position: normal; line-height: var(--messages-time-text-size); -webkit-font-smoothing: antialiased; pointer-events: none; order: 5; font-size: calc(var(--messages-text-size) + 3px); color: var(--message-status-color); background-color: rgb(223, 255, 223); user-select: text !important; font-family: tgico !important;&quot; class=&quot;tgico time-sending-status&quot;&gt;&lt;/span&gt;&lt;span style=&quot;box-sizing: inherit; user-select: none; visibility: hidden; font-size: var(--messages-time-text-size); height: var(--messages-time-text-size); line-height: 1; vertical-align: middle; pointer-events: none; display: inline-flex; z-index: 1; cursor: pointer; direction: ltr; float: right; padding-inline-end: 6px; margin-inline-start: -3px;&quot; class=&quot;time&quot;&gt;&lt;/span&gt;" style="text;strokeColor=#82b366;fillColor=#d5e8d4;align=left;verticalAlign=top;spacingLeft=4;spacingRight=4;overflow=hidden;rotatable=0;points=[[0,0.5],[1,0.5]];portConstraint=eastwest;whiteSpace=wrap;html=1;" parent="l1CnS8K0yS2sGFDzK0tB-23" vertex="1">
          <mxGeometry y="26" width="372" height="34" as="geometry" />
        </mxCell>
        <mxCell id="l1CnS8K0yS2sGFDzK0tB-25" value="" style="line;strokeWidth=1;fillColor=#d5e8d4;align=left;verticalAlign=middle;spacingTop=-1;spacingLeft=3;spacingRight=3;rotatable=0;labelPosition=right;points=[];portConstraint=eastwest;strokeColor=#82b366;" parent="l1CnS8K0yS2sGFDzK0tB-23" vertex="1">
          <mxGeometry y="60" width="372" height="8" as="geometry" />
        </mxCell>
        <mxCell id="l1CnS8K0yS2sGFDzK0tB-28" value="+ CinemaHallMap()&lt;div style=&quot;box-sizing: inherit; -webkit-tap-highlight-color: rgba(0, 0, 0, 0); pointer-events: all; position: absolute; inset-inline-end: 0px; display: flex; align-items: center; line-height: 1; padding: inherit; height: var(--messages-time-text-size); visibility: visible; color: var(--message-time-color); bottom: 4px; font-family: Roboto, -apple-system, &amp;quot;apple color emoji&amp;quot;, BlinkMacSystemFont, &amp;quot;Segoe UI&amp;quot;, Roboto, Oxygen-Sans, Ubuntu, Cantarell, &amp;quot;Helvetica Neue&amp;quot;, sans-serif; background-color: rgb(223, 255, 223);&quot; title=&quot;24 March 2024, 23:08:45&quot; class=&quot;time-inner&quot;&gt;&lt;/div&gt;&lt;span style=&quot;box-sizing: inherit; font-variant-numeric: normal; font-variant-east-asian: normal; font-variant-alternates: normal; font-variant-position: normal; line-height: var(--messages-time-text-size); -webkit-font-smoothing: antialiased; pointer-events: none; order: 5; font-size: calc(var(--messages-text-size) + 3px); color: var(--message-status-color); background-color: rgb(223, 255, 223); user-select: text !important; font-family: tgico !important;&quot; class=&quot;tgico time-sending-status&quot;&gt;&lt;/span&gt;&lt;span style=&quot;box-sizing: inherit; user-select: none; visibility: hidden; font-size: var(--messages-time-text-size); height: var(--messages-time-text-size); line-height: 1; vertical-align: middle; pointer-events: none; display: inline-flex; z-index: 1; cursor: pointer; direction: ltr; float: right; padding-inline-end: 6px; margin-inline-start: -3px;&quot; class=&quot;time&quot;&gt;&lt;/span&gt;" style="text;strokeColor=#82b366;fillColor=#d5e8d4;align=left;verticalAlign=top;spacingLeft=4;spacingRight=4;overflow=hidden;rotatable=0;points=[[0,0.5],[1,0.5]];portConstraint=eastwest;whiteSpace=wrap;html=1;" parent="l1CnS8K0yS2sGFDzK0tB-23" vertex="1">
          <mxGeometry y="68" width="372" height="28" as="geometry" />
        </mxCell>
        <mxCell id="TVeIh7PDx6N5P01ksh86-92" value="+ addHall(cinemaHall: CinemaHall): void&lt;br&gt;&lt;br&gt;&lt;div style=&quot;box-sizing: inherit; -webkit-tap-highlight-color: rgba(0, 0, 0, 0); pointer-events: all; position: absolute; inset-inline-end: 0px; display: flex; align-items: center; line-height: 1; padding: inherit; height: var(--messages-time-text-size); visibility: visible; color: var(--message-time-color); bottom: 4px; font-family: Roboto, -apple-system, &amp;quot;apple color emoji&amp;quot;, BlinkMacSystemFont, &amp;quot;Segoe UI&amp;quot;, Roboto, Oxygen-Sans, Ubuntu, Cantarell, &amp;quot;Helvetica Neue&amp;quot;, sans-serif; background-color: rgb(223, 255, 223);&quot; title=&quot;24 March 2024, 23:08:45&quot; class=&quot;time-inner&quot;&gt;&lt;/div&gt;&lt;span style=&quot;box-sizing: inherit; font-variant-numeric: normal; font-variant-east-asian: normal; font-variant-alternates: normal; font-variant-position: normal; line-height: var(--messages-time-text-size); -webkit-font-smoothing: antialiased; pointer-events: none; order: 5; font-size: calc(var(--messages-text-size) + 3px); color: var(--message-status-color); background-color: rgb(223, 255, 223); user-select: text !important; font-family: tgico !important;&quot; class=&quot;tgico time-sending-status&quot;&gt;&lt;/span&gt;&lt;span style=&quot;box-sizing: inherit; user-select: none; visibility: hidden; font-size: var(--messages-time-text-size); height: var(--messages-time-text-size); line-height: 1; vertical-align: middle; pointer-events: none; display: inline-flex; z-index: 1; cursor: pointer; direction: ltr; float: right; padding-inline-end: 6px; margin-inline-start: -3px;&quot; class=&quot;time&quot;&gt;&lt;/span&gt;" style="text;strokeColor=#82b366;fillColor=#d5e8d4;align=left;verticalAlign=top;spacingLeft=4;spacingRight=4;overflow=hidden;rotatable=0;points=[[0,0.5],[1,0.5]];portConstraint=eastwest;whiteSpace=wrap;html=1;" vertex="1" parent="l1CnS8K0yS2sGFDzK0tB-23">
          <mxGeometry y="96" width="372" height="28" as="geometry" />
        </mxCell>
        <mxCell id="l1CnS8K0yS2sGFDzK0tB-27" value="+ removeHall(key: int) : void" style="text;strokeColor=#82b366;fillColor=#d5e8d4;align=left;verticalAlign=top;spacingLeft=4;spacingRight=4;overflow=hidden;rotatable=0;points=[[0,0.5],[1,0.5]];portConstraint=eastwest;whiteSpace=wrap;html=1;" parent="l1CnS8K0yS2sGFDzK0tB-23" vertex="1">
          <mxGeometry y="124" width="372" height="28" as="geometry" />
        </mxCell>
        <mxCell id="l1CnS8K0yS2sGFDzK0tB-26" value="+ getHallInfo (key: int) : void" style="text;strokeColor=#82b366;fillColor=#d5e8d4;align=left;verticalAlign=top;spacingLeft=4;spacingRight=4;overflow=hidden;rotatable=0;points=[[0,0.5],[1,0.5]];portConstraint=eastwest;whiteSpace=wrap;html=1;" parent="l1CnS8K0yS2sGFDzK0tB-23" vertex="1">
          <mxGeometry y="152" width="372" height="28" as="geometry" />
        </mxCell>
        <mxCell id="TVeIh7PDx6N5P01ksh86-93" value="+ displayHalls() : void" style="text;strokeColor=#82b366;fillColor=#d5e8d4;align=left;verticalAlign=top;spacingLeft=4;spacingRight=4;overflow=hidden;rotatable=0;points=[[0,0.5],[1,0.5]];portConstraint=eastwest;whiteSpace=wrap;html=1;" vertex="1" parent="l1CnS8K0yS2sGFDzK0tB-23">
          <mxGeometry y="180" width="372" height="28" as="geometry" />
        </mxCell>
        <mxCell id="l1CnS8K0yS2sGFDzK0tB-40" value="&lt;font style=&quot;font-size: 14px;&quot;&gt;ShowtimeArray&lt;/font&gt;" style="swimlane;fontStyle=1;align=center;verticalAlign=top;childLayout=stackLayout;horizontal=1;startSize=26;horizontalStack=0;resizeParent=1;resizeParentMax=0;resizeLast=0;collapsible=1;marginBottom=0;whiteSpace=wrap;html=1;fillColor=#d5e8d4;strokeColor=#82b366;" parent="WIyWlLk6GJQsqaUBKTNV-1" vertex="1">
          <mxGeometry x="-780" y="2280" width="372" height="388" as="geometry" />
        </mxCell>
        <mxCell id="l1CnS8K0yS2sGFDzK0tB-41" value="- size : int&lt;br&gt;&lt;div style=&quot;box-sizing: inherit; -webkit-tap-highlight-color: rgba(0, 0, 0, 0); pointer-events: all; position: absolute; inset-inline-end: 0px; display: flex; align-items: center; line-height: 1; padding: inherit; height: var(--messages-time-text-size); visibility: visible; color: var(--message-time-color); bottom: 4px; font-family: Roboto, -apple-system, &amp;quot;apple color emoji&amp;quot;, BlinkMacSystemFont, &amp;quot;Segoe UI&amp;quot;, Roboto, Oxygen-Sans, Ubuntu, Cantarell, &amp;quot;Helvetica Neue&amp;quot;, sans-serif; background-color: rgb(223, 255, 223);&quot; title=&quot;24 March 2024, 22:54:58&quot; class=&quot;time-inner&quot;&gt;&lt;/div&gt;&lt;span style=&quot;box-sizing: inherit; font-variant-numeric: normal; font-variant-east-asian: normal; font-variant-alternates: normal; font-variant-position: normal; line-height: var(--messages-time-text-size); -webkit-font-smoothing: antialiased; pointer-events: none; order: 5; font-size: calc(var(--messages-text-size) + 3px); color: var(--message-status-color); background-color: rgb(223, 255, 223); user-select: text !important; font-family: tgico !important;&quot; class=&quot;tgico time-sending-status&quot;&gt;&lt;/span&gt;&lt;span style=&quot;box-sizing: inherit; user-select: none; visibility: hidden; font-size: var(--messages-time-text-size); height: var(--messages-time-text-size); line-height: 1; vertical-align: middle; pointer-events: none; display: inline-flex; z-index: 1; cursor: pointer; direction: ltr; float: right; padding-inline-end: 6px; margin-inline-start: -3px;&quot; class=&quot;time&quot;&gt;&lt;/span&gt;" style="text;strokeColor=#82b366;fillColor=#d5e8d4;align=left;verticalAlign=top;spacingLeft=4;spacingRight=4;overflow=hidden;rotatable=0;points=[[0,0.5],[1,0.5]];portConstraint=eastwest;whiteSpace=wrap;html=1;" parent="l1CnS8K0yS2sGFDzK0tB-40" vertex="1">
          <mxGeometry y="26" width="372" height="34" as="geometry" />
        </mxCell>
        <mxCell id="TVeIh7PDx6N5P01ksh86-94" value="- capacity : int&lt;br&gt;&lt;div style=&quot;box-sizing: inherit; -webkit-tap-highlight-color: rgba(0, 0, 0, 0); pointer-events: all; position: absolute; inset-inline-end: 0px; display: flex; align-items: center; line-height: 1; padding: inherit; height: var(--messages-time-text-size); visibility: visible; color: var(--message-time-color); bottom: 4px; font-family: Roboto, -apple-system, &amp;quot;apple color emoji&amp;quot;, BlinkMacSystemFont, &amp;quot;Segoe UI&amp;quot;, Roboto, Oxygen-Sans, Ubuntu, Cantarell, &amp;quot;Helvetica Neue&amp;quot;, sans-serif; background-color: rgb(223, 255, 223);&quot; title=&quot;24 March 2024, 22:54:58&quot; class=&quot;time-inner&quot;&gt;&lt;/div&gt;&lt;span style=&quot;box-sizing: inherit; font-variant-numeric: normal; font-variant-east-asian: normal; font-variant-alternates: normal; font-variant-position: normal; line-height: var(--messages-time-text-size); -webkit-font-smoothing: antialiased; pointer-events: none; order: 5; font-size: calc(var(--messages-text-size) + 3px); color: var(--message-status-color); background-color: rgb(223, 255, 223); user-select: text !important; font-family: tgico !important;&quot; class=&quot;tgico time-sending-status&quot;&gt;&lt;/span&gt;&lt;span style=&quot;box-sizing: inherit; user-select: none; visibility: hidden; font-size: var(--messages-time-text-size); height: var(--messages-time-text-size); line-height: 1; vertical-align: middle; pointer-events: none; display: inline-flex; z-index: 1; cursor: pointer; direction: ltr; float: right; padding-inline-end: 6px; margin-inline-start: -3px;&quot; class=&quot;time&quot;&gt;&lt;/span&gt;" style="text;strokeColor=#82b366;fillColor=#d5e8d4;align=left;verticalAlign=top;spacingLeft=4;spacingRight=4;overflow=hidden;rotatable=0;points=[[0,0.5],[1,0.5]];portConstraint=eastwest;whiteSpace=wrap;html=1;" vertex="1" parent="l1CnS8K0yS2sGFDzK0tB-40">
          <mxGeometry y="60" width="372" height="34" as="geometry" />
        </mxCell>
        <mxCell id="TVeIh7PDx6N5P01ksh86-95" value="- showtimes : Showtime [ ]&lt;br&gt;&lt;div style=&quot;box-sizing: inherit; -webkit-tap-highlight-color: rgba(0, 0, 0, 0); pointer-events: all; position: absolute; inset-inline-end: 0px; display: flex; align-items: center; line-height: 1; padding: inherit; height: var(--messages-time-text-size); visibility: visible; color: var(--message-time-color); bottom: 4px; font-family: Roboto, -apple-system, &amp;quot;apple color emoji&amp;quot;, BlinkMacSystemFont, &amp;quot;Segoe UI&amp;quot;, Roboto, Oxygen-Sans, Ubuntu, Cantarell, &amp;quot;Helvetica Neue&amp;quot;, sans-serif; background-color: rgb(223, 255, 223);&quot; title=&quot;24 March 2024, 22:54:58&quot; class=&quot;time-inner&quot;&gt;&lt;/div&gt;&lt;span style=&quot;box-sizing: inherit; font-variant-numeric: normal; font-variant-east-asian: normal; font-variant-alternates: normal; font-variant-position: normal; line-height: var(--messages-time-text-size); -webkit-font-smoothing: antialiased; pointer-events: none; order: 5; font-size: calc(var(--messages-text-size) + 3px); color: var(--message-status-color); background-color: rgb(223, 255, 223); user-select: text !important; font-family: tgico !important;&quot; class=&quot;tgico time-sending-status&quot;&gt;&lt;/span&gt;&lt;span style=&quot;box-sizing: inherit; user-select: none; visibility: hidden; font-size: var(--messages-time-text-size); height: var(--messages-time-text-size); line-height: 1; vertical-align: middle; pointer-events: none; display: inline-flex; z-index: 1; cursor: pointer; direction: ltr; float: right; padding-inline-end: 6px; margin-inline-start: -3px;&quot; class=&quot;time&quot;&gt;&lt;/span&gt;" style="text;strokeColor=#82b366;fillColor=#d5e8d4;align=left;verticalAlign=top;spacingLeft=4;spacingRight=4;overflow=hidden;rotatable=0;points=[[0,0.5],[1,0.5]];portConstraint=eastwest;whiteSpace=wrap;html=1;" vertex="1" parent="l1CnS8K0yS2sGFDzK0tB-40">
          <mxGeometry y="94" width="372" height="34" as="geometry" />
        </mxCell>
        <mxCell id="l1CnS8K0yS2sGFDzK0tB-42" value="" style="line;strokeWidth=1;fillColor=#d5e8d4;align=left;verticalAlign=middle;spacingTop=-1;spacingLeft=3;spacingRight=3;rotatable=0;labelPosition=right;points=[];portConstraint=eastwest;strokeColor=#82b366;" parent="l1CnS8K0yS2sGFDzK0tB-40" vertex="1">
          <mxGeometry y="128" width="372" height="8" as="geometry" />
        </mxCell>
        <mxCell id="l1CnS8K0yS2sGFDzK0tB-43" value="+ ShowtimeArray()" style="text;strokeColor=#82b366;fillColor=#d5e8d4;align=left;verticalAlign=top;spacingLeft=4;spacingRight=4;overflow=hidden;rotatable=0;points=[[0,0.5],[1,0.5]];portConstraint=eastwest;whiteSpace=wrap;html=1;" parent="l1CnS8K0yS2sGFDzK0tB-40" vertex="1">
          <mxGeometry y="136" width="372" height="28" as="geometry" />
        </mxCell>
        <mxCell id="TVeIh7PDx6N5P01ksh86-87" value="+ getShowtimes() : Showtime [ ]&amp;nbsp;" style="text;strokeColor=#82b366;fillColor=#d5e8d4;align=left;verticalAlign=top;spacingLeft=4;spacingRight=4;overflow=hidden;rotatable=0;points=[[0,0.5],[1,0.5]];portConstraint=eastwest;whiteSpace=wrap;html=1;" vertex="1" parent="l1CnS8K0yS2sGFDzK0tB-40">
          <mxGeometry y="164" width="372" height="28" as="geometry" />
        </mxCell>
        <mxCell id="TVeIh7PDx6N5P01ksh86-86" value="+ addShowtime(showtime: Showtime) : void" style="text;strokeColor=#82b366;fillColor=#d5e8d4;align=left;verticalAlign=top;spacingLeft=4;spacingRight=4;overflow=hidden;rotatable=0;points=[[0,0.5],[1,0.5]];portConstraint=eastwest;whiteSpace=wrap;html=1;" vertex="1" parent="l1CnS8K0yS2sGFDzK0tB-40">
          <mxGeometry y="192" width="372" height="28" as="geometry" />
        </mxCell>
        <mxCell id="l1CnS8K0yS2sGFDzK0tB-45" value="+ removeShowtime () : void" style="text;strokeColor=#82b366;fillColor=#d5e8d4;align=left;verticalAlign=top;spacingLeft=4;spacingRight=4;overflow=hidden;rotatable=0;points=[[0,0.5],[1,0.5]];portConstraint=eastwest;whiteSpace=wrap;html=1;" parent="l1CnS8K0yS2sGFDzK0tB-40" vertex="1">
          <mxGeometry y="220" width="372" height="28" as="geometry" />
        </mxCell>
        <mxCell id="l1CnS8K0yS2sGFDzK0tB-44" value="+ displayAll() : void" style="text;strokeColor=#82b366;fillColor=#d5e8d4;align=left;verticalAlign=top;spacingLeft=4;spacingRight=4;overflow=hidden;rotatable=0;points=[[0,0.5],[1,0.5]];portConstraint=eastwest;whiteSpace=wrap;html=1;" parent="l1CnS8K0yS2sGFDzK0tB-40" vertex="1">
          <mxGeometry y="248" width="372" height="28" as="geometry" />
        </mxCell>
        <mxCell id="TVeIh7PDx6N5P01ksh86-88" value="+ displayByMovie(movieLinkedList: MovieLinkedList) : void" style="text;strokeColor=#82b366;fillColor=#d5e8d4;align=left;verticalAlign=top;spacingLeft=4;spacingRight=4;overflow=hidden;rotatable=0;points=[[0,0.5],[1,0.5]];portConstraint=eastwest;whiteSpace=wrap;html=1;" vertex="1" parent="l1CnS8K0yS2sGFDzK0tB-40">
          <mxGeometry y="276" width="372" height="28" as="geometry" />
        </mxCell>
        <mxCell id="TVeIh7PDx6N5P01ksh86-96" value="+ displayByStartTimeDetailed() : void" style="text;strokeColor=#82b366;fillColor=#d5e8d4;align=left;verticalAlign=top;spacingLeft=4;spacingRight=4;overflow=hidden;rotatable=0;points=[[0,0.5],[1,0.5]];portConstraint=eastwest;whiteSpace=wrap;html=1;" vertex="1" parent="l1CnS8K0yS2sGFDzK0tB-40">
          <mxGeometry y="304" width="372" height="28" as="geometry" />
        </mxCell>
        <mxCell id="TVeIh7PDx6N5P01ksh86-89" value="+ selectShowtimeByTitle(title:String) : int" style="text;strokeColor=#82b366;fillColor=#d5e8d4;align=left;verticalAlign=top;spacingLeft=4;spacingRight=4;overflow=hidden;rotatable=0;points=[[0,0.5],[1,0.5]];portConstraint=eastwest;whiteSpace=wrap;html=1;" vertex="1" parent="l1CnS8K0yS2sGFDzK0tB-40">
          <mxGeometry y="332" width="372" height="28" as="geometry" />
        </mxCell>
        <mxCell id="TVeIh7PDx6N5P01ksh86-97" value="- isShowtimeColliding(A: Showtime) : boolean" style="text;strokeColor=#82b366;fillColor=#d5e8d4;align=left;verticalAlign=top;spacingLeft=4;spacingRight=4;overflow=hidden;rotatable=0;points=[[0,0.5],[1,0.5]];portConstraint=eastwest;whiteSpace=wrap;html=1;" vertex="1" parent="l1CnS8K0yS2sGFDzK0tB-40">
          <mxGeometry y="360" width="372" height="28" as="geometry" />
        </mxCell>
        <mxCell id="t_dCJZUFcFcYUfNnIZYs-0" value="&lt;font style=&quot;font-size: 14px;&quot;&gt;PayPalPayment&lt;/font&gt;" style="swimlane;fontStyle=1;align=center;verticalAlign=top;childLayout=stackLayout;horizontal=1;startSize=26;horizontalStack=0;resizeParent=1;resizeParentMax=0;resizeLast=0;collapsible=1;marginBottom=0;whiteSpace=wrap;html=1;fillColor=#f8cecc;strokeColor=#b85450;" parent="WIyWlLk6GJQsqaUBKTNV-1" vertex="1">
          <mxGeometry x="-1446" y="1620" width="312" height="124" as="geometry" />
        </mxCell>
        <mxCell id="t_dCJZUFcFcYUfNnIZYs-1" value="- email: String&lt;br&gt;&lt;div style=&quot;box-sizing: inherit; -webkit-tap-highlight-color: rgba(0, 0, 0, 0); pointer-events: all; position: absolute; inset-inline-end: 0px; display: flex; align-items: center; line-height: 1; padding: inherit; height: var(--messages-time-text-size); visibility: visible; color: var(--message-time-color); bottom: 4px; font-family: Roboto, -apple-system, &amp;quot;apple color emoji&amp;quot;, BlinkMacSystemFont, &amp;quot;Segoe UI&amp;quot;, Roboto, Oxygen-Sans, Ubuntu, Cantarell, &amp;quot;Helvetica Neue&amp;quot;, sans-serif; background-color: rgb(223, 255, 223);&quot; title=&quot;24 March 2024, 22:54:58&quot; class=&quot;time-inner&quot;&gt;&lt;/div&gt;&lt;span style=&quot;box-sizing: inherit; font-variant-numeric: normal; font-variant-east-asian: normal; font-variant-alternates: normal; font-variant-position: normal; line-height: var(--messages-time-text-size); -webkit-font-smoothing: antialiased; pointer-events: none; order: 5; font-size: calc(var(--messages-text-size) + 3px); color: var(--message-status-color); background-color: rgb(223, 255, 223); user-select: text !important; font-family: tgico !important;&quot; class=&quot;tgico time-sending-status&quot;&gt;&lt;/span&gt;&lt;span style=&quot;box-sizing: inherit; user-select: none; visibility: hidden; font-size: var(--messages-time-text-size); height: var(--messages-time-text-size); line-height: 1; vertical-align: middle; pointer-events: none; display: inline-flex; z-index: 1; cursor: pointer; direction: ltr; float: right; padding-inline-end: 6px; margin-inline-start: -3px;&quot; class=&quot;time&quot;&gt;&lt;/span&gt;" style="text;strokeColor=#b85450;fillColor=#f8cecc;align=left;verticalAlign=top;spacingLeft=4;spacingRight=4;overflow=hidden;rotatable=0;points=[[0,0.5],[1,0.5]];portConstraint=eastwest;whiteSpace=wrap;html=1;" parent="t_dCJZUFcFcYUfNnIZYs-0" vertex="1">
          <mxGeometry y="26" width="312" height="34" as="geometry" />
        </mxCell>
        <mxCell id="t_dCJZUFcFcYUfNnIZYs-3" value="" style="line;strokeWidth=1;fillColor=#f8cecc;align=left;verticalAlign=middle;spacingTop=-1;spacingLeft=3;spacingRight=3;rotatable=0;labelPosition=right;points=[];portConstraint=eastwest;strokeColor=#b85450;" parent="t_dCJZUFcFcYUfNnIZYs-0" vertex="1">
          <mxGeometry y="60" width="312" height="8" as="geometry" />
        </mxCell>
        <mxCell id="t_dCJZUFcFcYUfNnIZYs-4" value="+ PayPalPayment(email: String)" style="text;strokeColor=#b85450;fillColor=#f8cecc;align=left;verticalAlign=top;spacingLeft=4;spacingRight=4;overflow=hidden;rotatable=0;points=[[0,0.5],[1,0.5]];portConstraint=eastwest;whiteSpace=wrap;html=1;" parent="t_dCJZUFcFcYUfNnIZYs-0" vertex="1">
          <mxGeometry y="68" width="312" height="28" as="geometry" />
        </mxCell>
        <mxCell id="TVeIh7PDx6N5P01ksh86-113" value="+ pay(amount: float) : void" style="text;strokeColor=#b85450;fillColor=#f8cecc;align=left;verticalAlign=top;spacingLeft=4;spacingRight=4;overflow=hidden;rotatable=0;points=[[0,0.5],[1,0.5]];portConstraint=eastwest;whiteSpace=wrap;html=1;" vertex="1" parent="t_dCJZUFcFcYUfNnIZYs-0">
          <mxGeometry y="96" width="312" height="28" as="geometry" />
        </mxCell>
        <mxCell id="t_dCJZUFcFcYUfNnIZYs-5" value="&lt;font style=&quot;font-size: 14px;&quot;&gt;&amp;lt;&amp;lt;interface&amp;gt;&amp;gt; PaymentStrategy&lt;/font&gt;" style="swimlane;fontStyle=1;align=center;verticalAlign=top;childLayout=stackLayout;horizontal=1;startSize=26;horizontalStack=0;resizeParent=1;resizeParentMax=0;resizeLast=0;collapsible=1;marginBottom=0;whiteSpace=wrap;html=1;fillColor=#f8cecc;strokeColor=#b85450;" parent="WIyWlLk6GJQsqaUBKTNV-1" vertex="1">
          <mxGeometry x="-1452" y="1852" width="324" height="60" as="geometry" />
        </mxCell>
        <mxCell id="t_dCJZUFcFcYUfNnIZYs-6" value="pay(amount : float) : void&lt;br&gt;&lt;div style=&quot;box-sizing: inherit; -webkit-tap-highlight-color: rgba(0, 0, 0, 0); pointer-events: all; position: absolute; inset-inline-end: 0px; display: flex; align-items: center; line-height: 1; padding: inherit; height: var(--messages-time-text-size); visibility: visible; color: var(--message-time-color); bottom: 4px; font-family: Roboto, -apple-system, &amp;quot;apple color emoji&amp;quot;, BlinkMacSystemFont, &amp;quot;Segoe UI&amp;quot;, Roboto, Oxygen-Sans, Ubuntu, Cantarell, &amp;quot;Helvetica Neue&amp;quot;, sans-serif; background-color: rgb(223, 255, 223);&quot; title=&quot;24 March 2024, 22:54:58&quot; class=&quot;time-inner&quot;&gt;&lt;/div&gt;&lt;span style=&quot;box-sizing: inherit; font-variant-numeric: normal; font-variant-east-asian: normal; font-variant-alternates: normal; font-variant-position: normal; line-height: var(--messages-time-text-size); -webkit-font-smoothing: antialiased; pointer-events: none; order: 5; font-size: calc(var(--messages-text-size) + 3px); color: var(--message-status-color); background-color: rgb(223, 255, 223); user-select: text !important; font-family: tgico !important;&quot; class=&quot;tgico time-sending-status&quot;&gt;&lt;/span&gt;&lt;span style=&quot;box-sizing: inherit; user-select: none; visibility: hidden; font-size: var(--messages-time-text-size); height: var(--messages-time-text-size); line-height: 1; vertical-align: middle; pointer-events: none; display: inline-flex; z-index: 1; cursor: pointer; direction: ltr; float: right; padding-inline-end: 6px; margin-inline-start: -3px;&quot; class=&quot;time&quot;&gt;&lt;/span&gt;" style="text;strokeColor=#b85450;fillColor=#f8cecc;align=left;verticalAlign=top;spacingLeft=4;spacingRight=4;overflow=hidden;rotatable=0;points=[[0,0.5],[1,0.5]];portConstraint=eastwest;whiteSpace=wrap;html=1;" parent="t_dCJZUFcFcYUfNnIZYs-5" vertex="1">
          <mxGeometry y="26" width="324" height="34" as="geometry" />
        </mxCell>
        <mxCell id="xh_wOOHC8qffRHgod0d3-1" value="" style="endArrow=diamondThin;endFill=1;endSize=24;html=1;rounded=0;entryX=0;entryY=0;entryDx=0;entryDy=0;exitX=0.861;exitY=0.974;exitDx=0;exitDy=0;fillColor=#ffe6cc;strokeColor=#d79b00;exitPerimeter=0;" parent="WIyWlLk6GJQsqaUBKTNV-1" source="TVeIh7PDx6N5P01ksh86-15" target="ARl5YusZndDiUU1l1j_P-15" edge="1">
          <mxGeometry width="160" relative="1" as="geometry">
            <mxPoint x="306" y="1443" as="sourcePoint" />
            <mxPoint x="564" y="1121" as="targetPoint" />
          </mxGeometry>
        </mxCell>
        <mxCell id="xh_wOOHC8qffRHgod0d3-2" value="" style="endArrow=diamondThin;endFill=1;endSize=24;html=1;rounded=0;entryX=0.004;entryY=1.048;entryDx=0;entryDy=0;strokeColor=#007FFF;entryPerimeter=0;exitX=1;exitY=0.5;exitDx=0;exitDy=0;" parent="WIyWlLk6GJQsqaUBKTNV-1" target="TVeIh7PDx6N5P01ksh86-64" edge="1" source="t_dCJZUFcFcYUfNnIZYs-5">
          <mxGeometry width="160" relative="1" as="geometry">
            <mxPoint x="-1020" y="1968" as="sourcePoint" />
            <mxPoint x="-3552" y="326.00000000000006" as="targetPoint" />
          </mxGeometry>
        </mxCell>
        <mxCell id="ARl5YusZndDiUU1l1j_P-15" value="Ticket" style="swimlane;fontStyle=1;align=center;verticalAlign=top;childLayout=stackLayout;horizontal=1;startSize=26;horizontalStack=0;resizeParent=1;resizeParentMax=0;resizeLast=0;collapsible=1;marginBottom=0;whiteSpace=wrap;html=1;fillColor=#ffe6cc;strokeColor=#d79b00;" parent="WIyWlLk6GJQsqaUBKTNV-1" vertex="1">
          <mxGeometry x="888" y="1066" width="570" height="410" as="geometry" />
        </mxCell>
        <mxCell id="ARl5YusZndDiUU1l1j_P-19" value="- movie : Movie" style="text;strokeColor=#d79b00;fillColor=#ffe6cc;align=left;verticalAlign=top;spacingLeft=4;spacingRight=4;overflow=hidden;rotatable=0;points=[[0,0.5],[1,0.5]];portConstraint=eastwest;whiteSpace=wrap;html=1;" parent="ARl5YusZndDiUU1l1j_P-15" vertex="1">
          <mxGeometry y="26" width="570" height="26" as="geometry" />
        </mxCell>
        <mxCell id="ARl5YusZndDiUU1l1j_P-18" value="- showTime : ShowTime" style="text;strokeColor=#d79b00;fillColor=#ffe6cc;align=left;verticalAlign=top;spacingLeft=4;spacingRight=4;overflow=hidden;rotatable=0;points=[[0,0.5],[1,0.5]];portConstraint=eastwest;whiteSpace=wrap;html=1;" parent="ARl5YusZndDiUU1l1j_P-15" vertex="1">
          <mxGeometry y="52" width="570" height="26" as="geometry" />
        </mxCell>
        <mxCell id="ARl5YusZndDiUU1l1j_P-17" value="- seat : int []" style="text;strokeColor=#d79b00;fillColor=#ffe6cc;align=left;verticalAlign=top;spacingLeft=4;spacingRight=4;overflow=hidden;rotatable=0;points=[[0,0.5],[1,0.5]];portConstraint=eastwest;whiteSpace=wrap;html=1;" parent="ARl5YusZndDiUU1l1j_P-15" vertex="1">
          <mxGeometry y="78" width="570" height="26" as="geometry" />
        </mxCell>
        <mxCell id="ARl5YusZndDiUU1l1j_P-16" value="- price : float" style="text;strokeColor=#d79b00;fillColor=#ffe6cc;align=left;verticalAlign=top;spacingLeft=4;spacingRight=4;overflow=hidden;rotatable=0;points=[[0,0.5],[1,0.5]];portConstraint=eastwest;whiteSpace=wrap;html=1;" parent="ARl5YusZndDiUU1l1j_P-15" vertex="1">
          <mxGeometry y="104" width="570" height="26" as="geometry" />
        </mxCell>
        <mxCell id="ARl5YusZndDiUU1l1j_P-20" value="" style="line;strokeWidth=1;fillColor=#ffe6cc;align=left;verticalAlign=middle;spacingTop=-1;spacingLeft=3;spacingRight=3;rotatable=0;labelPosition=right;points=[];portConstraint=eastwest;strokeColor=#d79b00;" parent="ARl5YusZndDiUU1l1j_P-15" vertex="1">
          <mxGeometry y="130" width="570" height="8" as="geometry" />
        </mxCell>
        <mxCell id="ARl5YusZndDiUU1l1j_P-21" value="+ Ticket (movie: Movie,&amp;nbsp;showtime: Showtime, seat: int [], price: float)" style="text;strokeColor=#d79b00;fillColor=#ffe6cc;align=left;verticalAlign=top;spacingLeft=4;spacingRight=4;overflow=hidden;rotatable=0;points=[[0,0.5],[1,0.5]];portConstraint=eastwest;whiteSpace=wrap;html=1;" parent="ARl5YusZndDiUU1l1j_P-15" vertex="1">
          <mxGeometry y="138" width="570" height="30" as="geometry" />
        </mxCell>
        <mxCell id="ARl5YusZndDiUU1l1j_P-22" value="+ getMovie() : Movie" style="text;strokeColor=#d79b00;fillColor=#ffe6cc;align=left;verticalAlign=top;spacingLeft=4;spacingRight=4;overflow=hidden;rotatable=0;points=[[0,0.5],[1,0.5]];portConstraint=eastwest;whiteSpace=wrap;html=1;" parent="ARl5YusZndDiUU1l1j_P-15" vertex="1">
          <mxGeometry y="168" width="570" height="32" as="geometry" />
        </mxCell>
        <mxCell id="ARl5YusZndDiUU1l1j_P-23" value="+ setMovie (movie: Movie) : void" style="text;strokeColor=#d79b00;fillColor=#ffe6cc;align=left;verticalAlign=top;spacingLeft=4;spacingRight=4;overflow=hidden;rotatable=0;points=[[0,0.5],[1,0.5]];portConstraint=eastwest;whiteSpace=wrap;html=1;" parent="ARl5YusZndDiUU1l1j_P-15" vertex="1">
          <mxGeometry y="200" width="570" height="30" as="geometry" />
        </mxCell>
        <mxCell id="ARl5YusZndDiUU1l1j_P-24" value="+ getShowtime() : Showtime " style="text;strokeColor=#d79b00;fillColor=#ffe6cc;align=left;verticalAlign=top;spacingLeft=4;spacingRight=4;overflow=hidden;rotatable=0;points=[[0,0.5],[1,0.5]];portConstraint=eastwest;whiteSpace=wrap;html=1;" parent="ARl5YusZndDiUU1l1j_P-15" vertex="1">
          <mxGeometry y="230" width="570" height="30" as="geometry" />
        </mxCell>
        <mxCell id="ARl5YusZndDiUU1l1j_P-25" value="+ setShowtime (showtime: Showtime): void" style="text;strokeColor=#d79b00;fillColor=#ffe6cc;align=left;verticalAlign=top;spacingLeft=4;spacingRight=4;overflow=hidden;rotatable=0;points=[[0,0.5],[1,0.5]];portConstraint=eastwest;whiteSpace=wrap;html=1;" parent="ARl5YusZndDiUU1l1j_P-15" vertex="1">
          <mxGeometry y="260" width="570" height="30" as="geometry" />
        </mxCell>
        <mxCell id="ARl5YusZndDiUU1l1j_P-26" value="+ getSeat() : int []" style="text;strokeColor=#d79b00;fillColor=#ffe6cc;align=left;verticalAlign=top;spacingLeft=4;spacingRight=4;overflow=hidden;rotatable=0;points=[[0,0.5],[1,0.5]];portConstraint=eastwest;whiteSpace=wrap;html=1;" parent="ARl5YusZndDiUU1l1j_P-15" vertex="1">
          <mxGeometry y="290" width="570" height="30" as="geometry" />
        </mxCell>
        <mxCell id="ARl5YusZndDiUU1l1j_P-27" value="+&amp;nbsp;setSeat (seat: int []) : void" style="text;strokeColor=#d79b00;fillColor=#ffe6cc;align=left;verticalAlign=top;spacingLeft=4;spacingRight=4;overflow=hidden;rotatable=0;points=[[0,0.5],[1,0.5]];portConstraint=eastwest;whiteSpace=wrap;html=1;" parent="ARl5YusZndDiUU1l1j_P-15" vertex="1">
          <mxGeometry y="320" width="570" height="30" as="geometry" />
        </mxCell>
        <mxCell id="ARl5YusZndDiUU1l1j_P-28" value="+ getPrice() : float" style="text;strokeColor=#d79b00;fillColor=#ffe6cc;align=left;verticalAlign=top;spacingLeft=4;spacingRight=4;overflow=hidden;rotatable=0;points=[[0,0.5],[1,0.5]];portConstraint=eastwest;whiteSpace=wrap;html=1;" parent="ARl5YusZndDiUU1l1j_P-15" vertex="1">
          <mxGeometry y="350" width="570" height="30" as="geometry" />
        </mxCell>
        <mxCell id="ARl5YusZndDiUU1l1j_P-29" value="+ setPrice (price : float) : void" style="text;strokeColor=#d79b00;fillColor=#ffe6cc;align=left;verticalAlign=top;spacingLeft=4;spacingRight=4;overflow=hidden;rotatable=0;points=[[0,0.5],[1,0.5]];portConstraint=eastwest;whiteSpace=wrap;html=1;" parent="ARl5YusZndDiUU1l1j_P-15" vertex="1">
          <mxGeometry y="380" width="570" height="30" as="geometry" />
        </mxCell>
        <mxCell id="TVeIh7PDx6N5P01ksh86-30" value="&lt;font style=&quot;font-size: 14px;&quot;&gt;&amp;lt;&amp;lt;enumeration&amp;gt;&amp;gt; ReservationStatus&amp;nbsp;&lt;/font&gt;" style="swimlane;fontStyle=1;align=center;verticalAlign=top;childLayout=stackLayout;horizontal=1;startSize=26;horizontalStack=0;resizeParent=1;resizeParentMax=0;resizeLast=0;collapsible=1;marginBottom=0;whiteSpace=wrap;html=1;fillColor=#E1D5E7;strokeColor=#9673A6;" vertex="1" parent="WIyWlLk6GJQsqaUBKTNV-1">
          <mxGeometry x="1008" y="-288" width="312" height="108" as="geometry" />
        </mxCell>
        <mxCell id="TVeIh7PDx6N5P01ksh86-31" value="&lt;div&gt;&lt;br&gt;&lt;/div&gt;CONFIRMED&lt;br&gt;&lt;div style=&quot;box-sizing: inherit; -webkit-tap-highlight-color: rgba(0, 0, 0, 0); pointer-events: all; position: absolute; inset-inline-end: 0px; display: flex; align-items: center; line-height: 1; padding: inherit; height: var(--messages-time-text-size); visibility: visible; color: var(--message-time-color); bottom: 4px; font-family: Roboto, -apple-system, &amp;quot;apple color emoji&amp;quot;, BlinkMacSystemFont, &amp;quot;Segoe UI&amp;quot;, Roboto, Oxygen-Sans, Ubuntu, Cantarell, &amp;quot;Helvetica Neue&amp;quot;, sans-serif; background-color: rgb(223, 255, 223);&quot; title=&quot;24 March 2024, 22:54:58&quot; class=&quot;time-inner&quot;&gt;&lt;/div&gt;&lt;span style=&quot;box-sizing: inherit; font-variant-numeric: normal; font-variant-east-asian: normal; font-variant-alternates: normal; font-variant-position: normal; line-height: var(--messages-time-text-size); -webkit-font-smoothing: antialiased; pointer-events: none; order: 5; font-size: calc(var(--messages-text-size) + 3px); color: var(--message-status-color); background-color: rgb(223, 255, 223); user-select: text !important; font-family: tgico !important;&quot; class=&quot;tgico time-sending-status&quot;&gt;&lt;/span&gt;&lt;span style=&quot;box-sizing: inherit; user-select: none; visibility: hidden; font-size: var(--messages-time-text-size); height: var(--messages-time-text-size); line-height: 1; vertical-align: middle; pointer-events: none; display: inline-flex; z-index: 1; cursor: pointer; direction: ltr; float: right; padding-inline-end: 6px; margin-inline-start: -3px;&quot; class=&quot;time&quot;&gt;&lt;/span&gt;&lt;div&gt;PENDING&lt;/div&gt;&lt;div&gt;CANCELLED&lt;/div&gt;" style="text;strokeColor=#9673A6;fillColor=#E1D5E7;align=left;verticalAlign=top;spacingLeft=4;spacingRight=4;overflow=hidden;rotatable=0;points=[[0,0.5],[1,0.5]];portConstraint=eastwest;whiteSpace=wrap;html=1;" vertex="1" parent="TVeIh7PDx6N5P01ksh86-30">
          <mxGeometry y="26" width="312" height="82" as="geometry" />
        </mxCell>
        <mxCell id="TVeIh7PDx6N5P01ksh86-36" value="" style="endArrow=diamondThin;endFill=1;endSize=24;html=1;rounded=0;fillColor=#ffe6cc;strokeColor=#d79b00;exitX=0.463;exitY=0;exitDx=0;exitDy=0;exitPerimeter=0;" edge="1" parent="WIyWlLk6GJQsqaUBKTNV-1" source="ARl5YusZndDiUU1l1j_P-15">
          <mxGeometry width="160" relative="1" as="geometry">
            <mxPoint x="1164" y="1056" as="sourcePoint" />
            <mxPoint x="1149" y="540" as="targetPoint" />
          </mxGeometry>
        </mxCell>
        <mxCell id="TVeIh7PDx6N5P01ksh86-37" value="&lt;font style=&quot;font-size: 14px;&quot;&gt;ConfirmedReservationStack&lt;/font&gt;" style="swimlane;fontStyle=1;align=center;verticalAlign=top;childLayout=stackLayout;horizontal=1;startSize=26;horizontalStack=0;resizeParent=1;resizeParentMax=0;resizeLast=0;collapsible=1;marginBottom=0;whiteSpace=wrap;html=1;fillColor=#d5e8d4;strokeColor=#82b366;" vertex="1" parent="WIyWlLk6GJQsqaUBKTNV-1">
          <mxGeometry x="-720" y="1000" width="372" height="236" as="geometry" />
        </mxCell>
        <mxCell id="TVeIh7PDx6N5P01ksh86-38" value="- confirmedReservations : Stack&amp;lt;Reservation&amp;gt;&lt;br&gt;&lt;div style=&quot;box-sizing: inherit; -webkit-tap-highlight-color: rgba(0, 0, 0, 0); pointer-events: all; position: absolute; inset-inline-end: 0px; display: flex; align-items: center; line-height: 1; padding: inherit; height: var(--messages-time-text-size); visibility: visible; color: var(--message-time-color); bottom: 4px; font-family: Roboto, -apple-system, &amp;quot;apple color emoji&amp;quot;, BlinkMacSystemFont, &amp;quot;Segoe UI&amp;quot;, Roboto, Oxygen-Sans, Ubuntu, Cantarell, &amp;quot;Helvetica Neue&amp;quot;, sans-serif; background-color: rgb(223, 255, 223);&quot; title=&quot;24 March 2024, 22:54:58&quot; class=&quot;time-inner&quot;&gt;&lt;/div&gt;&lt;span style=&quot;box-sizing: inherit; font-variant-numeric: normal; font-variant-east-asian: normal; font-variant-alternates: normal; font-variant-position: normal; line-height: var(--messages-time-text-size); -webkit-font-smoothing: antialiased; pointer-events: none; order: 5; font-size: calc(var(--messages-text-size) + 3px); color: var(--message-status-color); background-color: rgb(223, 255, 223); user-select: text !important; font-family: tgico !important;&quot; class=&quot;tgico time-sending-status&quot;&gt;&lt;/span&gt;&lt;span style=&quot;box-sizing: inherit; user-select: none; visibility: hidden; font-size: var(--messages-time-text-size); height: var(--messages-time-text-size); line-height: 1; vertical-align: middle; pointer-events: none; display: inline-flex; z-index: 1; cursor: pointer; direction: ltr; float: right; padding-inline-end: 6px; margin-inline-start: -3px;&quot; class=&quot;time&quot;&gt;&lt;/span&gt;" style="text;strokeColor=#82b366;fillColor=#d5e8d4;align=left;verticalAlign=top;spacingLeft=4;spacingRight=4;overflow=hidden;rotatable=0;points=[[0,0.5],[1,0.5]];portConstraint=eastwest;whiteSpace=wrap;html=1;" vertex="1" parent="TVeIh7PDx6N5P01ksh86-37">
          <mxGeometry y="26" width="372" height="34" as="geometry" />
        </mxCell>
        <mxCell id="TVeIh7PDx6N5P01ksh86-39" value="" style="line;strokeWidth=1;fillColor=#d5e8d4;align=left;verticalAlign=middle;spacingTop=-1;spacingLeft=3;spacingRight=3;rotatable=0;labelPosition=right;points=[];portConstraint=eastwest;strokeColor=#82b366;" vertex="1" parent="TVeIh7PDx6N5P01ksh86-37">
          <mxGeometry y="60" width="372" height="8" as="geometry" />
        </mxCell>
        <mxCell id="TVeIh7PDx6N5P01ksh86-40" value="+ ConfirmedReservationStack()" style="text;strokeColor=#82b366;fillColor=#d5e8d4;align=left;verticalAlign=top;spacingLeft=4;spacingRight=4;overflow=hidden;rotatable=0;points=[[0,0.5],[1,0.5]];portConstraint=eastwest;whiteSpace=wrap;html=1;" vertex="1" parent="TVeIh7PDx6N5P01ksh86-37">
          <mxGeometry y="68" width="372" height="28" as="geometry" />
        </mxCell>
        <mxCell id="TVeIh7PDx6N5P01ksh86-42" value="+ pushReservation(reservations: Stack&amp;lt;Reservation&amp;gt;) : void" style="text;strokeColor=#82b366;fillColor=#d5e8d4;align=left;verticalAlign=top;spacingLeft=4;spacingRight=4;overflow=hidden;rotatable=0;points=[[0,0.5],[1,0.5]];portConstraint=eastwest;whiteSpace=wrap;html=1;" vertex="1" parent="TVeIh7PDx6N5P01ksh86-37">
          <mxGeometry y="96" width="372" height="28" as="geometry" />
        </mxCell>
        <mxCell id="TVeIh7PDx6N5P01ksh86-41" value="+ pushReservation(reservation: Reservation) : void" style="text;strokeColor=#82b366;fillColor=#d5e8d4;align=left;verticalAlign=top;spacingLeft=4;spacingRight=4;overflow=hidden;rotatable=0;points=[[0,0.5],[1,0.5]];portConstraint=eastwest;whiteSpace=wrap;html=1;" vertex="1" parent="TVeIh7PDx6N5P01ksh86-37">
          <mxGeometry y="124" width="372" height="28" as="geometry" />
        </mxCell>
        <mxCell id="TVeIh7PDx6N5P01ksh86-43" value="+ popReservation() : Reservation" style="text;strokeColor=#82b366;fillColor=#d5e8d4;align=left;verticalAlign=top;spacingLeft=4;spacingRight=4;overflow=hidden;rotatable=0;points=[[0,0.5],[1,0.5]];portConstraint=eastwest;whiteSpace=wrap;html=1;" vertex="1" parent="TVeIh7PDx6N5P01ksh86-37">
          <mxGeometry y="152" width="372" height="28" as="geometry" />
        </mxCell>
        <mxCell id="TVeIh7PDx6N5P01ksh86-44" value="+ displayAllSamples() : void" style="text;strokeColor=#82b366;fillColor=#d5e8d4;align=left;verticalAlign=top;spacingLeft=4;spacingRight=4;overflow=hidden;rotatable=0;points=[[0,0.5],[1,0.5]];portConstraint=eastwest;whiteSpace=wrap;html=1;" vertex="1" parent="TVeIh7PDx6N5P01ksh86-37">
          <mxGeometry y="180" width="372" height="28" as="geometry" />
        </mxCell>
        <mxCell id="TVeIh7PDx6N5P01ksh86-45" value="+ getConfirmedReservations() : Stack&amp;lt;Reservation&amp;gt;" style="text;strokeColor=#82b366;fillColor=#d5e8d4;align=left;verticalAlign=top;spacingLeft=4;spacingRight=4;overflow=hidden;rotatable=0;points=[[0,0.5],[1,0.5]];portConstraint=eastwest;whiteSpace=wrap;html=1;" vertex="1" parent="TVeIh7PDx6N5P01ksh86-37">
          <mxGeometry y="208" width="372" height="28" as="geometry" />
        </mxCell>
        <mxCell id="TVeIh7PDx6N5P01ksh86-46" value="" style="endArrow=diamondThin;endFill=1;endSize=24;html=1;rounded=0;fillColor=#ffe6cc;strokeColor=#d79b00;" edge="1" parent="WIyWlLk6GJQsqaUBKTNV-1">
          <mxGeometry width="160" relative="1" as="geometry">
            <mxPoint x="192" y="996" as="sourcePoint" />
            <mxPoint x="192" y="852" as="targetPoint" />
          </mxGeometry>
        </mxCell>
        <mxCell id="TVeIh7PDx6N5P01ksh86-47" value="" style="endArrow=diamondThin;endFill=1;endSize=24;html=1;rounded=0;fillColor=#ffe6cc;strokeColor=#d79b00;exitX=1.007;exitY=0.024;exitDx=0;exitDy=0;exitPerimeter=0;" edge="1" parent="WIyWlLk6GJQsqaUBKTNV-1" source="TVeIh7PDx6N5P01ksh86-42">
          <mxGeometry width="160" relative="1" as="geometry">
            <mxPoint x="-456" y="1038" as="sourcePoint" />
            <mxPoint x="-84" y="852" as="targetPoint" />
          </mxGeometry>
        </mxCell>
        <mxCell id="TVeIh7PDx6N5P01ksh86-48" value="&lt;font style=&quot;font-size: 14px;&quot;&gt;ReservationSystem&lt;/font&gt;" style="swimlane;fontStyle=1;align=center;verticalAlign=top;childLayout=stackLayout;horizontal=1;startSize=26;horizontalStack=0;resizeParent=1;resizeParentMax=0;resizeLast=0;collapsible=1;marginBottom=0;whiteSpace=wrap;html=1;fillColor=#ADDEFF;strokeColor=#007FFF;" vertex="1" parent="WIyWlLk6GJQsqaUBKTNV-1">
          <mxGeometry x="-780" y="1416" width="372" height="720" as="geometry" />
        </mxCell>
        <mxCell id="TVeIh7PDx6N5P01ksh86-58" value="- scanner : Scanner&lt;br&gt;&lt;div style=&quot;box-sizing: inherit; -webkit-tap-highlight-color: rgba(0, 0, 0, 0); pointer-events: all; position: absolute; inset-inline-end: 0px; display: flex; align-items: center; line-height: 1; padding: inherit; height: var(--messages-time-text-size); visibility: visible; color: var(--message-time-color); bottom: 4px; font-family: Roboto, -apple-system, &amp;quot;apple color emoji&amp;quot;, BlinkMacSystemFont, &amp;quot;Segoe UI&amp;quot;, Roboto, Oxygen-Sans, Ubuntu, Cantarell, &amp;quot;Helvetica Neue&amp;quot;, sans-serif; background-color: rgb(223, 255, 223);&quot; title=&quot;24 March 2024, 22:54:58&quot; class=&quot;time-inner&quot;&gt;&lt;/div&gt;&lt;span style=&quot;box-sizing: inherit; font-variant-numeric: normal; font-variant-east-asian: normal; font-variant-alternates: normal; font-variant-position: normal; line-height: var(--messages-time-text-size); -webkit-font-smoothing: antialiased; pointer-events: none; order: 5; font-size: calc(var(--messages-text-size) + 3px); color: var(--message-status-color); background-color: rgb(223, 255, 223); user-select: text !important; font-family: tgico !important;&quot; class=&quot;tgico time-sending-status&quot;&gt;&lt;/span&gt;&lt;span style=&quot;box-sizing: inherit; user-select: none; visibility: hidden; font-size: var(--messages-time-text-size); height: var(--messages-time-text-size); line-height: 1; vertical-align: middle; pointer-events: none; display: inline-flex; z-index: 1; cursor: pointer; direction: ltr; float: right; padding-inline-end: 6px; margin-inline-start: -3px;&quot; class=&quot;time&quot;&gt;&lt;/span&gt;" style="text;strokeColor=#007FFF;fillColor=#ADDEFF;align=left;verticalAlign=top;spacingLeft=4;spacingRight=4;overflow=hidden;rotatable=0;points=[[0,0.5],[1,0.5]];portConstraint=eastwest;whiteSpace=wrap;html=1;" vertex="1" parent="TVeIh7PDx6N5P01ksh86-48">
          <mxGeometry y="26" width="372" height="34" as="geometry" />
        </mxCell>
        <mxCell id="TVeIh7PDx6N5P01ksh86-49" value="- currentMovieLinkedList : MovieLinkedList&lt;br&gt;&lt;div style=&quot;box-sizing: inherit; -webkit-tap-highlight-color: rgba(0, 0, 0, 0); pointer-events: all; position: absolute; inset-inline-end: 0px; display: flex; align-items: center; line-height: 1; padding: inherit; height: var(--messages-time-text-size); visibility: visible; color: var(--message-time-color); bottom: 4px; font-family: Roboto, -apple-system, &amp;quot;apple color emoji&amp;quot;, BlinkMacSystemFont, &amp;quot;Segoe UI&amp;quot;, Roboto, Oxygen-Sans, Ubuntu, Cantarell, &amp;quot;Helvetica Neue&amp;quot;, sans-serif; background-color: rgb(223, 255, 223);&quot; title=&quot;24 March 2024, 22:54:58&quot; class=&quot;time-inner&quot;&gt;&lt;/div&gt;&lt;span style=&quot;box-sizing: inherit; font-variant-numeric: normal; font-variant-east-asian: normal; font-variant-alternates: normal; font-variant-position: normal; line-height: var(--messages-time-text-size); -webkit-font-smoothing: antialiased; pointer-events: none; order: 5; font-size: calc(var(--messages-text-size) + 3px); color: var(--message-status-color); background-color: rgb(223, 255, 223); user-select: text !important; font-family: tgico !important;&quot; class=&quot;tgico time-sending-status&quot;&gt;&lt;/span&gt;&lt;span style=&quot;box-sizing: inherit; user-select: none; visibility: hidden; font-size: var(--messages-time-text-size); height: var(--messages-time-text-size); line-height: 1; vertical-align: middle; pointer-events: none; display: inline-flex; z-index: 1; cursor: pointer; direction: ltr; float: right; padding-inline-end: 6px; margin-inline-start: -3px;&quot; class=&quot;time&quot;&gt;&lt;/span&gt;" style="text;strokeColor=#007FFF;fillColor=#ADDEFF;align=left;verticalAlign=top;spacingLeft=4;spacingRight=4;overflow=hidden;rotatable=0;points=[[0,0.5],[1,0.5]];portConstraint=eastwest;whiteSpace=wrap;html=1;" vertex="1" parent="TVeIh7PDx6N5P01ksh86-48">
          <mxGeometry y="60" width="372" height="34" as="geometry" />
        </mxCell>
        <mxCell id="TVeIh7PDx6N5P01ksh86-60" value="- currentShowtimesArray : ShowtimeArray&lt;br&gt;&lt;div style=&quot;box-sizing: inherit; -webkit-tap-highlight-color: rgba(0, 0, 0, 0); pointer-events: all; position: absolute; inset-inline-end: 0px; display: flex; align-items: center; line-height: 1; padding: inherit; height: var(--messages-time-text-size); visibility: visible; color: var(--message-time-color); bottom: 4px; font-family: Roboto, -apple-system, &amp;quot;apple color emoji&amp;quot;, BlinkMacSystemFont, &amp;quot;Segoe UI&amp;quot;, Roboto, Oxygen-Sans, Ubuntu, Cantarell, &amp;quot;Helvetica Neue&amp;quot;, sans-serif; background-color: rgb(223, 255, 223);&quot; title=&quot;24 March 2024, 22:54:58&quot; class=&quot;time-inner&quot;&gt;&lt;/div&gt;&lt;span style=&quot;box-sizing: inherit; font-variant-numeric: normal; font-variant-east-asian: normal; font-variant-alternates: normal; font-variant-position: normal; line-height: var(--messages-time-text-size); -webkit-font-smoothing: antialiased; pointer-events: none; order: 5; font-size: calc(var(--messages-text-size) + 3px); color: var(--message-status-color); background-color: rgb(223, 255, 223); user-select: text !important; font-family: tgico !important;&quot; class=&quot;tgico time-sending-status&quot;&gt;&lt;/span&gt;&lt;span style=&quot;box-sizing: inherit; user-select: none; visibility: hidden; font-size: var(--messages-time-text-size); height: var(--messages-time-text-size); line-height: 1; vertical-align: middle; pointer-events: none; display: inline-flex; z-index: 1; cursor: pointer; direction: ltr; float: right; padding-inline-end: 6px; margin-inline-start: -3px;&quot; class=&quot;time&quot;&gt;&lt;/span&gt;" style="text;strokeColor=#007FFF;fillColor=#ADDEFF;align=left;verticalAlign=top;spacingLeft=4;spacingRight=4;overflow=hidden;rotatable=0;points=[[0,0.5],[1,0.5]];portConstraint=eastwest;whiteSpace=wrap;html=1;" vertex="1" parent="TVeIh7PDx6N5P01ksh86-48">
          <mxGeometry y="94" width="372" height="34" as="geometry" />
        </mxCell>
        <mxCell id="TVeIh7PDx6N5P01ksh86-59" value="- cinemaHallMap: CinemaHallMap&lt;br&gt;&lt;div style=&quot;box-sizing: inherit; -webkit-tap-highlight-color: rgba(0, 0, 0, 0); pointer-events: all; position: absolute; inset-inline-end: 0px; display: flex; align-items: center; line-height: 1; padding: inherit; height: var(--messages-time-text-size); visibility: visible; color: var(--message-time-color); bottom: 4px; font-family: Roboto, -apple-system, &amp;quot;apple color emoji&amp;quot;, BlinkMacSystemFont, &amp;quot;Segoe UI&amp;quot;, Roboto, Oxygen-Sans, Ubuntu, Cantarell, &amp;quot;Helvetica Neue&amp;quot;, sans-serif; background-color: rgb(223, 255, 223);&quot; title=&quot;24 March 2024, 22:54:58&quot; class=&quot;time-inner&quot;&gt;&lt;/div&gt;&lt;span style=&quot;box-sizing: inherit; font-variant-numeric: normal; font-variant-east-asian: normal; font-variant-alternates: normal; font-variant-position: normal; line-height: var(--messages-time-text-size); -webkit-font-smoothing: antialiased; pointer-events: none; order: 5; font-size: calc(var(--messages-text-size) + 3px); color: var(--message-status-color); background-color: rgb(223, 255, 223); user-select: text !important; font-family: tgico !important;&quot; class=&quot;tgico time-sending-status&quot;&gt;&lt;/span&gt;&lt;span style=&quot;box-sizing: inherit; user-select: none; visibility: hidden; font-size: var(--messages-time-text-size); height: var(--messages-time-text-size); line-height: 1; vertical-align: middle; pointer-events: none; display: inline-flex; z-index: 1; cursor: pointer; direction: ltr; float: right; padding-inline-end: 6px; margin-inline-start: -3px;&quot; class=&quot;time&quot;&gt;&lt;/span&gt;" style="text;strokeColor=#007FFF;fillColor=#ADDEFF;align=left;verticalAlign=top;spacingLeft=4;spacingRight=4;overflow=hidden;rotatable=0;points=[[0,0.5],[1,0.5]];portConstraint=eastwest;whiteSpace=wrap;html=1;" vertex="1" parent="TVeIh7PDx6N5P01ksh86-48">
          <mxGeometry y="128" width="372" height="34" as="geometry" />
        </mxCell>
        <mxCell id="TVeIh7PDx6N5P01ksh86-62" value="- confirmedReservationsStack : ConfirmedReservationStack&lt;br&gt;&lt;div style=&quot;box-sizing: inherit; -webkit-tap-highlight-color: rgba(0, 0, 0, 0); pointer-events: all; position: absolute; inset-inline-end: 0px; display: flex; align-items: center; line-height: 1; padding: inherit; height: var(--messages-time-text-size); visibility: visible; color: var(--message-time-color); bottom: 4px; font-family: Roboto, -apple-system, &amp;quot;apple color emoji&amp;quot;, BlinkMacSystemFont, &amp;quot;Segoe UI&amp;quot;, Roboto, Oxygen-Sans, Ubuntu, Cantarell, &amp;quot;Helvetica Neue&amp;quot;, sans-serif; background-color: rgb(223, 255, 223);&quot; title=&quot;24 March 2024, 22:54:58&quot; class=&quot;time-inner&quot;&gt;&lt;/div&gt;&lt;span style=&quot;box-sizing: inherit; font-variant-numeric: normal; font-variant-east-asian: normal; font-variant-alternates: normal; font-variant-position: normal; line-height: var(--messages-time-text-size); -webkit-font-smoothing: antialiased; pointer-events: none; order: 5; font-size: calc(var(--messages-text-size) + 3px); color: var(--message-status-color); background-color: rgb(223, 255, 223); user-select: text !important; font-family: tgico !important;&quot; class=&quot;tgico time-sending-status&quot;&gt;&lt;/span&gt;&lt;span style=&quot;box-sizing: inherit; user-select: none; visibility: hidden; font-size: var(--messages-time-text-size); height: var(--messages-time-text-size); line-height: 1; vertical-align: middle; pointer-events: none; display: inline-flex; z-index: 1; cursor: pointer; direction: ltr; float: right; padding-inline-end: 6px; margin-inline-start: -3px;&quot; class=&quot;time&quot;&gt;&lt;/span&gt;" style="text;strokeColor=#007FFF;fillColor=#ADDEFF;align=left;verticalAlign=top;spacingLeft=4;spacingRight=4;overflow=hidden;rotatable=0;points=[[0,0.5],[1,0.5]];portConstraint=eastwest;whiteSpace=wrap;html=1;" vertex="1" parent="TVeIh7PDx6N5P01ksh86-48">
          <mxGeometry y="162" width="372" height="34" as="geometry" />
        </mxCell>
        <mxCell id="TVeIh7PDx6N5P01ksh86-61" value="- reservationRequestQueue : ReservationRequestQueue&lt;br&gt;&lt;div style=&quot;box-sizing: inherit; -webkit-tap-highlight-color: rgba(0, 0, 0, 0); pointer-events: all; position: absolute; inset-inline-end: 0px; display: flex; align-items: center; line-height: 1; padding: inherit; height: var(--messages-time-text-size); visibility: visible; color: var(--message-time-color); bottom: 4px; font-family: Roboto, -apple-system, &amp;quot;apple color emoji&amp;quot;, BlinkMacSystemFont, &amp;quot;Segoe UI&amp;quot;, Roboto, Oxygen-Sans, Ubuntu, Cantarell, &amp;quot;Helvetica Neue&amp;quot;, sans-serif; background-color: rgb(223, 255, 223);&quot; title=&quot;24 March 2024, 22:54:58&quot; class=&quot;time-inner&quot;&gt;&lt;/div&gt;&lt;span style=&quot;box-sizing: inherit; font-variant-numeric: normal; font-variant-east-asian: normal; font-variant-alternates: normal; font-variant-position: normal; line-height: var(--messages-time-text-size); -webkit-font-smoothing: antialiased; pointer-events: none; order: 5; font-size: calc(var(--messages-text-size) + 3px); color: var(--message-status-color); background-color: rgb(223, 255, 223); user-select: text !important; font-family: tgico !important;&quot; class=&quot;tgico time-sending-status&quot;&gt;&lt;/span&gt;&lt;span style=&quot;box-sizing: inherit; user-select: none; visibility: hidden; font-size: var(--messages-time-text-size); height: var(--messages-time-text-size); line-height: 1; vertical-align: middle; pointer-events: none; display: inline-flex; z-index: 1; cursor: pointer; direction: ltr; float: right; padding-inline-end: 6px; margin-inline-start: -3px;&quot; class=&quot;time&quot;&gt;&lt;/span&gt;" style="text;strokeColor=#007FFF;fillColor=#ADDEFF;align=left;verticalAlign=top;spacingLeft=4;spacingRight=4;overflow=hidden;rotatable=0;points=[[0,0.5],[1,0.5]];portConstraint=eastwest;whiteSpace=wrap;html=1;" vertex="1" parent="TVeIh7PDx6N5P01ksh86-48">
          <mxGeometry y="196" width="372" height="34" as="geometry" />
        </mxCell>
        <mxCell id="TVeIh7PDx6N5P01ksh86-63" value="- paymentStrategy : PaymentStrategy&lt;br&gt;&lt;div style=&quot;box-sizing: inherit; -webkit-tap-highlight-color: rgba(0, 0, 0, 0); pointer-events: all; position: absolute; inset-inline-end: 0px; display: flex; align-items: center; line-height: 1; padding: inherit; height: var(--messages-time-text-size); visibility: visible; color: var(--message-time-color); bottom: 4px; font-family: Roboto, -apple-system, &amp;quot;apple color emoji&amp;quot;, BlinkMacSystemFont, &amp;quot;Segoe UI&amp;quot;, Roboto, Oxygen-Sans, Ubuntu, Cantarell, &amp;quot;Helvetica Neue&amp;quot;, sans-serif; background-color: rgb(223, 255, 223);&quot; title=&quot;24 March 2024, 22:54:58&quot; class=&quot;time-inner&quot;&gt;&lt;/div&gt;&lt;span style=&quot;box-sizing: inherit; font-variant-numeric: normal; font-variant-east-asian: normal; font-variant-alternates: normal; font-variant-position: normal; line-height: var(--messages-time-text-size); -webkit-font-smoothing: antialiased; pointer-events: none; order: 5; font-size: calc(var(--messages-text-size) + 3px); color: var(--message-status-color); background-color: rgb(223, 255, 223); user-select: text !important; font-family: tgico !important;&quot; class=&quot;tgico time-sending-status&quot;&gt;&lt;/span&gt;&lt;span style=&quot;box-sizing: inherit; user-select: none; visibility: hidden; font-size: var(--messages-time-text-size); height: var(--messages-time-text-size); line-height: 1; vertical-align: middle; pointer-events: none; display: inline-flex; z-index: 1; cursor: pointer; direction: ltr; float: right; padding-inline-end: 6px; margin-inline-start: -3px;&quot; class=&quot;time&quot;&gt;&lt;/span&gt;" style="text;strokeColor=#007FFF;fillColor=#ADDEFF;align=left;verticalAlign=top;spacingLeft=4;spacingRight=4;overflow=hidden;rotatable=0;points=[[0,0.5],[1,0.5]];portConstraint=eastwest;whiteSpace=wrap;html=1;" vertex="1" parent="TVeIh7PDx6N5P01ksh86-48">
          <mxGeometry y="230" width="372" height="34" as="geometry" />
        </mxCell>
        <mxCell id="TVeIh7PDx6N5P01ksh86-50" value="" style="line;strokeWidth=1;fillColor=#d5e8d4;align=left;verticalAlign=middle;spacingTop=-1;spacingLeft=3;spacingRight=3;rotatable=0;labelPosition=right;points=[];portConstraint=eastwest;strokeColor=#82b366;" vertex="1" parent="TVeIh7PDx6N5P01ksh86-48">
          <mxGeometry y="264" width="372" height="8" as="geometry" />
        </mxCell>
        <mxCell id="TVeIh7PDx6N5P01ksh86-51" value="+ ReservationSystem()" style="text;strokeColor=#007FFF;fillColor=#ADDEFF;align=left;verticalAlign=top;spacingLeft=4;spacingRight=4;overflow=hidden;rotatable=0;points=[[0,0.5],[1,0.5]];portConstraint=eastwest;whiteSpace=wrap;html=1;" vertex="1" parent="TVeIh7PDx6N5P01ksh86-48">
          <mxGeometry y="272" width="372" height="28" as="geometry" />
        </mxCell>
        <mxCell id="TVeIh7PDx6N5P01ksh86-52" value="+ setPaymentStrategy(paymentStrategy: PaymentStrategy) : void" style="text;strokeColor=#007FFF;fillColor=#ADDEFF;align=left;verticalAlign=top;spacingLeft=4;spacingRight=4;overflow=hidden;rotatable=0;points=[[0,0.5],[1,0.5]];portConstraint=eastwest;whiteSpace=wrap;html=1;" vertex="1" parent="TVeIh7PDx6N5P01ksh86-48">
          <mxGeometry y="300" width="372" height="28" as="geometry" />
        </mxCell>
        <mxCell id="TVeIh7PDx6N5P01ksh86-53" value="- initializeSampleData() : void" style="text;strokeColor=#007FFF;fillColor=#ADDEFF;align=left;verticalAlign=top;spacingLeft=4;spacingRight=4;overflow=hidden;rotatable=0;points=[[0,0.5],[1,0.5]];portConstraint=eastwest;whiteSpace=wrap;html=1;" vertex="1" parent="TVeIh7PDx6N5P01ksh86-48">
          <mxGeometry y="328" width="372" height="28" as="geometry" />
        </mxCell>
        <mxCell id="TVeIh7PDx6N5P01ksh86-54" value="+ mainMenu() : void" style="text;strokeColor=#007FFF;fillColor=#ADDEFF;align=left;verticalAlign=top;spacingLeft=4;spacingRight=4;overflow=hidden;rotatable=0;points=[[0,0.5],[1,0.5]];portConstraint=eastwest;whiteSpace=wrap;html=1;" vertex="1" parent="TVeIh7PDx6N5P01ksh86-48">
          <mxGeometry y="356" width="372" height="28" as="geometry" />
        </mxCell>
        <mxCell id="TVeIh7PDx6N5P01ksh86-55" value="- clientBoard() : void" style="text;strokeColor=#007FFF;fillColor=#ADDEFF;align=left;verticalAlign=top;spacingLeft=4;spacingRight=4;overflow=hidden;rotatable=0;points=[[0,0.5],[1,0.5]];portConstraint=eastwest;whiteSpace=wrap;html=1;" vertex="1" parent="TVeIh7PDx6N5P01ksh86-48">
          <mxGeometry y="384" width="372" height="28" as="geometry" />
        </mxCell>
        <mxCell id="TVeIh7PDx6N5P01ksh86-56" value="- showAvailableMovies() : void" style="text;strokeColor=#007FFF;fillColor=#ADDEFF;align=left;verticalAlign=top;spacingLeft=4;spacingRight=4;overflow=hidden;rotatable=0;points=[[0,0.5],[1,0.5]];portConstraint=eastwest;whiteSpace=wrap;html=1;" vertex="1" parent="TVeIh7PDx6N5P01ksh86-48">
          <mxGeometry y="412" width="372" height="28" as="geometry" />
        </mxCell>
        <mxCell id="TVeIh7PDx6N5P01ksh86-64" value="- showShowtimes() : void" style="text;strokeColor=#007FFF;fillColor=#ADDEFF;align=left;verticalAlign=top;spacingLeft=4;spacingRight=4;overflow=hidden;rotatable=0;points=[[0,0.5],[1,0.5]];portConstraint=eastwest;whiteSpace=wrap;html=1;" vertex="1" parent="TVeIh7PDx6N5P01ksh86-48">
          <mxGeometry y="440" width="372" height="28" as="geometry" />
        </mxCell>
        <mxCell id="TVeIh7PDx6N5P01ksh86-65" value="- showHalls() : void" style="text;strokeColor=#007FFF;fillColor=#ADDEFF;align=left;verticalAlign=top;spacingLeft=4;spacingRight=4;overflow=hidden;rotatable=0;points=[[0,0.5],[1,0.5]];portConstraint=eastwest;whiteSpace=wrap;html=1;" vertex="1" parent="TVeIh7PDx6N5P01ksh86-48">
          <mxGeometry y="468" width="372" height="28" as="geometry" />
        </mxCell>
        <mxCell id="TVeIh7PDx6N5P01ksh86-66" value="- makeReservation() : void" style="text;strokeColor=#007FFF;fillColor=#ADDEFF;align=left;verticalAlign=top;spacingLeft=4;spacingRight=4;overflow=hidden;rotatable=0;points=[[0,0.5],[1,0.5]];portConstraint=eastwest;whiteSpace=wrap;html=1;" vertex="1" parent="TVeIh7PDx6N5P01ksh86-48">
          <mxGeometry y="496" width="372" height="28" as="geometry" />
        </mxCell>
        <mxCell id="TVeIh7PDx6N5P01ksh86-67" value="- generateTicket(showtime: Showtime) : Ticket" style="text;strokeColor=#007FFF;fillColor=#ADDEFF;align=left;verticalAlign=top;spacingLeft=4;spacingRight=4;overflow=hidden;rotatable=0;points=[[0,0.5],[1,0.5]];portConstraint=eastwest;whiteSpace=wrap;html=1;" vertex="1" parent="TVeIh7PDx6N5P01ksh86-48">
          <mxGeometry y="524" width="372" height="28" as="geometry" />
        </mxCell>
        <mxCell id="TVeIh7PDx6N5P01ksh86-68" value="- processPayment(amount: float) : boolean" style="text;strokeColor=#007FFF;fillColor=#ADDEFF;align=left;verticalAlign=top;spacingLeft=4;spacingRight=4;overflow=hidden;rotatable=0;points=[[0,0.5],[1,0.5]];portConstraint=eastwest;whiteSpace=wrap;html=1;" vertex="1" parent="TVeIh7PDx6N5P01ksh86-48">
          <mxGeometry y="552" width="372" height="28" as="geometry" />
        </mxCell>
        <mxCell id="TVeIh7PDx6N5P01ksh86-69" value="- checkout(amount:float) : void" style="text;strokeColor=#007FFF;fillColor=#ADDEFF;align=left;verticalAlign=top;spacingLeft=4;spacingRight=4;overflow=hidden;rotatable=0;points=[[0,0.5],[1,0.5]];portConstraint=eastwest;whiteSpace=wrap;html=1;" vertex="1" parent="TVeIh7PDx6N5P01ksh86-48">
          <mxGeometry y="580" width="372" height="28" as="geometry" />
        </mxCell>
        <mxCell id="TVeIh7PDx6N5P01ksh86-70" value="- employeeBoard() : void" style="text;strokeColor=#007FFF;fillColor=#ADDEFF;align=left;verticalAlign=top;spacingLeft=4;spacingRight=4;overflow=hidden;rotatable=0;points=[[0,0.5],[1,0.5]];portConstraint=eastwest;whiteSpace=wrap;html=1;" vertex="1" parent="TVeIh7PDx6N5P01ksh86-48">
          <mxGeometry y="608" width="372" height="28" as="geometry" />
        </mxCell>
        <mxCell id="TVeIh7PDx6N5P01ksh86-71" value="- showShowtimeManager() : void" style="text;strokeColor=#007FFF;fillColor=#ADDEFF;align=left;verticalAlign=top;spacingLeft=4;spacingRight=4;overflow=hidden;rotatable=0;points=[[0,0.5],[1,0.5]];portConstraint=eastwest;whiteSpace=wrap;html=1;" vertex="1" parent="TVeIh7PDx6N5P01ksh86-48">
          <mxGeometry y="636" width="372" height="28" as="geometry" />
        </mxCell>
        <mxCell id="TVeIh7PDx6N5P01ksh86-72" value="- showReservationManager() : void" style="text;strokeColor=#007FFF;fillColor=#ADDEFF;align=left;verticalAlign=top;spacingLeft=4;spacingRight=4;overflow=hidden;rotatable=0;points=[[0,0.5],[1,0.5]];portConstraint=eastwest;whiteSpace=wrap;html=1;" vertex="1" parent="TVeIh7PDx6N5P01ksh86-48">
          <mxGeometry y="664" width="372" height="28" as="geometry" />
        </mxCell>
        <mxCell id="TVeIh7PDx6N5P01ksh86-73" value="- makeRequestsManager() : void" style="text;strokeColor=#007FFF;fillColor=#ADDEFF;align=left;verticalAlign=top;spacingLeft=4;spacingRight=4;overflow=hidden;rotatable=0;points=[[0,0.5],[1,0.5]];portConstraint=eastwest;whiteSpace=wrap;html=1;" vertex="1" parent="TVeIh7PDx6N5P01ksh86-48">
          <mxGeometry y="692" width="372" height="28" as="geometry" />
        </mxCell>
        <mxCell id="TVeIh7PDx6N5P01ksh86-57" value="" style="endArrow=diamondThin;endFill=1;endSize=24;html=1;rounded=0;exitX=0.479;exitY=1.036;exitDx=0;exitDy=0;strokeColor=#007FFF;exitPerimeter=0;" edge="1" parent="WIyWlLk6GJQsqaUBKTNV-1" source="TVeIh7PDx6N5P01ksh86-45">
          <mxGeometry width="160" relative="1" as="geometry">
            <mxPoint x="-540" y="1302" as="sourcePoint" />
            <mxPoint x="-538.5569620253164" y="1416" as="targetPoint" />
          </mxGeometry>
        </mxCell>
        <mxCell id="TVeIh7PDx6N5P01ksh86-74" value="&lt;font style=&quot;font-size: 14px;&quot;&gt;ReservationRequestQueue&lt;/font&gt;" style="swimlane;fontStyle=1;align=center;verticalAlign=top;childLayout=stackLayout;horizontal=1;startSize=26;horizontalStack=0;resizeParent=1;resizeParentMax=0;resizeLast=0;collapsible=1;marginBottom=0;whiteSpace=wrap;html=1;fillColor=#d5e8d4;strokeColor=#82b366;" vertex="1" parent="WIyWlLk6GJQsqaUBKTNV-1">
          <mxGeometry x="-180" y="1536" width="372" height="292" as="geometry" />
        </mxCell>
        <mxCell id="TVeIh7PDx6N5P01ksh86-75" value="- reservationRequests : Queue&amp;lt;Reservation&amp;gt;&lt;br&gt;&lt;div style=&quot;box-sizing: inherit; -webkit-tap-highlight-color: rgba(0, 0, 0, 0); pointer-events: all; position: absolute; inset-inline-end: 0px; display: flex; align-items: center; line-height: 1; padding: inherit; height: var(--messages-time-text-size); visibility: visible; color: var(--message-time-color); bottom: 4px; font-family: Roboto, -apple-system, &amp;quot;apple color emoji&amp;quot;, BlinkMacSystemFont, &amp;quot;Segoe UI&amp;quot;, Roboto, Oxygen-Sans, Ubuntu, Cantarell, &amp;quot;Helvetica Neue&amp;quot;, sans-serif; background-color: rgb(223, 255, 223);&quot; title=&quot;24 March 2024, 22:54:58&quot; class=&quot;time-inner&quot;&gt;&lt;/div&gt;&lt;span style=&quot;box-sizing: inherit; font-variant-numeric: normal; font-variant-east-asian: normal; font-variant-alternates: normal; font-variant-position: normal; line-height: var(--messages-time-text-size); -webkit-font-smoothing: antialiased; pointer-events: none; order: 5; font-size: calc(var(--messages-text-size) + 3px); color: var(--message-status-color); background-color: rgb(223, 255, 223); user-select: text !important; font-family: tgico !important;&quot; class=&quot;tgico time-sending-status&quot;&gt;&lt;/span&gt;&lt;span style=&quot;box-sizing: inherit; user-select: none; visibility: hidden; font-size: var(--messages-time-text-size); height: var(--messages-time-text-size); line-height: 1; vertical-align: middle; pointer-events: none; display: inline-flex; z-index: 1; cursor: pointer; direction: ltr; float: right; padding-inline-end: 6px; margin-inline-start: -3px;&quot; class=&quot;time&quot;&gt;&lt;/span&gt;" style="text;strokeColor=#82b366;fillColor=#d5e8d4;align=left;verticalAlign=top;spacingLeft=4;spacingRight=4;overflow=hidden;rotatable=0;points=[[0,0.5],[1,0.5]];portConstraint=eastwest;whiteSpace=wrap;html=1;" vertex="1" parent="TVeIh7PDx6N5P01ksh86-74">
          <mxGeometry y="26" width="372" height="34" as="geometry" />
        </mxCell>
        <mxCell id="TVeIh7PDx6N5P01ksh86-76" value="" style="line;strokeWidth=1;fillColor=#d5e8d4;align=left;verticalAlign=middle;spacingTop=-1;spacingLeft=3;spacingRight=3;rotatable=0;labelPosition=right;points=[];portConstraint=eastwest;strokeColor=#82b366;" vertex="1" parent="TVeIh7PDx6N5P01ksh86-74">
          <mxGeometry y="60" width="372" height="8" as="geometry" />
        </mxCell>
        <mxCell id="TVeIh7PDx6N5P01ksh86-77" value="+ ReservationTequestQueue()" style="text;strokeColor=#82b366;fillColor=#d5e8d4;align=left;verticalAlign=top;spacingLeft=4;spacingRight=4;overflow=hidden;rotatable=0;points=[[0,0.5],[1,0.5]];portConstraint=eastwest;whiteSpace=wrap;html=1;" vertex="1" parent="TVeIh7PDx6N5P01ksh86-74">
          <mxGeometry y="68" width="372" height="28" as="geometry" />
        </mxCell>
        <mxCell id="TVeIh7PDx6N5P01ksh86-78" value="+ enqueueReservation(reservation: Reservation) : void" style="text;strokeColor=#82b366;fillColor=#d5e8d4;align=left;verticalAlign=top;spacingLeft=4;spacingRight=4;overflow=hidden;rotatable=0;points=[[0,0.5],[1,0.5]];portConstraint=eastwest;whiteSpace=wrap;html=1;" vertex="1" parent="TVeIh7PDx6N5P01ksh86-74">
          <mxGeometry y="96" width="372" height="28" as="geometry" />
        </mxCell>
        <mxCell id="TVeIh7PDx6N5P01ksh86-79" value="+ dequeueReservation(reservation: Reservation) : void" style="text;strokeColor=#82b366;fillColor=#d5e8d4;align=left;verticalAlign=top;spacingLeft=4;spacingRight=4;overflow=hidden;rotatable=0;points=[[0,0.5],[1,0.5]];portConstraint=eastwest;whiteSpace=wrap;html=1;" vertex="1" parent="TVeIh7PDx6N5P01ksh86-74">
          <mxGeometry y="124" width="372" height="28" as="geometry" />
        </mxCell>
        <mxCell id="TVeIh7PDx6N5P01ksh86-80" value="+ confirmReservation() : Reservation" style="text;strokeColor=#82b366;fillColor=#d5e8d4;align=left;verticalAlign=top;spacingLeft=4;spacingRight=4;overflow=hidden;rotatable=0;points=[[0,0.5],[1,0.5]];portConstraint=eastwest;whiteSpace=wrap;html=1;" vertex="1" parent="TVeIh7PDx6N5P01ksh86-74">
          <mxGeometry y="152" width="372" height="28" as="geometry" />
        </mxCell>
        <mxCell id="TVeIh7PDx6N5P01ksh86-81" value="+ rejectReservation() : Reservation" style="text;strokeColor=#82b366;fillColor=#d5e8d4;align=left;verticalAlign=top;spacingLeft=4;spacingRight=4;overflow=hidden;rotatable=0;points=[[0,0.5],[1,0.5]];portConstraint=eastwest;whiteSpace=wrap;html=1;" vertex="1" parent="TVeIh7PDx6N5P01ksh86-74">
          <mxGeometry y="180" width="372" height="28" as="geometry" />
        </mxCell>
        <mxCell id="TVeIh7PDx6N5P01ksh86-82" value="+ confirmAllReservations() : Stack&amp;lt;Reservation&amp;gt;" style="text;strokeColor=#82b366;fillColor=#d5e8d4;align=left;verticalAlign=top;spacingLeft=4;spacingRight=4;overflow=hidden;rotatable=0;points=[[0,0.5],[1,0.5]];portConstraint=eastwest;whiteSpace=wrap;html=1;" vertex="1" parent="TVeIh7PDx6N5P01ksh86-74">
          <mxGeometry y="208" width="372" height="28" as="geometry" />
        </mxCell>
        <mxCell id="TVeIh7PDx6N5P01ksh86-83" value="+ rejectAllReservations() : Stack&amp;lt;Reservation&amp;gt;" style="text;strokeColor=#82b366;fillColor=#d5e8d4;align=left;verticalAlign=top;spacingLeft=4;spacingRight=4;overflow=hidden;rotatable=0;points=[[0,0.5],[1,0.5]];portConstraint=eastwest;whiteSpace=wrap;html=1;" vertex="1" parent="TVeIh7PDx6N5P01ksh86-74">
          <mxGeometry y="236" width="372" height="28" as="geometry" />
        </mxCell>
        <mxCell id="TVeIh7PDx6N5P01ksh86-84" value="+ displayAll() : boolean" style="text;strokeColor=#82b366;fillColor=#d5e8d4;align=left;verticalAlign=top;spacingLeft=4;spacingRight=4;overflow=hidden;rotatable=0;points=[[0,0.5],[1,0.5]];portConstraint=eastwest;whiteSpace=wrap;html=1;" vertex="1" parent="TVeIh7PDx6N5P01ksh86-74">
          <mxGeometry y="264" width="372" height="28" as="geometry" />
        </mxCell>
        <mxCell id="TVeIh7PDx6N5P01ksh86-85" value="" style="endArrow=diamondThin;endFill=1;endSize=24;html=1;rounded=0;entryX=1;entryY=0.5;entryDx=0;entryDy=0;exitX=-0.002;exitY=0.236;exitDx=0;exitDy=0;exitPerimeter=0;strokeColor=#007FFF;" edge="1" parent="WIyWlLk6GJQsqaUBKTNV-1" source="TVeIh7PDx6N5P01ksh86-78">
          <mxGeometry width="160" relative="1" as="geometry">
            <mxPoint x="12" y="1632" as="sourcePoint" />
            <mxPoint x="-408" y="1638.9999999999995" as="targetPoint" />
          </mxGeometry>
        </mxCell>
        <mxCell id="TVeIh7PDx6N5P01ksh86-90" value="" style="endArrow=diamondThin;endFill=1;endSize=24;html=1;rounded=0;entryX=1;entryY=0.5;entryDx=0;entryDy=0;exitX=-0.002;exitY=0.236;exitDx=0;exitDy=0;exitPerimeter=0;strokeColor=#007FFF;" edge="1" parent="WIyWlLk6GJQsqaUBKTNV-1">
          <mxGeometry width="160" relative="1" as="geometry">
            <mxPoint x="-181" y="1921" as="sourcePoint" />
            <mxPoint x="-408" y="1921" as="targetPoint" />
          </mxGeometry>
        </mxCell>
        <mxCell id="TVeIh7PDx6N5P01ksh86-91" value="" style="endArrow=diamondThin;endFill=1;endSize=24;html=1;rounded=0;exitX=0.482;exitY=-0.01;exitDx=0;exitDy=0;exitPerimeter=0;strokeColor=#007FFF;" edge="1" parent="WIyWlLk6GJQsqaUBKTNV-1" source="l1CnS8K0yS2sGFDzK0tB-40">
          <mxGeometry width="160" relative="1" as="geometry">
            <mxPoint x="-505" y="2220" as="sourcePoint" />
            <mxPoint x="-600" y="2136" as="targetPoint" />
          </mxGeometry>
        </mxCell>
        <mxCell id="TVeIh7PDx6N5P01ksh86-98" value="&lt;font style=&quot;font-size: 14px;&quot;&gt;MovieLinkedList&lt;/font&gt;" style="swimlane;fontStyle=1;align=center;verticalAlign=top;childLayout=stackLayout;horizontal=1;startSize=26;horizontalStack=0;resizeParent=1;resizeParentMax=0;resizeLast=0;collapsible=1;marginBottom=0;whiteSpace=wrap;html=1;fillColor=#d5e8d4;strokeColor=#82b366;" vertex="1" parent="WIyWlLk6GJQsqaUBKTNV-1">
          <mxGeometry x="-180" y="2094" width="372" height="264" as="geometry" />
        </mxCell>
        <mxCell id="TVeIh7PDx6N5P01ksh86-99" value="- movies : LinkedList&amp;lt;Movie&amp;gt;&lt;br&gt;&lt;div style=&quot;box-sizing: inherit; -webkit-tap-highlight-color: rgba(0, 0, 0, 0); pointer-events: all; position: absolute; inset-inline-end: 0px; display: flex; align-items: center; line-height: 1; padding: inherit; height: var(--messages-time-text-size); visibility: visible; color: var(--message-time-color); bottom: 4px; font-family: Roboto, -apple-system, &amp;quot;apple color emoji&amp;quot;, BlinkMacSystemFont, &amp;quot;Segoe UI&amp;quot;, Roboto, Oxygen-Sans, Ubuntu, Cantarell, &amp;quot;Helvetica Neue&amp;quot;, sans-serif; background-color: rgb(223, 255, 223);&quot; title=&quot;24 March 2024, 22:54:58&quot; class=&quot;time-inner&quot;&gt;&lt;/div&gt;&lt;span style=&quot;box-sizing: inherit; font-variant-numeric: normal; font-variant-east-asian: normal; font-variant-alternates: normal; font-variant-position: normal; line-height: var(--messages-time-text-size); -webkit-font-smoothing: antialiased; pointer-events: none; order: 5; font-size: calc(var(--messages-text-size) + 3px); color: var(--message-status-color); background-color: rgb(223, 255, 223); user-select: text !important; font-family: tgico !important;&quot; class=&quot;tgico time-sending-status&quot;&gt;&lt;/span&gt;&lt;span style=&quot;box-sizing: inherit; user-select: none; visibility: hidden; font-size: var(--messages-time-text-size); height: var(--messages-time-text-size); line-height: 1; vertical-align: middle; pointer-events: none; display: inline-flex; z-index: 1; cursor: pointer; direction: ltr; float: right; padding-inline-end: 6px; margin-inline-start: -3px;&quot; class=&quot;time&quot;&gt;&lt;/span&gt;" style="text;strokeColor=#82b366;fillColor=#d5e8d4;align=left;verticalAlign=top;spacingLeft=4;spacingRight=4;overflow=hidden;rotatable=0;points=[[0,0.5],[1,0.5]];portConstraint=eastwest;whiteSpace=wrap;html=1;" vertex="1" parent="TVeIh7PDx6N5P01ksh86-98">
          <mxGeometry y="26" width="372" height="34" as="geometry" />
        </mxCell>
        <mxCell id="TVeIh7PDx6N5P01ksh86-102" value="" style="line;strokeWidth=1;fillColor=#d5e8d4;align=left;verticalAlign=middle;spacingTop=-1;spacingLeft=3;spacingRight=3;rotatable=0;labelPosition=right;points=[];portConstraint=eastwest;strokeColor=#82b366;" vertex="1" parent="TVeIh7PDx6N5P01ksh86-98">
          <mxGeometry y="60" width="372" height="8" as="geometry" />
        </mxCell>
        <mxCell id="TVeIh7PDx6N5P01ksh86-103" value="+ MovieLinkedList()" style="text;strokeColor=#82b366;fillColor=#d5e8d4;align=left;verticalAlign=top;spacingLeft=4;spacingRight=4;overflow=hidden;rotatable=0;points=[[0,0.5],[1,0.5]];portConstraint=eastwest;whiteSpace=wrap;html=1;" vertex="1" parent="TVeIh7PDx6N5P01ksh86-98">
          <mxGeometry y="68" width="372" height="28" as="geometry" />
        </mxCell>
        <mxCell id="TVeIh7PDx6N5P01ksh86-104" value="+ getMovies() : LinkedList&amp;lt;Movie&amp;gt;" style="text;strokeColor=#82b366;fillColor=#d5e8d4;align=left;verticalAlign=top;spacingLeft=4;spacingRight=4;overflow=hidden;rotatable=0;points=[[0,0.5],[1,0.5]];portConstraint=eastwest;whiteSpace=wrap;html=1;" vertex="1" parent="TVeIh7PDx6N5P01ksh86-98">
          <mxGeometry y="96" width="372" height="28" as="geometry" />
        </mxCell>
        <mxCell id="TVeIh7PDx6N5P01ksh86-105" value="+ addMovie(movie: Movie) : void" style="text;strokeColor=#82b366;fillColor=#d5e8d4;align=left;verticalAlign=top;spacingLeft=4;spacingRight=4;overflow=hidden;rotatable=0;points=[[0,0.5],[1,0.5]];portConstraint=eastwest;whiteSpace=wrap;html=1;" vertex="1" parent="TVeIh7PDx6N5P01ksh86-98">
          <mxGeometry y="124" width="372" height="28" as="geometry" />
        </mxCell>
        <mxCell id="TVeIh7PDx6N5P01ksh86-106" value="+ removeMovie(movie: Movie) : void" style="text;strokeColor=#82b366;fillColor=#d5e8d4;align=left;verticalAlign=top;spacingLeft=4;spacingRight=4;overflow=hidden;rotatable=0;points=[[0,0.5],[1,0.5]];portConstraint=eastwest;whiteSpace=wrap;html=1;" vertex="1" parent="TVeIh7PDx6N5P01ksh86-98">
          <mxGeometry y="152" width="372" height="28" as="geometry" />
        </mxCell>
        <mxCell id="TVeIh7PDx6N5P01ksh86-107" value="+ searchMovie(title: String) : Movie" style="text;strokeColor=#82b366;fillColor=#d5e8d4;align=left;verticalAlign=top;spacingLeft=4;spacingRight=4;overflow=hidden;rotatable=0;points=[[0,0.5],[1,0.5]];portConstraint=eastwest;whiteSpace=wrap;html=1;" vertex="1" parent="TVeIh7PDx6N5P01ksh86-98">
          <mxGeometry y="180" width="372" height="28" as="geometry" />
        </mxCell>
        <mxCell id="TVeIh7PDx6N5P01ksh86-108" value="+ displayMovies() : void" style="text;strokeColor=#82b366;fillColor=#d5e8d4;align=left;verticalAlign=top;spacingLeft=4;spacingRight=4;overflow=hidden;rotatable=0;points=[[0,0.5],[1,0.5]];portConstraint=eastwest;whiteSpace=wrap;html=1;" vertex="1" parent="TVeIh7PDx6N5P01ksh86-98">
          <mxGeometry y="208" width="372" height="28" as="geometry" />
        </mxCell>
        <mxCell id="TVeIh7PDx6N5P01ksh86-112" value="+ displayTitles() : void" style="text;strokeColor=#82b366;fillColor=#d5e8d4;align=left;verticalAlign=top;spacingLeft=4;spacingRight=4;overflow=hidden;rotatable=0;points=[[0,0.5],[1,0.5]];portConstraint=eastwest;whiteSpace=wrap;html=1;" vertex="1" parent="TVeIh7PDx6N5P01ksh86-98">
          <mxGeometry y="236" width="372" height="28" as="geometry" />
        </mxCell>
        <mxCell id="TVeIh7PDx6N5P01ksh86-114" value="&lt;font style=&quot;font-size: 14px;&quot;&gt;CreditCardPayment&lt;/font&gt;" style="swimlane;fontStyle=1;align=center;verticalAlign=top;childLayout=stackLayout;horizontal=1;startSize=26;horizontalStack=0;resizeParent=1;resizeParentMax=0;resizeLast=0;collapsible=1;marginBottom=0;whiteSpace=wrap;html=1;fillColor=#f8cecc;strokeColor=#b85450;" vertex="1" parent="WIyWlLk6GJQsqaUBKTNV-1">
          <mxGeometry x="-1440" y="2028" width="312" height="158" as="geometry" />
        </mxCell>
        <mxCell id="TVeIh7PDx6N5P01ksh86-115" value="- cardNumber: int&lt;br&gt;&lt;div style=&quot;box-sizing: inherit; -webkit-tap-highlight-color: rgba(0, 0, 0, 0); pointer-events: all; position: absolute; inset-inline-end: 0px; display: flex; align-items: center; line-height: 1; padding: inherit; height: var(--messages-time-text-size); visibility: visible; color: var(--message-time-color); bottom: 4px; font-family: Roboto, -apple-system, &amp;quot;apple color emoji&amp;quot;, BlinkMacSystemFont, &amp;quot;Segoe UI&amp;quot;, Roboto, Oxygen-Sans, Ubuntu, Cantarell, &amp;quot;Helvetica Neue&amp;quot;, sans-serif; background-color: rgb(223, 255, 223);&quot; title=&quot;24 March 2024, 22:54:58&quot; class=&quot;time-inner&quot;&gt;&lt;/div&gt;&lt;span style=&quot;box-sizing: inherit; font-variant-numeric: normal; font-variant-east-asian: normal; font-variant-alternates: normal; font-variant-position: normal; line-height: var(--messages-time-text-size); -webkit-font-smoothing: antialiased; pointer-events: none; order: 5; font-size: calc(var(--messages-text-size) + 3px); color: var(--message-status-color); background-color: rgb(223, 255, 223); user-select: text !important; font-family: tgico !important;&quot; class=&quot;tgico time-sending-status&quot;&gt;&lt;/span&gt;&lt;span style=&quot;box-sizing: inherit; user-select: none; visibility: hidden; font-size: var(--messages-time-text-size); height: var(--messages-time-text-size); line-height: 1; vertical-align: middle; pointer-events: none; display: inline-flex; z-index: 1; cursor: pointer; direction: ltr; float: right; padding-inline-end: 6px; margin-inline-start: -3px;&quot; class=&quot;time&quot;&gt;&lt;/span&gt;" style="text;strokeColor=#b85450;fillColor=#f8cecc;align=left;verticalAlign=top;spacingLeft=4;spacingRight=4;overflow=hidden;rotatable=0;points=[[0,0.5],[1,0.5]];portConstraint=eastwest;whiteSpace=wrap;html=1;" vertex="1" parent="TVeIh7PDx6N5P01ksh86-114">
          <mxGeometry y="26" width="312" height="34" as="geometry" />
        </mxCell>
        <mxCell id="TVeIh7PDx6N5P01ksh86-116" value="- name: String&lt;br&gt;&lt;div style=&quot;box-sizing: inherit; -webkit-tap-highlight-color: rgba(0, 0, 0, 0); pointer-events: all; position: absolute; inset-inline-end: 0px; display: flex; align-items: center; line-height: 1; padding: inherit; height: var(--messages-time-text-size); visibility: visible; color: var(--message-time-color); bottom: 4px; font-family: Roboto, -apple-system, &amp;quot;apple color emoji&amp;quot;, BlinkMacSystemFont, &amp;quot;Segoe UI&amp;quot;, Roboto, Oxygen-Sans, Ubuntu, Cantarell, &amp;quot;Helvetica Neue&amp;quot;, sans-serif; background-color: rgb(223, 255, 223);&quot; title=&quot;24 March 2024, 22:54:58&quot; class=&quot;time-inner&quot;&gt;&lt;/div&gt;&lt;span style=&quot;box-sizing: inherit; font-variant-numeric: normal; font-variant-east-asian: normal; font-variant-alternates: normal; font-variant-position: normal; line-height: var(--messages-time-text-size); -webkit-font-smoothing: antialiased; pointer-events: none; order: 5; font-size: calc(var(--messages-text-size) + 3px); color: var(--message-status-color); background-color: rgb(223, 255, 223); user-select: text !important; font-family: tgico !important;&quot; class=&quot;tgico time-sending-status&quot;&gt;&lt;/span&gt;&lt;span style=&quot;box-sizing: inherit; user-select: none; visibility: hidden; font-size: var(--messages-time-text-size); height: var(--messages-time-text-size); line-height: 1; vertical-align: middle; pointer-events: none; display: inline-flex; z-index: 1; cursor: pointer; direction: ltr; float: right; padding-inline-end: 6px; margin-inline-start: -3px;&quot; class=&quot;time&quot;&gt;&lt;/span&gt;" style="text;strokeColor=#b85450;fillColor=#f8cecc;align=left;verticalAlign=top;spacingLeft=4;spacingRight=4;overflow=hidden;rotatable=0;points=[[0,0.5],[1,0.5]];portConstraint=eastwest;whiteSpace=wrap;html=1;" vertex="1" parent="TVeIh7PDx6N5P01ksh86-114">
          <mxGeometry y="60" width="312" height="34" as="geometry" />
        </mxCell>
        <mxCell id="TVeIh7PDx6N5P01ksh86-117" value="" style="line;strokeWidth=1;fillColor=#f8cecc;align=left;verticalAlign=middle;spacingTop=-1;spacingLeft=3;spacingRight=3;rotatable=0;labelPosition=right;points=[];portConstraint=eastwest;strokeColor=#b85450;" vertex="1" parent="TVeIh7PDx6N5P01ksh86-114">
          <mxGeometry y="94" width="312" height="8" as="geometry" />
        </mxCell>
        <mxCell id="TVeIh7PDx6N5P01ksh86-118" value="+ CreditCardPayment(cardNumber: int, name: String)" style="text;strokeColor=#b85450;fillColor=#f8cecc;align=left;verticalAlign=top;spacingLeft=4;spacingRight=4;overflow=hidden;rotatable=0;points=[[0,0.5],[1,0.5]];portConstraint=eastwest;whiteSpace=wrap;html=1;" vertex="1" parent="TVeIh7PDx6N5P01ksh86-114">
          <mxGeometry y="102" width="312" height="28" as="geometry" />
        </mxCell>
        <mxCell id="TVeIh7PDx6N5P01ksh86-119" value="+ pay(amount: float) : void" style="text;strokeColor=#b85450;fillColor=#f8cecc;align=left;verticalAlign=top;spacingLeft=4;spacingRight=4;overflow=hidden;rotatable=0;points=[[0,0.5],[1,0.5]];portConstraint=eastwest;whiteSpace=wrap;html=1;" vertex="1" parent="TVeIh7PDx6N5P01ksh86-114">
          <mxGeometry y="130" width="312" height="28" as="geometry" />
        </mxCell>
        <mxCell id="TVeIh7PDx6N5P01ksh86-120" value="" style="endArrow=block;dashed=1;endFill=0;endSize=12;html=1;rounded=0;fontFamily=Helvetica;fontSize=12;fontColor=default;exitX=0.474;exitY=-0.032;exitDx=0;exitDy=0;exitPerimeter=0;fillColor=#f8cecc;strokeColor=#1A1A1A;entryX=0.5;entryY=1;entryDx=0;entryDy=0;" edge="1" parent="WIyWlLk6GJQsqaUBKTNV-1" source="TVeIh7PDx6N5P01ksh86-114" target="t_dCJZUFcFcYUfNnIZYs-5">
          <mxGeometry width="160" relative="1" as="geometry">
            <mxPoint x="-1128" y="1860" as="sourcePoint" />
            <mxPoint x="-1152" y="1812" as="targetPoint" />
          </mxGeometry>
        </mxCell>
        <mxCell id="TVeIh7PDx6N5P01ksh86-127" value="" style="endArrow=block;dashed=1;endFill=0;endSize=12;html=1;rounded=0;fontFamily=Helvetica;fontSize=12;fontColor=default;fillColor=#f8cecc;strokeColor=#1A1A1A;entryX=0.5;entryY=0;entryDx=0;entryDy=0;" edge="1" parent="WIyWlLk6GJQsqaUBKTNV-1" source="TVeIh7PDx6N5P01ksh86-113" target="t_dCJZUFcFcYUfNnIZYs-5">
          <mxGeometry width="160" relative="1" as="geometry">
            <mxPoint x="-1092" y="2124" as="sourcePoint" />
            <mxPoint x="-1294" y="1836" as="targetPoint" />
          </mxGeometry>
        </mxCell>
        <mxCell id="TVeIh7PDx6N5P01ksh86-131" value="&lt;font style=&quot;font-size: 14px;&quot;&gt;&amp;lt;&amp;lt;enumeration&amp;gt;&amp;gt; SeatStatus&amp;nbsp;&lt;/font&gt;" style="swimlane;fontStyle=1;align=center;verticalAlign=top;childLayout=stackLayout;horizontal=1;startSize=26;horizontalStack=0;resizeParent=1;resizeParentMax=0;resizeLast=0;collapsible=1;marginBottom=0;whiteSpace=wrap;html=1;fillColor=#E1D5E7;strokeColor=#9673A6;" vertex="1" parent="WIyWlLk6GJQsqaUBKTNV-1">
          <mxGeometry x="-696" y="-168" width="312" height="108" as="geometry" />
        </mxCell>
        <mxCell id="TVeIh7PDx6N5P01ksh86-132" value="&lt;div&gt;&lt;br&gt;&lt;/div&gt;&lt;div&gt;AVAILABLE&lt;/div&gt;&lt;div&gt;BOOKED&lt;/div&gt;&lt;div&gt;UNAVAILABLE&lt;/div&gt;" style="text;strokeColor=#9673A6;fillColor=#E1D5E7;align=left;verticalAlign=top;spacingLeft=4;spacingRight=4;overflow=hidden;rotatable=0;points=[[0,0.5],[1,0.5]];portConstraint=eastwest;whiteSpace=wrap;html=1;" vertex="1" parent="TVeIh7PDx6N5P01ksh86-131">
          <mxGeometry y="26" width="312" height="82" as="geometry" />
        </mxCell>
        <mxCell id="TVeIh7PDx6N5P01ksh86-134" value="" style="rounded=1;whiteSpace=wrap;html=1;strokeWidth=2;fillWeight=4;hachureGap=8;hachureAngle=45;fillColor=#ADDEFF;sketch=1;strokeColor=#d79b00;align=left;verticalAlign=top;spacingLeft=4;spacingRight=4;fontFamily=Helvetica;fontSize=12;fontColor=default;" vertex="1" parent="WIyWlLk6GJQsqaUBKTNV-1">
          <mxGeometry x="-1908" y="-660" width="120" height="60" as="geometry" />
        </mxCell>
        <mxCell id="TVeIh7PDx6N5P01ksh86-135" value="&lt;font style=&quot;font-size: 18px;&quot;&gt;UTIL = 1&lt;/font&gt;" style="text;strokeColor=none;fillColor=none;html=1;fontSize=12;fontStyle=1;verticalAlign=middle;align=center;fontFamily=Helvetica;fontColor=default;" vertex="1" parent="WIyWlLk6GJQsqaUBKTNV-1">
          <mxGeometry x="-1768" y="-650" width="124" height="38" as="geometry" />
        </mxCell>
        <mxCell id="TVeIh7PDx6N5P01ksh86-136" value="" style="rounded=1;whiteSpace=wrap;html=1;strokeWidth=2;fillWeight=4;hachureGap=8;hachureAngle=45;fillColor=#E1D5E7;sketch=1;strokeColor=#d79b00;align=left;verticalAlign=top;spacingLeft=4;spacingRight=4;fontFamily=Helvetica;fontSize=12;fontColor=default;" vertex="1" parent="WIyWlLk6GJQsqaUBKTNV-1">
          <mxGeometry x="-1908" y="-552" width="120" height="60" as="geometry" />
        </mxCell>
        <mxCell id="TVeIh7PDx6N5P01ksh86-137" value="&lt;font style=&quot;font-size: 18px;&quot;&gt;ENUMERATION = 2&lt;/font&gt;" style="text;strokeColor=none;fillColor=none;html=1;fontSize=12;fontStyle=1;verticalAlign=middle;align=center;fontFamily=Helvetica;fontColor=default;" vertex="1" parent="WIyWlLk6GJQsqaUBKTNV-1">
          <mxGeometry x="-1776" y="-541" width="216" height="38" as="geometry" />
        </mxCell>
        <mxCell id="TVeIh7PDx6N5P01ksh86-138" value="" style="rounded=1;whiteSpace=wrap;html=1;strokeWidth=2;fillWeight=4;hachureGap=8;hachureAngle=45;fillColor=#D5E8D4;sketch=1;strokeColor=#d79b00;align=left;verticalAlign=top;spacingLeft=4;spacingRight=4;fontFamily=Helvetica;fontSize=12;fontColor=default;" vertex="1" parent="WIyWlLk6GJQsqaUBKTNV-1">
          <mxGeometry x="-1908" y="-444" width="120" height="60" as="geometry" />
        </mxCell>
        <mxCell id="TVeIh7PDx6N5P01ksh86-139" value="&lt;font style=&quot;font-size: 18px;&quot;&gt;DATA STRUCTURE = 6&lt;/font&gt;" style="text;strokeColor=none;fillColor=none;html=1;fontSize=12;fontStyle=1;verticalAlign=middle;align=center;fontFamily=Helvetica;fontColor=default;" vertex="1" parent="WIyWlLk6GJQsqaUBKTNV-1">
          <mxGeometry x="-1768" y="-434" width="220" height="50" as="geometry" />
        </mxCell>
        <mxCell id="TVeIh7PDx6N5P01ksh86-140" value="" style="rounded=1;whiteSpace=wrap;html=1;strokeWidth=2;fillWeight=4;hachureGap=8;hachureAngle=45;fillColor=#FFE6CC;sketch=1;strokeColor=#d79b00;align=left;verticalAlign=top;spacingLeft=4;spacingRight=4;fontFamily=Helvetica;fontSize=12;fontColor=default;" vertex="1" parent="WIyWlLk6GJQsqaUBKTNV-1">
          <mxGeometry x="-1908" y="-336" width="120" height="60" as="geometry" />
        </mxCell>
        <mxCell id="TVeIh7PDx6N5P01ksh86-141" value="&lt;font style=&quot;font-size: 18px;&quot;&gt;MODEL = 6&lt;/font&gt;" style="text;strokeColor=none;fillColor=none;html=1;fontSize=12;fontStyle=1;verticalAlign=middle;align=center;fontFamily=Helvetica;fontColor=default;" vertex="1" parent="WIyWlLk6GJQsqaUBKTNV-1">
          <mxGeometry x="-1768" y="-326" width="124" height="38" as="geometry" />
        </mxCell>
        <mxCell id="TVeIh7PDx6N5P01ksh86-142" value="" style="rounded=1;whiteSpace=wrap;html=1;strokeWidth=2;fillWeight=4;hachureGap=8;hachureAngle=45;fillColor=#F8CECC;sketch=1;strokeColor=#d79b00;align=left;verticalAlign=top;spacingLeft=4;spacingRight=4;fontFamily=Helvetica;fontSize=12;fontColor=default;" vertex="1" parent="WIyWlLk6GJQsqaUBKTNV-1">
          <mxGeometry x="-1908" y="-228" width="120" height="60" as="geometry" />
        </mxCell>
        <mxCell id="TVeIh7PDx6N5P01ksh86-143" value="&lt;font style=&quot;font-size: 18px;&quot;&gt;FEATURES = 4&lt;/font&gt;" style="text;strokeColor=none;fillColor=none;html=1;fontSize=12;fontStyle=1;verticalAlign=middle;align=center;fontFamily=Helvetica;fontColor=default;" vertex="1" parent="WIyWlLk6GJQsqaUBKTNV-1">
          <mxGeometry x="-1768" y="-218" width="124" height="38" as="geometry" />
        </mxCell>
        <mxCell id="TVeIh7PDx6N5P01ksh86-144" value="&lt;span style=&quot;font-size: 14px;&quot;&gt;RatingsAndComments&lt;/span&gt;" style="swimlane;fontStyle=1;align=center;verticalAlign=top;childLayout=stackLayout;horizontal=1;startSize=26;horizontalStack=0;resizeParent=1;resizeParentMax=0;resizeLast=0;collapsible=1;marginBottom=0;whiteSpace=wrap;html=1;fillColor=#d5e8d4;strokeColor=#82b366;" vertex="1" parent="WIyWlLk6GJQsqaUBKTNV-1">
          <mxGeometry x="1128" y="2342" width="372" height="264" as="geometry" />
        </mxCell>
        <mxCell id="TVeIh7PDx6N5P01ksh86-145" value="- movies : LinkedList&amp;lt;Movie&amp;gt;&lt;br&gt;&lt;div style=&quot;box-sizing: inherit; -webkit-tap-highlight-color: rgba(0, 0, 0, 0); pointer-events: all; position: absolute; inset-inline-end: 0px; display: flex; align-items: center; line-height: 1; padding: inherit; height: var(--messages-time-text-size); visibility: visible; color: var(--message-time-color); bottom: 4px; font-family: Roboto, -apple-system, &amp;quot;apple color emoji&amp;quot;, BlinkMacSystemFont, &amp;quot;Segoe UI&amp;quot;, Roboto, Oxygen-Sans, Ubuntu, Cantarell, &amp;quot;Helvetica Neue&amp;quot;, sans-serif; background-color: rgb(223, 255, 223);&quot; title=&quot;24 March 2024, 22:54:58&quot; class=&quot;time-inner&quot;&gt;&lt;/div&gt;&lt;span style=&quot;box-sizing: inherit; font-variant-numeric: normal; font-variant-east-asian: normal; font-variant-alternates: normal; font-variant-position: normal; line-height: var(--messages-time-text-size); -webkit-font-smoothing: antialiased; pointer-events: none; order: 5; font-size: calc(var(--messages-text-size) + 3px); color: var(--message-status-color); background-color: rgb(223, 255, 223); user-select: text !important; font-family: tgico !important;&quot; class=&quot;tgico time-sending-status&quot;&gt;&lt;/span&gt;&lt;span style=&quot;box-sizing: inherit; user-select: none; visibility: hidden; font-size: var(--messages-time-text-size); height: var(--messages-time-text-size); line-height: 1; vertical-align: middle; pointer-events: none; display: inline-flex; z-index: 1; cursor: pointer; direction: ltr; float: right; padding-inline-end: 6px; margin-inline-start: -3px;&quot; class=&quot;time&quot;&gt;&lt;/span&gt;" style="text;strokeColor=#82b366;fillColor=#d5e8d4;align=left;verticalAlign=top;spacingLeft=4;spacingRight=4;overflow=hidden;rotatable=0;points=[[0,0.5],[1,0.5]];portConstraint=eastwest;whiteSpace=wrap;html=1;" vertex="1" parent="TVeIh7PDx6N5P01ksh86-144">
          <mxGeometry y="26" width="372" height="34" as="geometry" />
        </mxCell>
        <mxCell id="TVeIh7PDx6N5P01ksh86-146" value="" style="line;strokeWidth=1;fillColor=#d5e8d4;align=left;verticalAlign=middle;spacingTop=-1;spacingLeft=3;spacingRight=3;rotatable=0;labelPosition=right;points=[];portConstraint=eastwest;strokeColor=#82b366;" vertex="1" parent="TVeIh7PDx6N5P01ksh86-144">
          <mxGeometry y="60" width="372" height="8" as="geometry" />
        </mxCell>
        <mxCell id="TVeIh7PDx6N5P01ksh86-147" value="+ MovieLinkedList()" style="text;strokeColor=#82b366;fillColor=#d5e8d4;align=left;verticalAlign=top;spacingLeft=4;spacingRight=4;overflow=hidden;rotatable=0;points=[[0,0.5],[1,0.5]];portConstraint=eastwest;whiteSpace=wrap;html=1;" vertex="1" parent="TVeIh7PDx6N5P01ksh86-144">
          <mxGeometry y="68" width="372" height="28" as="geometry" />
        </mxCell>
        <mxCell id="TVeIh7PDx6N5P01ksh86-148" value="+ getMovies() : LinkedList&amp;lt;Movie&amp;gt;" style="text;strokeColor=#82b366;fillColor=#d5e8d4;align=left;verticalAlign=top;spacingLeft=4;spacingRight=4;overflow=hidden;rotatable=0;points=[[0,0.5],[1,0.5]];portConstraint=eastwest;whiteSpace=wrap;html=1;" vertex="1" parent="TVeIh7PDx6N5P01ksh86-144">
          <mxGeometry y="96" width="372" height="28" as="geometry" />
        </mxCell>
        <mxCell id="TVeIh7PDx6N5P01ksh86-149" value="+ addMovie(movie: Movie) : void" style="text;strokeColor=#82b366;fillColor=#d5e8d4;align=left;verticalAlign=top;spacingLeft=4;spacingRight=4;overflow=hidden;rotatable=0;points=[[0,0.5],[1,0.5]];portConstraint=eastwest;whiteSpace=wrap;html=1;" vertex="1" parent="TVeIh7PDx6N5P01ksh86-144">
          <mxGeometry y="124" width="372" height="28" as="geometry" />
        </mxCell>
        <mxCell id="TVeIh7PDx6N5P01ksh86-150" value="+ removeMovie(movie: Movie) : void" style="text;strokeColor=#82b366;fillColor=#d5e8d4;align=left;verticalAlign=top;spacingLeft=4;spacingRight=4;overflow=hidden;rotatable=0;points=[[0,0.5],[1,0.5]];portConstraint=eastwest;whiteSpace=wrap;html=1;" vertex="1" parent="TVeIh7PDx6N5P01ksh86-144">
          <mxGeometry y="152" width="372" height="28" as="geometry" />
        </mxCell>
        <mxCell id="TVeIh7PDx6N5P01ksh86-151" value="+ searchMovie(title: String) : Movie" style="text;strokeColor=#82b366;fillColor=#d5e8d4;align=left;verticalAlign=top;spacingLeft=4;spacingRight=4;overflow=hidden;rotatable=0;points=[[0,0.5],[1,0.5]];portConstraint=eastwest;whiteSpace=wrap;html=1;" vertex="1" parent="TVeIh7PDx6N5P01ksh86-144">
          <mxGeometry y="180" width="372" height="28" as="geometry" />
        </mxCell>
        <mxCell id="TVeIh7PDx6N5P01ksh86-152" value="+ displayMovies() : void" style="text;strokeColor=#82b366;fillColor=#d5e8d4;align=left;verticalAlign=top;spacingLeft=4;spacingRight=4;overflow=hidden;rotatable=0;points=[[0,0.5],[1,0.5]];portConstraint=eastwest;whiteSpace=wrap;html=1;" vertex="1" parent="TVeIh7PDx6N5P01ksh86-144">
          <mxGeometry y="208" width="372" height="28" as="geometry" />
        </mxCell>
        <mxCell id="TVeIh7PDx6N5P01ksh86-153" value="+ displayTitles() : void" style="text;strokeColor=#82b366;fillColor=#d5e8d4;align=left;verticalAlign=top;spacingLeft=4;spacingRight=4;overflow=hidden;rotatable=0;points=[[0,0.5],[1,0.5]];portConstraint=eastwest;whiteSpace=wrap;html=1;" vertex="1" parent="TVeIh7PDx6N5P01ksh86-144">
          <mxGeometry y="236" width="372" height="28" as="geometry" />
        </mxCell>
        <mxCell id="TVeIh7PDx6N5P01ksh86-154" value="" style="endArrow=diamondThin;endFill=1;endSize=24;html=1;rounded=0;entryX=1;entryY=0.5;entryDx=0;entryDy=0;exitX=-0.002;exitY=0.236;exitDx=0;exitDy=0;exitPerimeter=0;strokeColor=#007FFF;" edge="1" parent="WIyWlLk6GJQsqaUBKTNV-1">
          <mxGeometry width="160" relative="1" as="geometry">
            <mxPoint x="-181" y="2112" as="sourcePoint" />
            <mxPoint x="-408" y="2112" as="targetPoint" />
          </mxGeometry>
        </mxCell>
        <mxCell id="TVeIh7PDx6N5P01ksh86-158" value="&lt;font style=&quot;font-size: 14px;&quot;&gt;ReservationPrinter&lt;/font&gt;" style="swimlane;fontStyle=1;align=center;verticalAlign=top;childLayout=stackLayout;horizontal=1;startSize=26;horizontalStack=0;resizeParent=1;resizeParentMax=0;resizeLast=0;collapsible=1;marginBottom=0;whiteSpace=wrap;html=1;fillColor=#f8cecc;strokeColor=#b85450;" vertex="1" parent="WIyWlLk6GJQsqaUBKTNV-1">
          <mxGeometry x="-744" y="660" width="456" height="124" as="geometry" />
        </mxCell>
        <mxCell id="TVeIh7PDx6N5P01ksh86-159" value="- confirmedReservationStack: ConfirmedReservationStack&lt;br&gt;&lt;div style=&quot;box-sizing: inherit; -webkit-tap-highlight-color: rgba(0, 0, 0, 0); pointer-events: all; position: absolute; inset-inline-end: 0px; display: flex; align-items: center; line-height: 1; padding: inherit; height: var(--messages-time-text-size); visibility: visible; color: var(--message-time-color); bottom: 4px; font-family: Roboto, -apple-system, &amp;quot;apple color emoji&amp;quot;, BlinkMacSystemFont, &amp;quot;Segoe UI&amp;quot;, Roboto, Oxygen-Sans, Ubuntu, Cantarell, &amp;quot;Helvetica Neue&amp;quot;, sans-serif; background-color: rgb(223, 255, 223);&quot; title=&quot;24 March 2024, 22:54:58&quot; class=&quot;time-inner&quot;&gt;&lt;/div&gt;&lt;span style=&quot;box-sizing: inherit; font-variant-numeric: normal; font-variant-east-asian: normal; font-variant-alternates: normal; font-variant-position: normal; line-height: var(--messages-time-text-size); -webkit-font-smoothing: antialiased; pointer-events: none; order: 5; font-size: calc(var(--messages-text-size) + 3px); color: var(--message-status-color); background-color: rgb(223, 255, 223); user-select: text !important; font-family: tgico !important;&quot; class=&quot;tgico time-sending-status&quot;&gt;&lt;/span&gt;&lt;span style=&quot;box-sizing: inherit; user-select: none; visibility: hidden; font-size: var(--messages-time-text-size); height: var(--messages-time-text-size); line-height: 1; vertical-align: middle; pointer-events: none; display: inline-flex; z-index: 1; cursor: pointer; direction: ltr; float: right; padding-inline-end: 6px; margin-inline-start: -3px;&quot; class=&quot;time&quot;&gt;&lt;/span&gt;" style="text;strokeColor=#b85450;fillColor=#f8cecc;align=left;verticalAlign=top;spacingLeft=4;spacingRight=4;overflow=hidden;rotatable=0;points=[[0,0.5],[1,0.5]];portConstraint=eastwest;whiteSpace=wrap;html=1;" vertex="1" parent="TVeIh7PDx6N5P01ksh86-158">
          <mxGeometry y="26" width="456" height="34" as="geometry" />
        </mxCell>
        <mxCell id="TVeIh7PDx6N5P01ksh86-160" value="" style="line;strokeWidth=1;fillColor=#f8cecc;align=left;verticalAlign=middle;spacingTop=-1;spacingLeft=3;spacingRight=3;rotatable=0;labelPosition=right;points=[];portConstraint=eastwest;strokeColor=#b85450;" vertex="1" parent="TVeIh7PDx6N5P01ksh86-158">
          <mxGeometry y="60" width="456" height="8" as="geometry" />
        </mxCell>
        <mxCell id="TVeIh7PDx6N5P01ksh86-161" value="+ ReservationPrinter(confirmedReservationStack: ConfirmedReservationStack)" style="text;strokeColor=#b85450;fillColor=#f8cecc;align=left;verticalAlign=top;spacingLeft=4;spacingRight=4;overflow=hidden;rotatable=0;points=[[0,0.5],[1,0.5]];portConstraint=eastwest;whiteSpace=wrap;html=1;" vertex="1" parent="TVeIh7PDx6N5P01ksh86-158">
          <mxGeometry y="68" width="456" height="28" as="geometry" />
        </mxCell>
        <mxCell id="TVeIh7PDx6N5P01ksh86-162" value="+ printReservationsSummary(): void" style="text;strokeColor=#b85450;fillColor=#f8cecc;align=left;verticalAlign=top;spacingLeft=4;spacingRight=4;overflow=hidden;rotatable=0;points=[[0,0.5],[1,0.5]];portConstraint=eastwest;whiteSpace=wrap;html=1;" vertex="1" parent="TVeIh7PDx6N5P01ksh86-158">
          <mxGeometry y="96" width="456" height="28" as="geometry" />
        </mxCell>
        <mxCell id="TVeIh7PDx6N5P01ksh86-164" value="&lt;span style=&quot;font-weight: 700;&quot;&gt;&lt;font style=&quot;font-size: 36px;&quot;&gt;CinemaTicketReservationSystem&lt;/font&gt;&lt;/span&gt;" style="text;html=1;align=center;verticalAlign=middle;resizable=0;points=[];autosize=1;strokeColor=default;fillColor=#CCCCCC;fontFamily=Helvetica;fontSize=12;fontColor=default;" vertex="1" parent="WIyWlLk6GJQsqaUBKTNV-1">
          <mxGeometry x="-90" y="-516" width="600" height="60" as="geometry" />
        </mxCell>
        <mxCell id="TVeIh7PDx6N5P01ksh86-168" value="" style="endArrow=diamondThin;endFill=1;endSize=24;html=1;rounded=0;strokeColor=#B85450;" edge="1" parent="WIyWlLk6GJQsqaUBKTNV-1">
          <mxGeometry width="160" relative="1" as="geometry">
            <mxPoint x="-552" y="996" as="sourcePoint" />
            <mxPoint x="-552" y="780" as="targetPoint" />
            <Array as="points">
              <mxPoint x="-552" y="900" />
            </Array>
          </mxGeometry>
        </mxCell>
        <mxCell id="TVeIh7PDx6N5P01ksh86-171" value="" style="endArrow=open;endFill=1;endSize=12;html=1;rounded=0;fontFamily=Helvetica;fontSize=12;fontColor=default;" edge="1" parent="WIyWlLk6GJQsqaUBKTNV-1">
          <mxGeometry width="160" relative="1" as="geometry">
            <mxPoint x="-384" y="-96" as="sourcePoint" />
            <mxPoint x="-120" y="-96" as="targetPoint" />
          </mxGeometry>
        </mxCell>
        <mxCell id="TVeIh7PDx6N5P01ksh86-172" value="" style="endArrow=open;endFill=1;endSize=12;html=1;rounded=0;fontFamily=Helvetica;fontSize=12;fontColor=default;entryX=0.5;entryY=0;entryDx=0;entryDy=0;" edge="1" parent="WIyWlLk6GJQsqaUBKTNV-1" target="-6uDEgYbslroLGIMf0rR-0">
          <mxGeometry width="160" relative="1" as="geometry">
            <mxPoint x="1152" y="-180" as="sourcePoint" />
            <mxPoint x="1244" y="-96" as="targetPoint" />
          </mxGeometry>
        </mxCell>
      </root>
    </mxGraphModel>
  </diagram>
  <diagram id="AvGqT5zjhmoh4m1axmfJ" name="Page-2">
    <mxGraphModel dx="1572" dy="606" grid="1" gridSize="12" guides="1" tooltips="1" connect="1" arrows="1" fold="1" page="1" pageScale="1" pageWidth="827" pageHeight="1169" math="0" shadow="0">
      <root>
        <mxCell id="0" />
        <mxCell id="1" parent="0" />
        <mxCell id="1u1P56M-2j0-biD6IoiB-1" value="AttendanceMap" style="swimlane;fontStyle=1;align=center;verticalAlign=top;childLayout=stackLayout;horizontal=1;startSize=26;horizontalStack=0;resizeParent=1;resizeParentMax=0;resizeLast=0;collapsible=1;marginBottom=0;whiteSpace=wrap;html=1;" vertex="1" parent="1">
          <mxGeometry x="192" y="336" width="372" height="124" as="geometry" />
        </mxCell>
        <mxCell id="1u1P56M-2j0-biD6IoiB-2" value="attendace : HashMap&amp;lt;Movie, Integers&amp;gt;&lt;br&gt;&lt;br&gt;&lt;div style=&quot;box-sizing: inherit; -webkit-tap-highlight-color: rgba(0, 0, 0, 0); pointer-events: all; position: absolute; inset-inline-end: 0px; display: flex; align-items: center; line-height: 1; padding: inherit; height: var(--messages-time-text-size); visibility: visible; color: var(--message-time-color); bottom: 4px; font-family: Roboto, -apple-system, &amp;quot;apple color emoji&amp;quot;, BlinkMacSystemFont, &amp;quot;Segoe UI&amp;quot;, Roboto, Oxygen-Sans, Ubuntu, Cantarell, &amp;quot;Helvetica Neue&amp;quot;, sans-serif; background-color: rgb(223, 255, 223);&quot; title=&quot;24 March 2024, 22:54:58&quot; class=&quot;time-inner&quot;&gt;&lt;/div&gt;&lt;span style=&quot;box-sizing: inherit; font-variant-numeric: normal; font-variant-east-asian: normal; font-variant-alternates: normal; font-variant-position: normal; line-height: var(--messages-time-text-size); -webkit-font-smoothing: antialiased; pointer-events: none; order: 5; font-size: calc(var(--messages-text-size) + 3px); color: var(--message-status-color); background-color: rgb(223, 255, 223); user-select: text !important; font-family: tgico !important;&quot; class=&quot;tgico time-sending-status&quot;&gt;&lt;/span&gt;&lt;span style=&quot;box-sizing: inherit; user-select: none; visibility: hidden; font-size: var(--messages-time-text-size); height: var(--messages-time-text-size); line-height: 1; vertical-align: middle; pointer-events: none; display: inline-flex; z-index: 1; cursor: pointer; direction: ltr; float: right; padding-inline-end: 6px; margin-inline-start: -3px;&quot; class=&quot;time&quot;&gt;&lt;/span&gt;" style="text;strokeColor=none;fillColor=none;align=left;verticalAlign=top;spacingLeft=4;spacingRight=4;overflow=hidden;rotatable=0;points=[[0,0.5],[1,0.5]];portConstraint=eastwest;whiteSpace=wrap;html=1;" vertex="1" parent="1u1P56M-2j0-biD6IoiB-1">
          <mxGeometry y="26" width="372" height="34" as="geometry" />
        </mxCell>
        <mxCell id="1u1P56M-2j0-biD6IoiB-3" value="" style="line;strokeWidth=1;fillColor=none;align=left;verticalAlign=middle;spacingTop=-1;spacingLeft=3;spacingRight=3;rotatable=0;labelPosition=right;points=[];portConstraint=eastwest;strokeColor=inherit;" vertex="1" parent="1u1P56M-2j0-biD6IoiB-1">
          <mxGeometry y="60" width="372" height="8" as="geometry" />
        </mxCell>
        <mxCell id="1u1P56M-2j0-biD6IoiB-5" value="+ getAttendace () : HashMap&amp;lt;Movie, Integer&amp;gt;" style="text;strokeColor=none;fillColor=none;align=left;verticalAlign=top;spacingLeft=4;spacingRight=4;overflow=hidden;rotatable=0;points=[[0,0.5],[1,0.5]];portConstraint=eastwest;whiteSpace=wrap;html=1;" vertex="1" parent="1u1P56M-2j0-biD6IoiB-1">
          <mxGeometry y="68" width="372" height="28" as="geometry" />
        </mxCell>
        <mxCell id="1u1P56M-2j0-biD6IoiB-4" value="+incrementAttendance (} : void" style="text;strokeColor=none;fillColor=none;align=left;verticalAlign=top;spacingLeft=4;spacingRight=4;overflow=hidden;rotatable=0;points=[[0,0.5],[1,0.5]];portConstraint=eastwest;whiteSpace=wrap;html=1;" vertex="1" parent="1u1P56M-2j0-biD6IoiB-1">
          <mxGeometry y="96" width="372" height="28" as="geometry" />
        </mxCell>
        <mxCell id="1u1P56M-2j0-biD6IoiB-6" value="MovieGraphs" style="swimlane;fontStyle=1;align=center;verticalAlign=top;childLayout=stackLayout;horizontal=1;startSize=26;horizontalStack=0;resizeParent=1;resizeParentMax=0;resizeLast=0;collapsible=1;marginBottom=0;whiteSpace=wrap;html=1;" vertex="1" parent="1">
          <mxGeometry x="180" y="516" width="372" height="124" as="geometry" />
        </mxCell>
        <mxCell id="1u1P56M-2j0-biD6IoiB-7" value="- relatedMovies: HashMap&amp;lt;Movie, List Movies&amp;gt;&amp;gt;&lt;br&gt;&lt;div style=&quot;box-sizing: inherit; -webkit-tap-highlight-color: rgba(0, 0, 0, 0); pointer-events: all; position: absolute; inset-inline-end: 0px; display: flex; align-items: center; line-height: 1; padding: inherit; height: var(--messages-time-text-size); visibility: visible; color: var(--message-time-color); bottom: 4px; font-family: Roboto, -apple-system, &amp;quot;apple color emoji&amp;quot;, BlinkMacSystemFont, &amp;quot;Segoe UI&amp;quot;, Roboto, Oxygen-Sans, Ubuntu, Cantarell, &amp;quot;Helvetica Neue&amp;quot;, sans-serif; background-color: rgb(223, 255, 223);&quot; title=&quot;24 March 2024, 22:54:58&quot; class=&quot;time-inner&quot;&gt;&lt;/div&gt;&lt;span style=&quot;box-sizing: inherit; font-variant-numeric: normal; font-variant-east-asian: normal; font-variant-alternates: normal; font-variant-position: normal; line-height: var(--messages-time-text-size); -webkit-font-smoothing: antialiased; pointer-events: none; order: 5; font-size: calc(var(--messages-text-size) + 3px); color: var(--message-status-color); background-color: rgb(223, 255, 223); user-select: text !important; font-family: tgico !important;&quot; class=&quot;tgico time-sending-status&quot;&gt;&lt;/span&gt;&lt;span style=&quot;box-sizing: inherit; user-select: none; visibility: hidden; font-size: var(--messages-time-text-size); height: var(--messages-time-text-size); line-height: 1; vertical-align: middle; pointer-events: none; display: inline-flex; z-index: 1; cursor: pointer; direction: ltr; float: right; padding-inline-end: 6px; margin-inline-start: -3px;&quot; class=&quot;time&quot;&gt;&lt;/span&gt;" style="text;strokeColor=none;fillColor=none;align=left;verticalAlign=top;spacingLeft=4;spacingRight=4;overflow=hidden;rotatable=0;points=[[0,0.5],[1,0.5]];portConstraint=eastwest;whiteSpace=wrap;html=1;" vertex="1" parent="1u1P56M-2j0-biD6IoiB-6">
          <mxGeometry y="26" width="372" height="34" as="geometry" />
        </mxCell>
        <mxCell id="1u1P56M-2j0-biD6IoiB-8" value="" style="line;strokeWidth=1;fillColor=none;align=left;verticalAlign=middle;spacingTop=-1;spacingLeft=3;spacingRight=3;rotatable=0;labelPosition=right;points=[];portConstraint=eastwest;strokeColor=inherit;" vertex="1" parent="1u1P56M-2j0-biD6IoiB-6">
          <mxGeometry y="60" width="372" height="8" as="geometry" />
        </mxCell>
        <mxCell id="1u1P56M-2j0-biD6IoiB-9" value="+ getRelatedMoviest) : HashMap&amp;lt;Movie, . List&amp;lt;Movies&amp;gt;&amp;gt;" style="text;strokeColor=none;fillColor=none;align=left;verticalAlign=top;spacingLeft=4;spacingRight=4;overflow=hidden;rotatable=0;points=[[0,0.5],[1,0.5]];portConstraint=eastwest;whiteSpace=wrap;html=1;" vertex="1" parent="1u1P56M-2j0-biD6IoiB-6">
          <mxGeometry y="68" width="372" height="28" as="geometry" />
        </mxCell>
        <mxCell id="1u1P56M-2j0-biD6IoiB-10" value="+&amp;nbsp;addRelation(): void" style="text;strokeColor=none;fillColor=none;align=left;verticalAlign=top;spacingLeft=4;spacingRight=4;overflow=hidden;rotatable=0;points=[[0,0.5],[1,0.5]];portConstraint=eastwest;whiteSpace=wrap;html=1;" vertex="1" parent="1u1P56M-2j0-biD6IoiB-6">
          <mxGeometry y="96" width="372" height="28" as="geometry" />
        </mxCell>
        <mxCell id="1u1P56M-2j0-biD6IoiB-11" value="RatingAndComments" style="swimlane;fontStyle=1;align=center;verticalAlign=top;childLayout=stackLayout;horizontal=1;startSize=26;horizontalStack=0;resizeParent=1;resizeParentMax=0;resizeLast=0;collapsible=1;marginBottom=0;whiteSpace=wrap;html=1;" vertex="1" parent="1">
          <mxGeometry x="336" y="660" width="372" height="180" as="geometry" />
        </mxCell>
        <mxCell id="1u1P56M-2j0-biD6IoiB-12" value="-&amp;nbsp;ratingsComments: HashMap&amp;lt;Movie, ListStrings&amp;gt;&lt;br&gt;&lt;div style=&quot;box-sizing: inherit; -webkit-tap-highlight-color: rgba(0, 0, 0, 0); pointer-events: all; position: absolute; inset-inline-end: 0px; display: flex; align-items: center; line-height: 1; padding: inherit; height: var(--messages-time-text-size); visibility: visible; color: var(--message-time-color); bottom: 4px; font-family: Roboto, -apple-system, &amp;quot;apple color emoji&amp;quot;, BlinkMacSystemFont, &amp;quot;Segoe UI&amp;quot;, Roboto, Oxygen-Sans, Ubuntu, Cantarell, &amp;quot;Helvetica Neue&amp;quot;, sans-serif; background-color: rgb(223, 255, 223);&quot; title=&quot;24 March 2024, 22:54:58&quot; class=&quot;time-inner&quot;&gt;&lt;/div&gt;&lt;span style=&quot;box-sizing: inherit; font-variant-numeric: normal; font-variant-east-asian: normal; font-variant-alternates: normal; font-variant-position: normal; line-height: var(--messages-time-text-size); -webkit-font-smoothing: antialiased; pointer-events: none; order: 5; font-size: calc(var(--messages-text-size) + 3px); color: var(--message-status-color); background-color: rgb(223, 255, 223); user-select: text !important; font-family: tgico !important;&quot; class=&quot;tgico time-sending-status&quot;&gt;&lt;/span&gt;&lt;span style=&quot;box-sizing: inherit; user-select: none; visibility: hidden; font-size: var(--messages-time-text-size); height: var(--messages-time-text-size); line-height: 1; vertical-align: middle; pointer-events: none; display: inline-flex; z-index: 1; cursor: pointer; direction: ltr; float: right; padding-inline-end: 6px; margin-inline-start: -3px;&quot; class=&quot;time&quot;&gt;&lt;/span&gt;" style="text;strokeColor=none;fillColor=none;align=left;verticalAlign=top;spacingLeft=4;spacingRight=4;overflow=hidden;rotatable=0;points=[[0,0.5],[1,0.5]];portConstraint=eastwest;whiteSpace=wrap;html=1;" vertex="1" parent="1u1P56M-2j0-biD6IoiB-11">
          <mxGeometry y="26" width="372" height="34" as="geometry" />
        </mxCell>
        <mxCell id="1u1P56M-2j0-biD6IoiB-13" value="" style="line;strokeWidth=1;fillColor=none;align=left;verticalAlign=middle;spacingTop=-1;spacingLeft=3;spacingRight=3;rotatable=0;labelPosition=right;points=[];portConstraint=eastwest;strokeColor=inherit;" vertex="1" parent="1u1P56M-2j0-biD6IoiB-11">
          <mxGeometry y="60" width="372" height="8" as="geometry" />
        </mxCell>
        <mxCell id="1u1P56M-2j0-biD6IoiB-14" value="getCommentsO: List&amp;lt;Strings&amp;gt;" style="text;strokeColor=none;fillColor=none;align=left;verticalAlign=top;spacingLeft=4;spacingRight=4;overflow=hidden;rotatable=0;points=[[0,0.5],[1,0.5]];portConstraint=eastwest;whiteSpace=wrap;html=1;" vertex="1" parent="1u1P56M-2j0-biD6IoiB-11">
          <mxGeometry y="68" width="372" height="28" as="geometry" />
        </mxCell>
        <mxCell id="1u1P56M-2j0-biD6IoiB-16" value="+ getRatings) : List&amp;lt;Strings&amp;gt;" style="text;strokeColor=none;fillColor=none;align=left;verticalAlign=top;spacingLeft=4;spacingRight=4;overflow=hidden;rotatable=0;points=[[0,0.5],[1,0.5]];portConstraint=eastwest;whiteSpace=wrap;html=1;" vertex="1" parent="1u1P56M-2j0-biD6IoiB-11">
          <mxGeometry y="96" width="372" height="28" as="geometry" />
        </mxCell>
        <mxCell id="1u1P56M-2j0-biD6IoiB-17" value="+&amp;nbsp;addComment (): void" style="text;strokeColor=none;fillColor=none;align=left;verticalAlign=top;spacingLeft=4;spacingRight=4;overflow=hidden;rotatable=0;points=[[0,0.5],[1,0.5]];portConstraint=eastwest;whiteSpace=wrap;html=1;" vertex="1" parent="1u1P56M-2j0-biD6IoiB-11">
          <mxGeometry y="124" width="372" height="28" as="geometry" />
        </mxCell>
        <mxCell id="1u1P56M-2j0-biD6IoiB-15" value="+ addRating () : void" style="text;strokeColor=none;fillColor=none;align=left;verticalAlign=top;spacingLeft=4;spacingRight=4;overflow=hidden;rotatable=0;points=[[0,0.5],[1,0.5]];portConstraint=eastwest;whiteSpace=wrap;html=1;" vertex="1" parent="1u1P56M-2j0-biD6IoiB-11">
          <mxGeometry y="152" width="372" height="28" as="geometry" />
        </mxCell>
        <mxCell id="1u1P56M-2j0-biD6IoiB-18" value="LoyaltyPointsMap" style="swimlane;fontStyle=1;align=center;verticalAlign=top;childLayout=stackLayout;horizontal=1;startSize=26;horizontalStack=0;resizeParent=1;resizeParentMax=0;resizeLast=0;collapsible=1;marginBottom=0;whiteSpace=wrap;html=1;" vertex="1" parent="1">
          <mxGeometry x="-108" y="672" width="372" height="152" as="geometry" />
        </mxCell>
        <mxCell id="1u1P56M-2j0-biD6IoiB-19" value="-&amp;nbsp;loyaltyPoints : HashMap&amp;lt;User, Integers&amp;gt;&lt;br&gt;&lt;div style=&quot;box-sizing: inherit; -webkit-tap-highlight-color: rgba(0, 0, 0, 0); pointer-events: all; position: absolute; inset-inline-end: 0px; display: flex; align-items: center; line-height: 1; padding: inherit; height: var(--messages-time-text-size); visibility: visible; color: var(--message-time-color); bottom: 4px; font-family: Roboto, -apple-system, &amp;quot;apple color emoji&amp;quot;, BlinkMacSystemFont, &amp;quot;Segoe UI&amp;quot;, Roboto, Oxygen-Sans, Ubuntu, Cantarell, &amp;quot;Helvetica Neue&amp;quot;, sans-serif; background-color: rgb(223, 255, 223);&quot; title=&quot;24 March 2024, 22:54:58&quot; class=&quot;time-inner&quot;&gt;&lt;/div&gt;&lt;span style=&quot;box-sizing: inherit; font-variant-numeric: normal; font-variant-east-asian: normal; font-variant-alternates: normal; font-variant-position: normal; line-height: var(--messages-time-text-size); -webkit-font-smoothing: antialiased; pointer-events: none; order: 5; font-size: calc(var(--messages-text-size) + 3px); color: var(--message-status-color); background-color: rgb(223, 255, 223); user-select: text !important; font-family: tgico !important;&quot; class=&quot;tgico time-sending-status&quot;&gt;&lt;/span&gt;&lt;span style=&quot;box-sizing: inherit; user-select: none; visibility: hidden; font-size: var(--messages-time-text-size); height: var(--messages-time-text-size); line-height: 1; vertical-align: middle; pointer-events: none; display: inline-flex; z-index: 1; cursor: pointer; direction: ltr; float: right; padding-inline-end: 6px; margin-inline-start: -3px;&quot; class=&quot;time&quot;&gt;&lt;/span&gt;" style="text;strokeColor=none;fillColor=none;align=left;verticalAlign=top;spacingLeft=4;spacingRight=4;overflow=hidden;rotatable=0;points=[[0,0.5],[1,0.5]];portConstraint=eastwest;whiteSpace=wrap;html=1;" vertex="1" parent="1u1P56M-2j0-biD6IoiB-18">
          <mxGeometry y="26" width="372" height="34" as="geometry" />
        </mxCell>
        <mxCell id="1u1P56M-2j0-biD6IoiB-20" value="" style="line;strokeWidth=1;fillColor=none;align=left;verticalAlign=middle;spacingTop=-1;spacingLeft=3;spacingRight=3;rotatable=0;labelPosition=right;points=[];portConstraint=eastwest;strokeColor=inherit;" vertex="1" parent="1u1P56M-2j0-biD6IoiB-18">
          <mxGeometry y="60" width="372" height="8" as="geometry" />
        </mxCell>
        <mxCell id="1u1P56M-2j0-biD6IoiB-21" value="+ addpoints () : void" style="text;strokeColor=none;fillColor=none;align=left;verticalAlign=top;spacingLeft=4;spacingRight=4;overflow=hidden;rotatable=0;points=[[0,0.5],[1,0.5]];portConstraint=eastwest;whiteSpace=wrap;html=1;" vertex="1" parent="1u1P56M-2j0-biD6IoiB-18">
          <mxGeometry y="68" width="372" height="28" as="geometry" />
        </mxCell>
        <mxCell id="1u1P56M-2j0-biD6IoiB-22" value="+ substrastPoints) : void" style="text;strokeColor=none;fillColor=none;align=left;verticalAlign=top;spacingLeft=4;spacingRight=4;overflow=hidden;rotatable=0;points=[[0,0.5],[1,0.5]];portConstraint=eastwest;whiteSpace=wrap;html=1;" vertex="1" parent="1u1P56M-2j0-biD6IoiB-18">
          <mxGeometry y="96" width="372" height="28" as="geometry" />
        </mxCell>
        <mxCell id="1u1P56M-2j0-biD6IoiB-23" value="+ getlovaltyPoints(): &amp;lt;HashMapsuser, Integers&amp;gt;&lt;br&gt;&lt;br&gt;&lt;div style=&quot;box-sizing: inherit; -webkit-tap-highlight-color: rgba(0, 0, 0, 0); pointer-events: all; position: absolute; inset-inline-end: 0px; display: flex; align-items: center; line-height: 1; padding: inherit; height: var(--messages-time-text-size); visibility: visible; color: var(--message-time-color); bottom: 4px; font-family: Roboto, -apple-system, &amp;quot;apple color emoji&amp;quot;, BlinkMacSystemFont, &amp;quot;Segoe UI&amp;quot;, Roboto, Oxygen-Sans, Ubuntu, Cantarell, &amp;quot;Helvetica Neue&amp;quot;, sans-serif; background-color: rgb(223, 255, 223);&quot; title=&quot;24 March 2024, 23:08:45&quot; class=&quot;time-inner&quot;&gt;&lt;/div&gt;&lt;span style=&quot;box-sizing: inherit; font-variant-numeric: normal; font-variant-east-asian: normal; font-variant-alternates: normal; font-variant-position: normal; line-height: var(--messages-time-text-size); -webkit-font-smoothing: antialiased; pointer-events: none; order: 5; font-size: calc(var(--messages-text-size) + 3px); color: var(--message-status-color); background-color: rgb(223, 255, 223); user-select: text !important; font-family: tgico !important;&quot; class=&quot;tgico time-sending-status&quot;&gt;&lt;/span&gt;&lt;span style=&quot;box-sizing: inherit; user-select: none; visibility: hidden; font-size: var(--messages-time-text-size); height: var(--messages-time-text-size); line-height: 1; vertical-align: middle; pointer-events: none; display: inline-flex; z-index: 1; cursor: pointer; direction: ltr; float: right; padding-inline-end: 6px; margin-inline-start: -3px;&quot; class=&quot;time&quot;&gt;&lt;/span&gt;" style="text;strokeColor=none;fillColor=none;align=left;verticalAlign=top;spacingLeft=4;spacingRight=4;overflow=hidden;rotatable=0;points=[[0,0.5],[1,0.5]];portConstraint=eastwest;whiteSpace=wrap;html=1;" vertex="1" parent="1u1P56M-2j0-biD6IoiB-18">
          <mxGeometry y="124" width="372" height="28" as="geometry" />
        </mxCell>
        <mxCell id="1u1P56M-2j0-biD6IoiB-25" value="CinemaHallMap" style="swimlane;fontStyle=1;align=center;verticalAlign=top;childLayout=stackLayout;horizontal=1;startSize=26;horizontalStack=0;resizeParent=1;resizeParentMax=0;resizeLast=0;collapsible=1;marginBottom=0;whiteSpace=wrap;html=1;" vertex="1" parent="1">
          <mxGeometry x="-144" y="840" width="372" height="152" as="geometry" />
        </mxCell>
        <mxCell id="1u1P56M-2j0-biD6IoiB-26" value="- cinemaHalla : HashMap&amp;lt;Integers, CinemaHalls&amp;gt;&lt;br&gt;&lt;div style=&quot;box-sizing: inherit; -webkit-tap-highlight-color: rgba(0, 0, 0, 0); pointer-events: all; position: absolute; inset-inline-end: 0px; display: flex; align-items: center; line-height: 1; padding: inherit; height: var(--messages-time-text-size); visibility: visible; color: var(--message-time-color); bottom: 4px; font-family: Roboto, -apple-system, &amp;quot;apple color emoji&amp;quot;, BlinkMacSystemFont, &amp;quot;Segoe UI&amp;quot;, Roboto, Oxygen-Sans, Ubuntu, Cantarell, &amp;quot;Helvetica Neue&amp;quot;, sans-serif; background-color: rgb(223, 255, 223);&quot; title=&quot;24 March 2024, 22:54:58&quot; class=&quot;time-inner&quot;&gt;&lt;/div&gt;&lt;span style=&quot;box-sizing: inherit; font-variant-numeric: normal; font-variant-east-asian: normal; font-variant-alternates: normal; font-variant-position: normal; line-height: var(--messages-time-text-size); -webkit-font-smoothing: antialiased; pointer-events: none; order: 5; font-size: calc(var(--messages-text-size) + 3px); color: var(--message-status-color); background-color: rgb(223, 255, 223); user-select: text !important; font-family: tgico !important;&quot; class=&quot;tgico time-sending-status&quot;&gt;&lt;/span&gt;&lt;span style=&quot;box-sizing: inherit; user-select: none; visibility: hidden; font-size: var(--messages-time-text-size); height: var(--messages-time-text-size); line-height: 1; vertical-align: middle; pointer-events: none; display: inline-flex; z-index: 1; cursor: pointer; direction: ltr; float: right; padding-inline-end: 6px; margin-inline-start: -3px;&quot; class=&quot;time&quot;&gt;&lt;/span&gt;" style="text;strokeColor=none;fillColor=none;align=left;verticalAlign=top;spacingLeft=4;spacingRight=4;overflow=hidden;rotatable=0;points=[[0,0.5],[1,0.5]];portConstraint=eastwest;whiteSpace=wrap;html=1;" vertex="1" parent="1u1P56M-2j0-biD6IoiB-25">
          <mxGeometry y="26" width="372" height="34" as="geometry" />
        </mxCell>
        <mxCell id="1u1P56M-2j0-biD6IoiB-27" value="" style="line;strokeWidth=1;fillColor=none;align=left;verticalAlign=middle;spacingTop=-1;spacingLeft=3;spacingRight=3;rotatable=0;labelPosition=right;points=[];portConstraint=eastwest;strokeColor=inherit;" vertex="1" parent="1u1P56M-2j0-biD6IoiB-25">
          <mxGeometry y="60" width="372" height="8" as="geometry" />
        </mxCell>
        <mxCell id="1u1P56M-2j0-biD6IoiB-28" value="+ getHallInfo () : void" style="text;strokeColor=none;fillColor=none;align=left;verticalAlign=top;spacingLeft=4;spacingRight=4;overflow=hidden;rotatable=0;points=[[0,0.5],[1,0.5]];portConstraint=eastwest;whiteSpace=wrap;html=1;" vertex="1" parent="1u1P56M-2j0-biD6IoiB-25">
          <mxGeometry y="68" width="372" height="28" as="geometry" />
        </mxCell>
        <mxCell id="1u1P56M-2j0-biD6IoiB-29" value="+ removeHall() : void" style="text;strokeColor=none;fillColor=none;align=left;verticalAlign=top;spacingLeft=4;spacingRight=4;overflow=hidden;rotatable=0;points=[[0,0.5],[1,0.5]];portConstraint=eastwest;whiteSpace=wrap;html=1;" vertex="1" parent="1u1P56M-2j0-biD6IoiB-25">
          <mxGeometry y="96" width="372" height="28" as="geometry" />
        </mxCell>
        <mxCell id="1u1P56M-2j0-biD6IoiB-30" value="+ addHall(): void&lt;br&gt;&lt;br&gt;&lt;div style=&quot;box-sizing: inherit; -webkit-tap-highlight-color: rgba(0, 0, 0, 0); pointer-events: all; position: absolute; inset-inline-end: 0px; display: flex; align-items: center; line-height: 1; padding: inherit; height: var(--messages-time-text-size); visibility: visible; color: var(--message-time-color); bottom: 4px; font-family: Roboto, -apple-system, &amp;quot;apple color emoji&amp;quot;, BlinkMacSystemFont, &amp;quot;Segoe UI&amp;quot;, Roboto, Oxygen-Sans, Ubuntu, Cantarell, &amp;quot;Helvetica Neue&amp;quot;, sans-serif; background-color: rgb(223, 255, 223);&quot; title=&quot;24 March 2024, 23:08:45&quot; class=&quot;time-inner&quot;&gt;&lt;/div&gt;&lt;span style=&quot;box-sizing: inherit; font-variant-numeric: normal; font-variant-east-asian: normal; font-variant-alternates: normal; font-variant-position: normal; line-height: var(--messages-time-text-size); -webkit-font-smoothing: antialiased; pointer-events: none; order: 5; font-size: calc(var(--messages-text-size) + 3px); color: var(--message-status-color); background-color: rgb(223, 255, 223); user-select: text !important; font-family: tgico !important;&quot; class=&quot;tgico time-sending-status&quot;&gt;&lt;/span&gt;&lt;span style=&quot;box-sizing: inherit; user-select: none; visibility: hidden; font-size: var(--messages-time-text-size); height: var(--messages-time-text-size); line-height: 1; vertical-align: middle; pointer-events: none; display: inline-flex; z-index: 1; cursor: pointer; direction: ltr; float: right; padding-inline-end: 6px; margin-inline-start: -3px;&quot; class=&quot;time&quot;&gt;&lt;/span&gt;" style="text;strokeColor=none;fillColor=none;align=left;verticalAlign=top;spacingLeft=4;spacingRight=4;overflow=hidden;rotatable=0;points=[[0,0.5],[1,0.5]];portConstraint=eastwest;whiteSpace=wrap;html=1;" vertex="1" parent="1u1P56M-2j0-biD6IoiB-25">
          <mxGeometry y="124" width="372" height="28" as="geometry" />
        </mxCell>
        <mxCell id="1u1P56M-2j0-biD6IoiB-31" value="ReservationStack" style="swimlane;fontStyle=1;align=center;verticalAlign=top;childLayout=stackLayout;horizontal=1;startSize=26;horizontalStack=0;resizeParent=1;resizeParentMax=0;resizeLast=0;collapsible=1;marginBottom=0;whiteSpace=wrap;html=1;" vertex="1" parent="1">
          <mxGeometry x="264" y="888" width="372" height="124" as="geometry" />
        </mxCell>
        <mxCell id="1u1P56M-2j0-biD6IoiB-32" value="- currentReservation: Stack&amp;lt;Reservation&amp;gt;&lt;br&gt;&lt;div style=&quot;box-sizing: inherit; -webkit-tap-highlight-color: rgba(0, 0, 0, 0); pointer-events: all; position: absolute; inset-inline-end: 0px; display: flex; align-items: center; line-height: 1; padding: inherit; height: var(--messages-time-text-size); visibility: visible; color: var(--message-time-color); bottom: 4px; font-family: Roboto, -apple-system, &amp;quot;apple color emoji&amp;quot;, BlinkMacSystemFont, &amp;quot;Segoe UI&amp;quot;, Roboto, Oxygen-Sans, Ubuntu, Cantarell, &amp;quot;Helvetica Neue&amp;quot;, sans-serif; background-color: rgb(223, 255, 223);&quot; title=&quot;24 March 2024, 22:54:58&quot; class=&quot;time-inner&quot;&gt;&lt;/div&gt;&lt;span style=&quot;box-sizing: inherit; font-variant-numeric: normal; font-variant-east-asian: normal; font-variant-alternates: normal; font-variant-position: normal; line-height: var(--messages-time-text-size); -webkit-font-smoothing: antialiased; pointer-events: none; order: 5; font-size: calc(var(--messages-text-size) + 3px); color: var(--message-status-color); background-color: rgb(223, 255, 223); user-select: text !important; font-family: tgico !important;&quot; class=&quot;tgico time-sending-status&quot;&gt;&lt;/span&gt;&lt;span style=&quot;box-sizing: inherit; user-select: none; visibility: hidden; font-size: var(--messages-time-text-size); height: var(--messages-time-text-size); line-height: 1; vertical-align: middle; pointer-events: none; display: inline-flex; z-index: 1; cursor: pointer; direction: ltr; float: right; padding-inline-end: 6px; margin-inline-start: -3px;&quot; class=&quot;time&quot;&gt;&lt;/span&gt;" style="text;strokeColor=none;fillColor=none;align=left;verticalAlign=top;spacingLeft=4;spacingRight=4;overflow=hidden;rotatable=0;points=[[0,0.5],[1,0.5]];portConstraint=eastwest;whiteSpace=wrap;html=1;" vertex="1" parent="1u1P56M-2j0-biD6IoiB-31">
          <mxGeometry y="26" width="372" height="34" as="geometry" />
        </mxCell>
        <mxCell id="1u1P56M-2j0-biD6IoiB-33" value="" style="line;strokeWidth=1;fillColor=none;align=left;verticalAlign=middle;spacingTop=-1;spacingLeft=3;spacingRight=3;rotatable=0;labelPosition=right;points=[];portConstraint=eastwest;strokeColor=inherit;" vertex="1" parent="1u1P56M-2j0-biD6IoiB-31">
          <mxGeometry y="60" width="372" height="8" as="geometry" />
        </mxCell>
        <mxCell id="1u1P56M-2j0-biD6IoiB-34" value="+ pushReservation () : void" style="text;strokeColor=none;fillColor=none;align=left;verticalAlign=top;spacingLeft=4;spacingRight=4;overflow=hidden;rotatable=0;points=[[0,0.5],[1,0.5]];portConstraint=eastwest;whiteSpace=wrap;html=1;" vertex="1" parent="1u1P56M-2j0-biD6IoiB-31">
          <mxGeometry y="68" width="372" height="28" as="geometry" />
        </mxCell>
        <mxCell id="1u1P56M-2j0-biD6IoiB-35" value="+ popReservationl() : void" style="text;strokeColor=none;fillColor=none;align=left;verticalAlign=top;spacingLeft=4;spacingRight=4;overflow=hidden;rotatable=0;points=[[0,0.5],[1,0.5]];portConstraint=eastwest;whiteSpace=wrap;html=1;" vertex="1" parent="1u1P56M-2j0-biD6IoiB-31">
          <mxGeometry y="96" width="372" height="28" as="geometry" />
        </mxCell>
        <mxCell id="1u1P56M-2j0-biD6IoiB-37" value="ReservationQueue" style="swimlane;fontStyle=1;align=center;verticalAlign=top;childLayout=stackLayout;horizontal=1;startSize=26;horizontalStack=0;resizeParent=1;resizeParentMax=0;resizeLast=0;collapsible=1;marginBottom=0;whiteSpace=wrap;html=1;" vertex="1" parent="1">
          <mxGeometry x="-288" y="1032" width="372" height="124" as="geometry" />
        </mxCell>
        <mxCell id="1u1P56M-2j0-biD6IoiB-38" value="- reservations: Queue&amp;lt;Reservation&amp;gt;&lt;br&gt;&lt;div style=&quot;box-sizing: inherit; -webkit-tap-highlight-color: rgba(0, 0, 0, 0); pointer-events: all; position: absolute; inset-inline-end: 0px; display: flex; align-items: center; line-height: 1; padding: inherit; height: var(--messages-time-text-size); visibility: visible; color: var(--message-time-color); bottom: 4px; font-family: Roboto, -apple-system, &amp;quot;apple color emoji&amp;quot;, BlinkMacSystemFont, &amp;quot;Segoe UI&amp;quot;, Roboto, Oxygen-Sans, Ubuntu, Cantarell, &amp;quot;Helvetica Neue&amp;quot;, sans-serif; background-color: rgb(223, 255, 223);&quot; title=&quot;24 March 2024, 22:54:58&quot; class=&quot;time-inner&quot;&gt;&lt;/div&gt;&lt;span style=&quot;box-sizing: inherit; font-variant-numeric: normal; font-variant-east-asian: normal; font-variant-alternates: normal; font-variant-position: normal; line-height: var(--messages-time-text-size); -webkit-font-smoothing: antialiased; pointer-events: none; order: 5; font-size: calc(var(--messages-text-size) + 3px); color: var(--message-status-color); background-color: rgb(223, 255, 223); user-select: text !important; font-family: tgico !important;&quot; class=&quot;tgico time-sending-status&quot;&gt;&lt;/span&gt;&lt;span style=&quot;box-sizing: inherit; user-select: none; visibility: hidden; font-size: var(--messages-time-text-size); height: var(--messages-time-text-size); line-height: 1; vertical-align: middle; pointer-events: none; display: inline-flex; z-index: 1; cursor: pointer; direction: ltr; float: right; padding-inline-end: 6px; margin-inline-start: -3px;&quot; class=&quot;time&quot;&gt;&lt;/span&gt;" style="text;strokeColor=none;fillColor=none;align=left;verticalAlign=top;spacingLeft=4;spacingRight=4;overflow=hidden;rotatable=0;points=[[0,0.5],[1,0.5]];portConstraint=eastwest;whiteSpace=wrap;html=1;" vertex="1" parent="1u1P56M-2j0-biD6IoiB-37">
          <mxGeometry y="26" width="372" height="34" as="geometry" />
        </mxCell>
        <mxCell id="1u1P56M-2j0-biD6IoiB-39" value="" style="line;strokeWidth=1;fillColor=none;align=left;verticalAlign=middle;spacingTop=-1;spacingLeft=3;spacingRight=3;rotatable=0;labelPosition=right;points=[];portConstraint=eastwest;strokeColor=inherit;" vertex="1" parent="1u1P56M-2j0-biD6IoiB-37">
          <mxGeometry y="60" width="372" height="8" as="geometry" />
        </mxCell>
        <mxCell id="1u1P56M-2j0-biD6IoiB-40" value="+ dequeueReservation () : void" style="text;strokeColor=none;fillColor=none;align=left;verticalAlign=top;spacingLeft=4;spacingRight=4;overflow=hidden;rotatable=0;points=[[0,0.5],[1,0.5]];portConstraint=eastwest;whiteSpace=wrap;html=1;" vertex="1" parent="1u1P56M-2j0-biD6IoiB-37">
          <mxGeometry y="68" width="372" height="28" as="geometry" />
        </mxCell>
        <mxCell id="1u1P56M-2j0-biD6IoiB-41" value="+ enqueueReservationl() : void" style="text;strokeColor=none;fillColor=none;align=left;verticalAlign=top;spacingLeft=4;spacingRight=4;overflow=hidden;rotatable=0;points=[[0,0.5],[1,0.5]];portConstraint=eastwest;whiteSpace=wrap;html=1;" vertex="1" parent="1u1P56M-2j0-biD6IoiB-37">
          <mxGeometry y="96" width="372" height="28" as="geometry" />
        </mxCell>
        <mxCell id="1u1P56M-2j0-biD6IoiB-42" value="EmployeeDetails" style="swimlane;fontStyle=1;align=center;verticalAlign=top;childLayout=stackLayout;horizontal=1;startSize=26;horizontalStack=0;resizeParent=1;resizeParentMax=0;resizeLast=0;collapsible=1;marginBottom=0;whiteSpace=wrap;html=1;" vertex="1" parent="1">
          <mxGeometry x="312" y="1056" width="372" height="152" as="geometry" />
        </mxCell>
        <mxCell id="1u1P56M-2j0-biD6IoiB-43" value="- employees: ArrayList&amp;lt;Employee&amp;gt;&lt;br&gt;&lt;div style=&quot;box-sizing: inherit; -webkit-tap-highlight-color: rgba(0, 0, 0, 0); pointer-events: all; position: absolute; inset-inline-end: 0px; display: flex; align-items: center; line-height: 1; padding: inherit; height: var(--messages-time-text-size); visibility: visible; color: var(--message-time-color); bottom: 4px; font-family: Roboto, -apple-system, &amp;quot;apple color emoji&amp;quot;, BlinkMacSystemFont, &amp;quot;Segoe UI&amp;quot;, Roboto, Oxygen-Sans, Ubuntu, Cantarell, &amp;quot;Helvetica Neue&amp;quot;, sans-serif; background-color: rgb(223, 255, 223);&quot; title=&quot;24 March 2024, 22:54:58&quot; class=&quot;time-inner&quot;&gt;&lt;/div&gt;&lt;span style=&quot;box-sizing: inherit; font-variant-numeric: normal; font-variant-east-asian: normal; font-variant-alternates: normal; font-variant-position: normal; line-height: var(--messages-time-text-size); -webkit-font-smoothing: antialiased; pointer-events: none; order: 5; font-size: calc(var(--messages-text-size) + 3px); color: var(--message-status-color); background-color: rgb(223, 255, 223); user-select: text !important; font-family: tgico !important;&quot; class=&quot;tgico time-sending-status&quot;&gt;&lt;/span&gt;&lt;span style=&quot;box-sizing: inherit; user-select: none; visibility: hidden; font-size: var(--messages-time-text-size); height: var(--messages-time-text-size); line-height: 1; vertical-align: middle; pointer-events: none; display: inline-flex; z-index: 1; cursor: pointer; direction: ltr; float: right; padding-inline-end: 6px; margin-inline-start: -3px;&quot; class=&quot;time&quot;&gt;&lt;/span&gt;" style="text;strokeColor=none;fillColor=none;align=left;verticalAlign=top;spacingLeft=4;spacingRight=4;overflow=hidden;rotatable=0;points=[[0,0.5],[1,0.5]];portConstraint=eastwest;whiteSpace=wrap;html=1;" vertex="1" parent="1u1P56M-2j0-biD6IoiB-42">
          <mxGeometry y="26" width="372" height="34" as="geometry" />
        </mxCell>
        <mxCell id="1u1P56M-2j0-biD6IoiB-44" value="" style="line;strokeWidth=1;fillColor=none;align=left;verticalAlign=middle;spacingTop=-1;spacingLeft=3;spacingRight=3;rotatable=0;labelPosition=right;points=[];portConstraint=eastwest;strokeColor=inherit;" vertex="1" parent="1u1P56M-2j0-biD6IoiB-42">
          <mxGeometry y="60" width="372" height="8" as="geometry" />
        </mxCell>
        <mxCell id="1u1P56M-2j0-biD6IoiB-52" value="+ addEmployee () : void" style="text;strokeColor=none;fillColor=none;align=left;verticalAlign=top;spacingLeft=4;spacingRight=4;overflow=hidden;rotatable=0;points=[[0,0.5],[1,0.5]];portConstraint=eastwest;whiteSpace=wrap;html=1;" vertex="1" parent="1u1P56M-2j0-biD6IoiB-42">
          <mxGeometry y="68" width="372" height="28" as="geometry" />
        </mxCell>
        <mxCell id="1u1P56M-2j0-biD6IoiB-45" value="+ searchEmployee () : void" style="text;strokeColor=none;fillColor=none;align=left;verticalAlign=top;spacingLeft=4;spacingRight=4;overflow=hidden;rotatable=0;points=[[0,0.5],[1,0.5]];portConstraint=eastwest;whiteSpace=wrap;html=1;" vertex="1" parent="1u1P56M-2j0-biD6IoiB-42">
          <mxGeometry y="96" width="372" height="28" as="geometry" />
        </mxCell>
        <mxCell id="1u1P56M-2j0-biD6IoiB-46" value="+ removeEmployee&amp;nbsp;() : void" style="text;strokeColor=none;fillColor=none;align=left;verticalAlign=top;spacingLeft=4;spacingRight=4;overflow=hidden;rotatable=0;points=[[0,0.5],[1,0.5]];portConstraint=eastwest;whiteSpace=wrap;html=1;" vertex="1" parent="1u1P56M-2j0-biD6IoiB-42">
          <mxGeometry y="124" width="372" height="28" as="geometry" />
        </mxCell>
        <mxCell id="1u1P56M-2j0-biD6IoiB-53" value="MovieList" style="swimlane;fontStyle=1;align=center;verticalAlign=top;childLayout=stackLayout;horizontal=1;startSize=26;horizontalStack=0;resizeParent=1;resizeParentMax=0;resizeLast=0;collapsible=1;marginBottom=0;whiteSpace=wrap;html=1;" vertex="1" parent="1">
          <mxGeometry x="-180" y="1208" width="372" height="152" as="geometry" />
        </mxCell>
        <mxCell id="1u1P56M-2j0-biD6IoiB-54" value="- movies: LinkedList&amp;lt;Movie&amp;gt;&lt;br&gt;&lt;div style=&quot;box-sizing: inherit; -webkit-tap-highlight-color: rgba(0, 0, 0, 0); pointer-events: all; position: absolute; inset-inline-end: 0px; display: flex; align-items: center; line-height: 1; padding: inherit; height: var(--messages-time-text-size); visibility: visible; color: var(--message-time-color); bottom: 4px; font-family: Roboto, -apple-system, &amp;quot;apple color emoji&amp;quot;, BlinkMacSystemFont, &amp;quot;Segoe UI&amp;quot;, Roboto, Oxygen-Sans, Ubuntu, Cantarell, &amp;quot;Helvetica Neue&amp;quot;, sans-serif; background-color: rgb(223, 255, 223);&quot; title=&quot;24 March 2024, 22:54:58&quot; class=&quot;time-inner&quot;&gt;&lt;/div&gt;&lt;span style=&quot;box-sizing: inherit; font-variant-numeric: normal; font-variant-east-asian: normal; font-variant-alternates: normal; font-variant-position: normal; line-height: var(--messages-time-text-size); -webkit-font-smoothing: antialiased; pointer-events: none; order: 5; font-size: calc(var(--messages-text-size) + 3px); color: var(--message-status-color); background-color: rgb(223, 255, 223); user-select: text !important; font-family: tgico !important;&quot; class=&quot;tgico time-sending-status&quot;&gt;&lt;/span&gt;&lt;span style=&quot;box-sizing: inherit; user-select: none; visibility: hidden; font-size: var(--messages-time-text-size); height: var(--messages-time-text-size); line-height: 1; vertical-align: middle; pointer-events: none; display: inline-flex; z-index: 1; cursor: pointer; direction: ltr; float: right; padding-inline-end: 6px; margin-inline-start: -3px;&quot; class=&quot;time&quot;&gt;&lt;/span&gt;" style="text;strokeColor=none;fillColor=none;align=left;verticalAlign=top;spacingLeft=4;spacingRight=4;overflow=hidden;rotatable=0;points=[[0,0.5],[1,0.5]];portConstraint=eastwest;whiteSpace=wrap;html=1;" vertex="1" parent="1u1P56M-2j0-biD6IoiB-53">
          <mxGeometry y="26" width="372" height="34" as="geometry" />
        </mxCell>
        <mxCell id="1u1P56M-2j0-biD6IoiB-55" value="" style="line;strokeWidth=1;fillColor=none;align=left;verticalAlign=middle;spacingTop=-1;spacingLeft=3;spacingRight=3;rotatable=0;labelPosition=right;points=[];portConstraint=eastwest;strokeColor=inherit;" vertex="1" parent="1u1P56M-2j0-biD6IoiB-53">
          <mxGeometry y="60" width="372" height="8" as="geometry" />
        </mxCell>
        <mxCell id="1u1P56M-2j0-biD6IoiB-56" value="+ addMovie&amp;nbsp;() : void" style="text;strokeColor=none;fillColor=none;align=left;verticalAlign=top;spacingLeft=4;spacingRight=4;overflow=hidden;rotatable=0;points=[[0,0.5],[1,0.5]];portConstraint=eastwest;whiteSpace=wrap;html=1;" vertex="1" parent="1u1P56M-2j0-biD6IoiB-53">
          <mxGeometry y="68" width="372" height="28" as="geometry" />
        </mxCell>
        <mxCell id="1u1P56M-2j0-biD6IoiB-57" value="+ searchMovie&amp;nbsp;() : void" style="text;strokeColor=none;fillColor=none;align=left;verticalAlign=top;spacingLeft=4;spacingRight=4;overflow=hidden;rotatable=0;points=[[0,0.5],[1,0.5]];portConstraint=eastwest;whiteSpace=wrap;html=1;" vertex="1" parent="1u1P56M-2j0-biD6IoiB-53">
          <mxGeometry y="96" width="372" height="28" as="geometry" />
        </mxCell>
        <mxCell id="1u1P56M-2j0-biD6IoiB-58" value="+ removeMovie&amp;nbsp;() : void" style="text;strokeColor=none;fillColor=none;align=left;verticalAlign=top;spacingLeft=4;spacingRight=4;overflow=hidden;rotatable=0;points=[[0,0.5],[1,0.5]];portConstraint=eastwest;whiteSpace=wrap;html=1;" vertex="1" parent="1u1P56M-2j0-biD6IoiB-53">
          <mxGeometry y="124" width="372" height="28" as="geometry" />
        </mxCell>
        <mxCell id="1u1P56M-2j0-biD6IoiB-59" value="ShowtimeArray" style="swimlane;fontStyle=1;align=center;verticalAlign=top;childLayout=stackLayout;horizontal=1;startSize=26;horizontalStack=0;resizeParent=1;resizeParentMax=0;resizeLast=0;collapsible=1;marginBottom=0;whiteSpace=wrap;html=1;" vertex="1" parent="1">
          <mxGeometry x="228" y="1236" width="372" height="152" as="geometry" />
        </mxCell>
        <mxCell id="1u1P56M-2j0-biD6IoiB-60" value="- showTimes: Showtime[]&lt;br&gt;&lt;div style=&quot;box-sizing: inherit; -webkit-tap-highlight-color: rgba(0, 0, 0, 0); pointer-events: all; position: absolute; inset-inline-end: 0px; display: flex; align-items: center; line-height: 1; padding: inherit; height: var(--messages-time-text-size); visibility: visible; color: var(--message-time-color); bottom: 4px; font-family: Roboto, -apple-system, &amp;quot;apple color emoji&amp;quot;, BlinkMacSystemFont, &amp;quot;Segoe UI&amp;quot;, Roboto, Oxygen-Sans, Ubuntu, Cantarell, &amp;quot;Helvetica Neue&amp;quot;, sans-serif; background-color: rgb(223, 255, 223);&quot; title=&quot;24 March 2024, 22:54:58&quot; class=&quot;time-inner&quot;&gt;&lt;/div&gt;&lt;span style=&quot;box-sizing: inherit; font-variant-numeric: normal; font-variant-east-asian: normal; font-variant-alternates: normal; font-variant-position: normal; line-height: var(--messages-time-text-size); -webkit-font-smoothing: antialiased; pointer-events: none; order: 5; font-size: calc(var(--messages-text-size) + 3px); color: var(--message-status-color); background-color: rgb(223, 255, 223); user-select: text !important; font-family: tgico !important;&quot; class=&quot;tgico time-sending-status&quot;&gt;&lt;/span&gt;&lt;span style=&quot;box-sizing: inherit; user-select: none; visibility: hidden; font-size: var(--messages-time-text-size); height: var(--messages-time-text-size); line-height: 1; vertical-align: middle; pointer-events: none; display: inline-flex; z-index: 1; cursor: pointer; direction: ltr; float: right; padding-inline-end: 6px; margin-inline-start: -3px;&quot; class=&quot;time&quot;&gt;&lt;/span&gt;" style="text;strokeColor=none;fillColor=none;align=left;verticalAlign=top;spacingLeft=4;spacingRight=4;overflow=hidden;rotatable=0;points=[[0,0.5],[1,0.5]];portConstraint=eastwest;whiteSpace=wrap;html=1;" vertex="1" parent="1u1P56M-2j0-biD6IoiB-59">
          <mxGeometry y="26" width="372" height="34" as="geometry" />
        </mxCell>
        <mxCell id="1u1P56M-2j0-biD6IoiB-61" value="" style="line;strokeWidth=1;fillColor=none;align=left;verticalAlign=middle;spacingTop=-1;spacingLeft=3;spacingRight=3;rotatable=0;labelPosition=right;points=[];portConstraint=eastwest;strokeColor=inherit;" vertex="1" parent="1u1P56M-2j0-biD6IoiB-59">
          <mxGeometry y="60" width="372" height="8" as="geometry" />
        </mxCell>
        <mxCell id="1u1P56M-2j0-biD6IoiB-62" value="+ addShowtime() : void" style="text;strokeColor=none;fillColor=none;align=left;verticalAlign=top;spacingLeft=4;spacingRight=4;overflow=hidden;rotatable=0;points=[[0,0.5],[1,0.5]];portConstraint=eastwest;whiteSpace=wrap;html=1;" vertex="1" parent="1u1P56M-2j0-biD6IoiB-59">
          <mxGeometry y="68" width="372" height="28" as="geometry" />
        </mxCell>
        <mxCell id="1u1P56M-2j0-biD6IoiB-63" value="+ searchShowtime&amp;nbsp;() : void" style="text;strokeColor=none;fillColor=none;align=left;verticalAlign=top;spacingLeft=4;spacingRight=4;overflow=hidden;rotatable=0;points=[[0,0.5],[1,0.5]];portConstraint=eastwest;whiteSpace=wrap;html=1;" vertex="1" parent="1u1P56M-2j0-biD6IoiB-59">
          <mxGeometry y="96" width="372" height="28" as="geometry" />
        </mxCell>
        <mxCell id="1u1P56M-2j0-biD6IoiB-64" value="+ removeShowtime&amp;nbsp;() : void" style="text;strokeColor=none;fillColor=none;align=left;verticalAlign=top;spacingLeft=4;spacingRight=4;overflow=hidden;rotatable=0;points=[[0,0.5],[1,0.5]];portConstraint=eastwest;whiteSpace=wrap;html=1;" vertex="1" parent="1u1P56M-2j0-biD6IoiB-59">
          <mxGeometry y="124" width="372" height="28" as="geometry" />
        </mxCell>
        <mxCell id="VjdvoPIudIwIplxeoRVd-1" value="RecommendationSystem" style="swimlane;fontStyle=1;align=center;verticalAlign=top;childLayout=stackLayout;horizontal=1;startSize=26;horizontalStack=0;resizeParent=1;resizeParentMax=0;resizeLast=0;collapsible=1;marginBottom=0;whiteSpace=wrap;html=1;" vertex="1" parent="1">
          <mxGeometry x="-168" y="1476" width="372" height="130" as="geometry" />
        </mxCell>
        <mxCell id="VjdvoPIudIwIplxeoRVd-2" value="- movies : List&amp;lt;Movie&amp;gt;&lt;br&gt;&lt;div style=&quot;box-sizing: inherit; -webkit-tap-highlight-color: rgba(0, 0, 0, 0); pointer-events: all; position: absolute; inset-inline-end: 0px; display: flex; align-items: center; line-height: 1; padding: inherit; height: var(--messages-time-text-size); visibility: visible; color: var(--message-time-color); bottom: 4px; font-family: Roboto, -apple-system, &amp;quot;apple color emoji&amp;quot;, BlinkMacSystemFont, &amp;quot;Segoe UI&amp;quot;, Roboto, Oxygen-Sans, Ubuntu, Cantarell, &amp;quot;Helvetica Neue&amp;quot;, sans-serif; background-color: rgb(223, 255, 223);&quot; title=&quot;24 March 2024, 22:54:58&quot; class=&quot;time-inner&quot;&gt;&lt;/div&gt;&lt;span style=&quot;box-sizing: inherit; font-variant-numeric: normal; font-variant-east-asian: normal; font-variant-alternates: normal; font-variant-position: normal; line-height: var(--messages-time-text-size); -webkit-font-smoothing: antialiased; pointer-events: none; order: 5; font-size: calc(var(--messages-text-size) + 3px); color: var(--message-status-color); background-color: rgb(223, 255, 223); user-select: text !important; font-family: tgico !important;&quot; class=&quot;tgico time-sending-status&quot;&gt;&lt;/span&gt;&lt;span style=&quot;box-sizing: inherit; user-select: none; visibility: hidden; font-size: var(--messages-time-text-size); height: var(--messages-time-text-size); line-height: 1; vertical-align: middle; pointer-events: none; display: inline-flex; z-index: 1; cursor: pointer; direction: ltr; float: right; padding-inline-end: 6px; margin-inline-start: -3px;&quot; class=&quot;time&quot;&gt;&lt;/span&gt;" style="text;strokeColor=none;fillColor=none;align=left;verticalAlign=top;spacingLeft=4;spacingRight=4;overflow=hidden;rotatable=0;points=[[0,0.5],[1,0.5]];portConstraint=eastwest;whiteSpace=wrap;html=1;" vertex="1" parent="VjdvoPIudIwIplxeoRVd-1">
          <mxGeometry y="26" width="372" height="34" as="geometry" />
        </mxCell>
        <mxCell id="VjdvoPIudIwIplxeoRVd-6" value="- user: User&lt;br&gt;&lt;div style=&quot;box-sizing: inherit; -webkit-tap-highlight-color: rgba(0, 0, 0, 0); pointer-events: all; position: absolute; inset-inline-end: 0px; display: flex; align-items: center; line-height: 1; padding: inherit; height: var(--messages-time-text-size); visibility: visible; color: var(--message-time-color); bottom: 4px; font-family: Roboto, -apple-system, &amp;quot;apple color emoji&amp;quot;, BlinkMacSystemFont, &amp;quot;Segoe UI&amp;quot;, Roboto, Oxygen-Sans, Ubuntu, Cantarell, &amp;quot;Helvetica Neue&amp;quot;, sans-serif; background-color: rgb(223, 255, 223);&quot; title=&quot;24 March 2024, 22:54:58&quot; class=&quot;time-inner&quot;&gt;&lt;/div&gt;&lt;span style=&quot;box-sizing: inherit; font-variant-numeric: normal; font-variant-east-asian: normal; font-variant-alternates: normal; font-variant-position: normal; line-height: var(--messages-time-text-size); -webkit-font-smoothing: antialiased; pointer-events: none; order: 5; font-size: calc(var(--messages-text-size) + 3px); color: var(--message-status-color); background-color: rgb(223, 255, 223); user-select: text !important; font-family: tgico !important;&quot; class=&quot;tgico time-sending-status&quot;&gt;&lt;/span&gt;&lt;span style=&quot;box-sizing: inherit; user-select: none; visibility: hidden; font-size: var(--messages-time-text-size); height: var(--messages-time-text-size); line-height: 1; vertical-align: middle; pointer-events: none; display: inline-flex; z-index: 1; cursor: pointer; direction: ltr; float: right; padding-inline-end: 6px; margin-inline-start: -3px;&quot; class=&quot;time&quot;&gt;&lt;/span&gt;" style="text;strokeColor=none;fillColor=none;align=left;verticalAlign=top;spacingLeft=4;spacingRight=4;overflow=hidden;rotatable=0;points=[[0,0.5],[1,0.5]];portConstraint=eastwest;whiteSpace=wrap;html=1;" vertex="1" parent="VjdvoPIudIwIplxeoRVd-1">
          <mxGeometry y="60" width="372" height="34" as="geometry" />
        </mxCell>
        <mxCell id="VjdvoPIudIwIplxeoRVd-3" value="" style="line;strokeWidth=1;fillColor=none;align=left;verticalAlign=middle;spacingTop=-1;spacingLeft=3;spacingRight=3;rotatable=0;labelPosition=right;points=[];portConstraint=eastwest;strokeColor=inherit;" vertex="1" parent="VjdvoPIudIwIplxeoRVd-1">
          <mxGeometry y="94" width="372" height="8" as="geometry" />
        </mxCell>
        <mxCell id="VjdvoPIudIwIplxeoRVd-4" value="+ recommendBasedonAge() : List&amp;lt;Movie&amp;gt;" style="text;strokeColor=none;fillColor=none;align=left;verticalAlign=top;spacingLeft=4;spacingRight=4;overflow=hidden;rotatable=0;points=[[0,0.5],[1,0.5]];portConstraint=eastwest;whiteSpace=wrap;html=1;" vertex="1" parent="VjdvoPIudIwIplxeoRVd-1">
          <mxGeometry y="102" width="372" height="28" as="geometry" />
        </mxCell>
        <mxCell id="VjdvoPIudIwIplxeoRVd-7" value="AgeBasedRecommendation" style="swimlane;fontStyle=1;align=center;verticalAlign=top;childLayout=stackLayout;horizontal=1;startSize=26;horizontalStack=0;resizeParent=1;resizeParentMax=0;resizeLast=0;collapsible=1;marginBottom=0;whiteSpace=wrap;html=1;" vertex="1" parent="1">
          <mxGeometry x="276" y="1488" width="372" height="130" as="geometry" />
        </mxCell>
        <mxCell id="VjdvoPIudIwIplxeoRVd-8" value="- movies : List&amp;lt;Movie&amp;gt;&lt;br&gt;&lt;div style=&quot;box-sizing: inherit; -webkit-tap-highlight-color: rgba(0, 0, 0, 0); pointer-events: all; position: absolute; inset-inline-end: 0px; display: flex; align-items: center; line-height: 1; padding: inherit; height: var(--messages-time-text-size); visibility: visible; color: var(--message-time-color); bottom: 4px; font-family: Roboto, -apple-system, &amp;quot;apple color emoji&amp;quot;, BlinkMacSystemFont, &amp;quot;Segoe UI&amp;quot;, Roboto, Oxygen-Sans, Ubuntu, Cantarell, &amp;quot;Helvetica Neue&amp;quot;, sans-serif; background-color: rgb(223, 255, 223);&quot; title=&quot;24 March 2024, 22:54:58&quot; class=&quot;time-inner&quot;&gt;&lt;/div&gt;&lt;span style=&quot;box-sizing: inherit; font-variant-numeric: normal; font-variant-east-asian: normal; font-variant-alternates: normal; font-variant-position: normal; line-height: var(--messages-time-text-size); -webkit-font-smoothing: antialiased; pointer-events: none; order: 5; font-size: calc(var(--messages-text-size) + 3px); color: var(--message-status-color); background-color: rgb(223, 255, 223); user-select: text !important; font-family: tgico !important;&quot; class=&quot;tgico time-sending-status&quot;&gt;&lt;/span&gt;&lt;span style=&quot;box-sizing: inherit; user-select: none; visibility: hidden; font-size: var(--messages-time-text-size); height: var(--messages-time-text-size); line-height: 1; vertical-align: middle; pointer-events: none; display: inline-flex; z-index: 1; cursor: pointer; direction: ltr; float: right; padding-inline-end: 6px; margin-inline-start: -3px;&quot; class=&quot;time&quot;&gt;&lt;/span&gt;" style="text;strokeColor=none;fillColor=none;align=left;verticalAlign=top;spacingLeft=4;spacingRight=4;overflow=hidden;rotatable=0;points=[[0,0.5],[1,0.5]];portConstraint=eastwest;whiteSpace=wrap;html=1;" vertex="1" parent="VjdvoPIudIwIplxeoRVd-7">
          <mxGeometry y="26" width="372" height="34" as="geometry" />
        </mxCell>
        <mxCell id="VjdvoPIudIwIplxeoRVd-9" value="- client: Client&lt;br&gt;&lt;div style=&quot;box-sizing: inherit; -webkit-tap-highlight-color: rgba(0, 0, 0, 0); pointer-events: all; position: absolute; inset-inline-end: 0px; display: flex; align-items: center; line-height: 1; padding: inherit; height: var(--messages-time-text-size); visibility: visible; color: var(--message-time-color); bottom: 4px; font-family: Roboto, -apple-system, &amp;quot;apple color emoji&amp;quot;, BlinkMacSystemFont, &amp;quot;Segoe UI&amp;quot;, Roboto, Oxygen-Sans, Ubuntu, Cantarell, &amp;quot;Helvetica Neue&amp;quot;, sans-serif; background-color: rgb(223, 255, 223);&quot; title=&quot;24 March 2024, 22:54:58&quot; class=&quot;time-inner&quot;&gt;&lt;/div&gt;&lt;span style=&quot;box-sizing: inherit; font-variant-numeric: normal; font-variant-east-asian: normal; font-variant-alternates: normal; font-variant-position: normal; line-height: var(--messages-time-text-size); -webkit-font-smoothing: antialiased; pointer-events: none; order: 5; font-size: calc(var(--messages-text-size) + 3px); color: var(--message-status-color); background-color: rgb(223, 255, 223); user-select: text !important; font-family: tgico !important;&quot; class=&quot;tgico time-sending-status&quot;&gt;&lt;/span&gt;&lt;span style=&quot;box-sizing: inherit; user-select: none; visibility: hidden; font-size: var(--messages-time-text-size); height: var(--messages-time-text-size); line-height: 1; vertical-align: middle; pointer-events: none; display: inline-flex; z-index: 1; cursor: pointer; direction: ltr; float: right; padding-inline-end: 6px; margin-inline-start: -3px;&quot; class=&quot;time&quot;&gt;&lt;/span&gt;" style="text;strokeColor=none;fillColor=none;align=left;verticalAlign=top;spacingLeft=4;spacingRight=4;overflow=hidden;rotatable=0;points=[[0,0.5],[1,0.5]];portConstraint=eastwest;whiteSpace=wrap;html=1;" vertex="1" parent="VjdvoPIudIwIplxeoRVd-7">
          <mxGeometry y="60" width="372" height="34" as="geometry" />
        </mxCell>
        <mxCell id="VjdvoPIudIwIplxeoRVd-10" value="" style="line;strokeWidth=1;fillColor=none;align=left;verticalAlign=middle;spacingTop=-1;spacingLeft=3;spacingRight=3;rotatable=0;labelPosition=right;points=[];portConstraint=eastwest;strokeColor=inherit;" vertex="1" parent="VjdvoPIudIwIplxeoRVd-7">
          <mxGeometry y="94" width="372" height="8" as="geometry" />
        </mxCell>
        <mxCell id="VjdvoPIudIwIplxeoRVd-11" value="+ recommendBasedonAge() : void" style="text;strokeColor=none;fillColor=none;align=left;verticalAlign=top;spacingLeft=4;spacingRight=4;overflow=hidden;rotatable=0;points=[[0,0.5],[1,0.5]];portConstraint=eastwest;whiteSpace=wrap;html=1;" vertex="1" parent="VjdvoPIudIwIplxeoRVd-7">
          <mxGeometry y="102" width="372" height="28" as="geometry" />
        </mxCell>
        <mxCell id="VjdvoPIudIwIplxeoRVd-12" value="&amp;lt;&amp;lt;utility&amp;gt;&amp;gt; PriceAdjustment" style="swimlane;fontStyle=0;childLayout=stackLayout;horizontal=1;startSize=26;fillColor=none;horizontalStack=0;resizeParent=1;resizeParentMax=0;resizeLast=0;collapsible=1;marginBottom=0;whiteSpace=wrap;html=1;" vertex="1" parent="1">
          <mxGeometry x="36" y="1692" width="140" height="52" as="geometry" />
        </mxCell>
        <mxCell id="VjdvoPIudIwIplxeoRVd-16" value="&amp;lt;&amp;lt;utility&amp;gt;&amp;gt; &lt;br&gt;SeatSelector" style="swimlane;fontStyle=0;childLayout=stackLayout;horizontal=1;startSize=26;fillColor=none;horizontalStack=0;resizeParent=1;resizeParentMax=0;resizeLast=0;collapsible=1;marginBottom=0;whiteSpace=wrap;html=1;" vertex="1" parent="1">
          <mxGeometry x="228" y="1692" width="140" height="52" as="geometry" />
        </mxCell>
      </root>
    </mxGraphModel>
  </diagram>
</mxfile>
